<?xml version="1.0" standalone="no"?>
<!DOCTYPE svg PUBLIC "-//W3C//DTD SVG 1.1//EN" "http://www.w3.org/Graphics/SVG/1.1/DTD/svg11.dtd" >
<svg xmlns="http://www.w3.org/2000/svg" xmlns:xlink="http://www.w3.org/1999/xlink" version="1.1">
<metadata>
Created by FontForge 20170731 at Sun Feb 12 13:44:53 2017
 By Aleksey,,,
Copyright (c) 1996-2015 Pushpananda Ekanayake (pushpanandae@gmail.com) Copyright (c) 2015 Sol Matas (sol@sonnenshine.com.ar) Copyright (c) 2015 Mooniak (hello@mooniak.com)
</metadata>
<defs>
<font id="AbhayaLibre-ExtraBold" horiz-adv-x="583" >
  <font-face 
    font-family="Abhaya Libre ExtraBold"
    font-weight="800"
    font-stretch="normal"
    units-per-em="1024"
    panose-1="2 0 8 3 0 0 0 0 0 0"
    ascent="819"
    descent="-205"
    x-height="430"
    cap-height="600"
    bbox="-585 -340 1665 860"
    underline-thickness="0"
    underline-position="0"
    unicode-range="U+0020-FB02"
  />
<missing-glyph horiz-adv-x="631" 
d="M50 -93v847h531v-847h-531zM261 154q0 29 25 39q7 2 14 2q26 0 36 -25q3 -8 3 -16q0 -27 -25 -37q-8 -3 -14 -3q-27 0 -37 26q-2 7 -2 14zM157 633v-616h317v616h-317zM213 451q36 48 97 49q76 0 102 -66q8 -21 9 -46q0 -29 -9 -52t-21.5 -34t-25.5 -18.5t-22 -9.5l-9 -1
v-58h-67v117q62 1 77 19q10 13 10 38q0 31 -31 41q-9 2 -17 2q-32 -1 -51 -26z" />
    <glyph glyph-name="fi" unicode="fi" horiz-adv-x="601" 
d="M269 26h-41v378h170v-326q0 -42 -26 -49q-11 -3 -26 -3v-26h240q0 23 -13 25q-5 1 -11 1h-37v404h-297v5q0 137 29 173q21 24 63 24q36 0 54 -41q3 -6 9 -20q18 -48 39 -62q19 -11 44 -11q43 0 58 35q5 10 5 22q0 46 -64 76q-54 24 -129 24q-163 0 -214 -109
q-21 -44 -21 -103v-13h-81v-26h81v-326q-2 -52 -76 -52v-26h268q0 23 -13 25q-5 1 -11 1z" />
    <glyph glyph-name="fl" unicode="fl" horiz-adv-x="624" 
d="M609 0q0 23 -13 25q-5 1 -11 1h-50v624h-150q-40 5 -85 5q-108 0 -162 -78q-37 -53 -37 -134v-13h-81v-26h81v-326q-2 -52 -76 -52v-26h259q0 23 -13 25q-5 1 -11 1h-32v378h99v26h-99v5q0 145 36 178q20 17 56 17q49 0 88 -17v-533q0 -44 -35 -51q-14 -3 -33 -3v-26h269
z" />
    <glyph glyph-name=".notdef" horiz-adv-x="631" 
d="M50 -93v847h531v-847h-531zM261 154q0 29 25 39q7 2 14 2q26 0 36 -25q3 -8 3 -16q0 -27 -25 -37q-8 -3 -14 -3q-27 0 -37 26q-2 7 -2 14zM157 633v-616h317v616h-317zM213 451q36 48 97 49q76 0 102 -66q8 -21 9 -46q0 -29 -9 -52t-21.5 -34t-25.5 -18.5t-22 -9.5l-9 -1
v-58h-67v117q62 1 77 19q10 13 10 38q0 31 -31 41q-9 2 -17 2q-32 -1 -51 -26z" />
    <glyph glyph-name=".null" horiz-adv-x="0" 
 />
    <glyph glyph-name="nonmarkingreturn" horiz-adv-x="341" 
 />
    <glyph glyph-name="space" unicode=" " horiz-adv-x="195" 
 />
    <glyph glyph-name="exclam" unicode="!" horiz-adv-x="234" 
d="M134 192q0 114 36 242q21 72 21 105q-2 70 -73 71q-71 -6 -75 -72q0 -32 24 -116q33 -118 33 -230h34zM189 65q0 42 -38 63q-16 8 -33 8q-42 0 -62 -38q-8 -16 -8 -33q0 -43 38 -62q15 -8 32 -8q43 0 63 36q8 16 8 34z" />
    <glyph glyph-name="quotedbl" unicode="&#x22;" horiz-adv-x="308" 
d="M82 660q-48 0 -56 -34q-1 -6 -1 -11q0 -19 21 -93q14 -50 20 -91h30q5 36 32 133q9 35 9 53q-10 38 -55 43zM228 660q-48 0 -56 -34q-1 -6 -1 -11q0 -19 21 -93q14 -50 20 -91h30q5 36 32 133q9 34 9 53q-10 38 -55 43z" />
    <glyph glyph-name="numbersign" unicode="#" horiz-adv-x="579" 
d="M312 -10h40l26 202h128v58h-120l15 110h118v58h-111l24 182h-40l-24 -182h-124l24 182h-40l-24 -182h-131v-58h124l-15 -110h-122v-58h114l-26 -202h40l26 202h124zM346 250h-124l15 110h124z" />
    <glyph glyph-name="dollar" unicode="$" horiz-adv-x="565" 
d="M198 497q0 72 78 83h2v-201q-79 51 -80 118zM394 123q-2 -84 -87 -99v218q84 -56 87 -119zM307 -91v82q128 8 185 80q33 41 33 96q0 74 -89 129q-11 6 -109 56q-11 5 -20 10v219q45 0 57 -42q3 -8 6 -26q8 -48 27 -62q18 -12 46 -12q48 0 57 46q1 7 1 15q0 55 -82 88
q-50 19 -112 22v89h-29v-89q-126 -2 -185 -67q-34 -39 -34 -92q0 -74 92 -129q11 -6 113 -57l14 -7v-237h-9q-57 0 -74 47q-3 10 -8 30q-11 49 -30 63q-17 13 -48 13q-50 0 -65 -39q-4 -11 -4 -22q0 -56 69 -91q65 -31 169 -32v-81h29z" />
    <glyph glyph-name="percent" unicode="%" horiz-adv-x="836" 
d="M211 -33l429 643l-37 23l-430 -643zM218 629q-95 0 -145 -69q-33 -45 -33 -105q0 -101 76 -149q43 -27 99 -27q96 0 145 69q32 45 32 105q0 104 -78 151q-42 25 -96 25zM217 300q-43 0 -56 55q-8 35 -8 98q0 126 37 148q12 7 27 7q44 0 56 -65q6 -33 6 -87
q0 -124 -33 -148q-13 -8 -29 -8zM617 340q-95 0 -145 -69q-33 -45 -33 -105q0 -101 76 -149q43 -27 99 -27q96 0 145 69q32 44 32 105q0 104 -78 151q-42 25 -96 25zM616 11q-43 0 -56 55q-8 35 -8 98q0 126 37 148q12 7 27 7q44 0 56 -65q6 -33 6 -87q0 -124 -33 -148
q-13 -8 -29 -8z" />
    <glyph glyph-name="ampersand" unicode="&#x26;" horiz-adv-x="589" 
d="M246 510q0 51 38 67q11 5 25 5q65 -4 67 -72q0 -46 -50 -84q-20 -15 -45 -25q-35 69 -35 109zM271 20q-91 0 -111 86q-8 35 -8 96q1 110 32 135q67 -131 198 -284q-49 -33 -111 -33zM528 319h-1h3l31 1q23 0 26 12q2 7 2 15h-144v-26h55q0 -102 -40 -179
q-113 140 -167 236q75 28 102 90q9 22 9 42q0 72 -67 93q-22 7 -48 7q-85 0 -126 -54q-24 -32 -24 -76q1 -48 33 -119q-119 -35 -142 -139q-5 -22 -5 -46q0 -92 73 -145q57 -41 141 -41q93 1 160 43l30 -33h175q0 23 -16 25q-4 1 -9 1h-17q-28 30 -83 93q49 86 49 200z" />
    <glyph glyph-name="quotesingle" unicode="'" horiz-adv-x="168" 
d="M85 660q-48 0 -58 -32q-2 -7 -2 -13q0 -19 22 -89q16 -53 22 -95h30q5 39 33 132q11 35 11 54q0 35 -43 42q-8 1 -15 1z" />
    <glyph glyph-name="parenleft" unicode="(" horiz-adv-x="336" 
d="M312 650q-141 -38 -213 -183q-49 -101 -49 -221q0 -168 89 -282q68 -86 170 -114l10 28q-111 41 -132 230q-6 57 -6 140q0 217 56 304q33 50 84 70z" />
    <glyph glyph-name="parenright" unicode=")" horiz-adv-x="336" 
d="M24 650q141 -38 213 -183q49 -101 49 -221q0 -168 -89 -282q-68 -86 -170 -114l-10 28q111 41 132 230q6 57 6 140q0 217 -56 304q-33 50 -84 70z" />
    <glyph glyph-name="asterisk" unicode="*" horiz-adv-x="383" 
d="M194 650q-41 0 -47 -28q-1 -4 -1 -7q0 -14 21 -71q10 -26 15 -47q-7 7 -56 63q-29 31 -45 32q-25 0 -40 -33q-6 -14 -6 -26q1 -19 15 -27q13 -8 70 -17q30 -5 52 -11q-16 -5 -88 -18q-23 -5 -34 -11q-15 -10 -16 -27q0 -29 25 -49q12 -9 23 -9q20 0 53 41t47 54
q-4 -16 -28 -84q-8 -23 -8 -36q6 -31 46 -34q41 0 47 28q1 4 1 7q0 14 -20 68q-11 29 -16 51q8 -7 54 -61q30 -34 47 -35q25 0 40 33q6 14 6 26q-1 19 -15 27q-13 8 -70 17q-30 5 -52 11q16 5 88 18q23 5 34 11q15 10 16 27q0 29 -25 49q-12 9 -23 9q-20 0 -52 -40
q-34 -43 -49 -57q3 13 29 85q8 23 8 37q-6 31 -46 34z" />
    <glyph glyph-name="plus" unicode="+" horiz-adv-x="448" 
d="M418 213v42h-166v180h-55v-180h-167v-42h167v-180h55v180h166z" />
    <glyph glyph-name="comma" unicode="," horiz-adv-x="187" 
d="M167 53q0 62 -47 79q-13 4 -27 4q-41 0 -60 -38q-8 -16 -8 -33q0 -44 41 -64q8 -3 16 -5q25 -7 26 -25q0 -30 -37 -70l-2 -2l21 -16q63 68 75 146q2 13 2 24z" />
    <glyph glyph-name="short_dash1" unicode="-" horiz-adv-x="297" 
d="M43 226h202v-39h-202v39z" />
    <glyph glyph-name="period" unicode="." horiz-adv-x="191" 
d="M166 65q0 42 -38 63q-16 8 -33 8q-42 0 -62 -38q-8 -16 -8 -33q0 -43 38 -62q15 -8 32 -8q43 0 63 36q8 16 8 34z" />
    <glyph glyph-name="slash" unicode="/" horiz-adv-x="436" 
d="M85 -155l341 865h-85l-341 -865h85z" />
    <glyph glyph-name="zero" unicode="0" horiz-adv-x="568" 
d="M288 550q-135 0 -204 -102q-49 -73 -49 -176q0 -160 98 -235q62 -47 150 -47q134 0 203 103q47 72 47 175q0 170 -104 242q-59 40 -141 40zM286 17q-68 0 -91 82q-16 58 -16 169q0 204 63 244q18 11 43 11q75 0 95 -118q9 -53 9 -132q0 -191 -49 -236q-22 -20 -54 -20z
" />
    <glyph glyph-name="one" unicode="1" horiz-adv-x="442" 
d="M233 540l-213 -135l18 -28l144 87v-429l-127 -9v-26h372q0 21 -24 25q-4 1 -7 1l-80 9v505h-83z" />
    <glyph glyph-name="two" unicode="2" horiz-adv-x="493" 
d="M93 100q0 41 76 81q19 10 60 29q112 52 151 89q49 47 49 104q0 101 -112 134q-43 13 -94 13q-113 0 -163 -55q-27 -30 -27 -70q0 -52 38 -66q11 -3 21 -3q53 0 62 48q2 12 3 38q2 54 19 69q15 12 39 12q59 0 75 -69q4 -20 4 -42q0 -107 -76 -165q-12 -9 -84 -52
q-67 -41 -88 -87q-16 -34 -16 -79v-29h407l1 188h-23l-18 -44q-15 -36 -40 -42q-11 -2 -34 -2h-230z" />
    <glyph glyph-name="three" unicode="3" horiz-adv-x="539" 
d="M474 513v27h-403l-2 -183h25l18 46q15 37 43 43q12 2 35 2h161l-173 -198l26 -21q34 14 67 14q81 0 96 -95q3 -19 3 -39q-2 -161 -136 -162q-57 0 -68 49q-2 12 -4 38q-3 51 -19 66q-15 12 -40 12q-52 0 -62 -46q-2 -9 -2 -18q0 -80 98 -113q48 -15 107 -15q144 0 215 86
q42 52 42 117q0 87 -77 128q-48 25 -117 25q-33 0 -64 -6z" />
    <glyph glyph-name="four" unicode="4" horiz-adv-x="532" 
d="M489 -65q0 24 -13 26q-5 1 -11 1h-63v124h87v30h-87v212h-23l-14 -43q-13 -40 -50 -46q-12 -2 -30 -2h-12v-120l-223 1q24 20 77 63q165 135 220 199q58 66 58 110q0 49 -49 62q-13 3 -27 3q-49 0 -69 -40q-4 -8 -28 -85q-45 -141 -157 -250q-33 -32 -70 -62l6 -30
l262 -1v-125h-114v-27h330z" />
    <glyph glyph-name="five" unicode="5" horiz-adv-x="523" 
d="M489 114q0 117 -98 164q-47 22 -107 22q-82 -1 -153 -43v186q80 -9 141 -9q108 0 139 28q27 35 28 118h-27q-12 -33 -40 -41q-20 -6 -57 -6q-27 0 -113 4q-66 3 -105 5v-301l34 -26q56 45 112 45q76 0 104 -73q12 -33 12 -74q0 -157 -102 -166h-11q-52 0 -61 47
q-2 11 -3 35q-3 53 -20 68q-16 13 -43 13q-50 0 -62 -43q-2 -9 -2 -20q0 -76 84 -110q44 -17 97 -17q128 0 199 65q54 51 54 129z" />
    <glyph glyph-name="six" unicode="6" horiz-adv-x="552" 
d="M517 190q0 95 -71 146q-53 37 -131 37q-72 -1 -135 -40q8 259 124 260q55 0 66 -44q3 -9 5 -30q5 -47 23 -61q16 -11 44 -11q48 0 61 43q3 11 3 23q0 50 -64 82q-53 25 -127 25q-156 0 -227 -132q-43 -80 -43 -187q0 -207 119 -280q51 -31 115 -31q137 0 202 90
q36 50 36 110zM182 173q1 166 107 167q74 0 92 -82q6 -31 6 -74q0 -153 -86 -166q-9 -1 -18 -1q-81 0 -97 97q-4 27 -4 59z" />
    <glyph glyph-name="seven" unicode="7" horiz-adv-x="485" 
d="M480 510v30h-438l-2 -181h25l18 46q14 36 44 41q12 2 34 2h238q-20 -29 -176 -240q-96 -129 -113 -187q-5 -19 -5 -36q0 -49 48 -62q12 -3 25 -3q47 0 65 40q7 15 30 109q51 209 182 405q13 19 25 36z" />
    <glyph glyph-name="eight" unicode="8" horiz-adv-x="545" 
d="M257 -10q112 0 180 60q52 48 53 116q0 80 -97 143q-18 11 -40 24q81 47 95 119q2 12 2 23q0 94 -92 129q-42 16 -95 16q-102 0 -159 -58q-41 -42 -41 -102q0 -75 93 -138q11 -8 24 -16q-101 -37 -124 -118q-6 -20 -6 -41q0 -72 65 -118q57 -39 142 -39zM173 502
q0 64 66 83q21 5 43 5q79 0 114 -52q18 -27 18 -62q0 -62 -62 -109q-14 -10 -28 -18q-93 51 -121 82q-30 33 -30 71zM86 150q0 71 66 112q27 16 61 25q92 -53 117 -75q47 -42 48 -89q0 -68 -72 -93q-30 -10 -65 -10q-73 0 -120 47q-35 35 -35 83z" />
    <glyph glyph-name="nine" unicode="9" horiz-adv-x="552" 
d="M507 259q0 182 -110 254q-57 37 -133 37q-142 0 -200 -89q-29 -45 -29 -104q0 -112 98 -156q50 -22 117 -22q69 1 122 34q-2 -181 -50 -235q-28 -31 -72 -31q-57 0 -70 49q-3 10 -6 33q-6 49 -23 63q-15 12 -41 12q-48 0 -63 -40q-4 -11 -4 -22q0 -57 71 -94
q55 -28 123 -28q125 0 199 92q71 90 71 247zM165 374q1 148 102 149q104 -2 105 -160q-1 -150 -106 -151q-90 0 -100 125q-1 18 -1 37z" />
    <glyph glyph-name="colon" unicode=":" horiz-adv-x="201" 
d="M171 332q0 42 -38 63q-16 8 -33 8q-42 0 -62 -38q-8 -16 -8 -33q0 -43 38 -62q15 -8 32 -8q43 0 63 36q8 16 8 34zM171 104q0 41 -34 64q-18 12 -37 12q-40 0 -61 -39q-9 -18 -9 -37q0 -43 38 -62q15 -8 32 -8q43 0 63 36q8 16 8 34z" />
    <glyph glyph-name="semicolon" unicode=";" horiz-adv-x="187" 
d="M166 302q0 42 -38 63q-16 8 -33 8q-42 0 -62 -38q-8 -16 -8 -33q0 -43 38 -62q15 -8 32 -8q43 0 63 36q8 16 8 34zM167 66q0 62 -47 79q-13 4 -27 4q-41 0 -60 -38q-8 -16 -8 -33q0 -44 41 -64q8 -3 16 -5q25 -7 26 -25q0 -30 -37 -70l-2 -2l21 -16q63 68 75 146
q2 13 2 24z" />
    <glyph glyph-name="less" unicode="&#x3c;" horiz-adv-x="442" 
d="M393 65l19 43l-305 128l305 129l-16 40l-366 -153v-34z" />
    <glyph glyph-name="equal" unicode="=" horiz-adv-x="448" 
d="M418 268v42h-388v-42h388zM418 158v42h-388v-42h388z" />
    <glyph glyph-name="greater" unicode="&#x3e;" horiz-adv-x="442" 
d="M49 405l-19 -43l305 -128l-305 -129l16 -40l366 153v34z" />
    <glyph glyph-name="question" unicode="?" horiz-adv-x="467" 
d="M225 192q0 71 62 122q11 9 35 26q57 41 75 70q20 32 20 73q0 83 -99 114q-43 13 -94 13q-95 0 -145 -43q-28 -26 -29 -60q0 -42 40 -52q10 -2 20 -2q45 0 54 41q2 8 4 25q5 44 21 56q14 9 35 9q48 0 62 -50q4 -16 4 -34q0 -87 -39 -145q-34 -49 -36 -53q-24 -45 -24 -110
h34zM283 65q0 42 -38 63q-16 8 -33 8q-42 0 -62 -38q-8 -16 -8 -33q0 -43 38 -62q15 -8 32 -8q43 0 63 36q8 16 8 34z" />
    <glyph glyph-name="at" unicode="@" horiz-adv-x="898" 
d="M685 -118l-12 26q-87 -42 -177 -42q-141 0 -234 98q-92 99 -92 253q0 210 127 293q67 44 157 44q148 0 229 -109q65 -90 65 -233q0 -111 -42 -158q-17 -19 -38 -19q-34 2 -35 53v187q0 113 -103 141q-30 8 -65 8q-125 0 -156 -54q-8 -13 -8 -28q0 -35 33 -45q9 -3 18 -3
q40 0 53 39q2 6 5 17q11 38 28 46q9 4 20 4q39 0 47 -43q4 -20 4 -54v-58q-234 -5 -235 -124q0 -87 83 -106q19 -4 40 -4q80 0 113 63q4 9 7 18q12 -62 75 -76q26 -6 60 -6q116 0 167 100q29 55 29 127q0 189 -142 282q-101 65 -245 65q-192 0 -307 -110
q-109 -105 -109 -282q0 -164 127 -267q122 -94 287 -96q120 0 226 53zM444 56q-41 2 -42 75q0 61 50 79q23 7 57 9v-88q-22 -74 -65 -75z" />
    <glyph glyph-name="A" unicode="A" horiz-adv-x="647" 
d="M647 0q0 24 -13 26q-5 1 -11 1h-30l-236 573h-74l-219 -573h-64v-27h184q0 24 -13 26q-5 1 -11 1h-56l72 192h199l75 -192h-71v-27h268zM363 249h-175l86 230z" />
    <glyph glyph-name="B" unicode="B" horiz-adv-x="615" 
d="M545 465q0 93 -103 123q-43 12 -98 12h-324v-27h80v-546h-80v-27h342q137 0 198 81q30 42 30 92q0 111 -121 143q-22 6 -46 9q90 29 115 99q7 21 7 41zM288 573q111 -2 112 -116q0 -94 -70 -114q-16 -4 -34 -4h-56v234h48zM322 311q80 0 106 -75q9 -26 9 -56
q0 -136 -104 -151q-13 -2 -26 -2h-67v284h82z" />
    <glyph glyph-name="C" unicode="C" horiz-adv-x="600" 
d="M545 39q-1 -38 17 -42q7 -2 18 -2v197h-33q-37 -139 -131 -165q-26 -7 -58 -7q-127 0 -159 144q-12 57 -12 141q1 274 179 275q94 0 139 -77q21 -37 37 -95h35l-3 197q-26 0 -31 -16q-2 -10 -1 -26q-87 47 -192 47q-168 0 -257 -117q-63 -84 -63 -193q0 -129 83 -217
q89 -93 234 -93q103 0 198 49z" />
    <glyph glyph-name="D" unicode="D" horiz-adv-x="670" 
d="M20 600v-27h80v-546h-80v-27h298q139 0 229 84q88 83 88 214q0 167 -126 249q-83 53 -194 53h-295zM318 573q105 0 140 -103q20 -63 20 -167q0 -208 -83 -257q-32 -19 -79 -19h-76v546h78z" />
    <glyph glyph-name="E" unicode="E" horiz-adv-x="569" 
d="M524 408l-4 192h-500v-27h80v-546h-80v-27h500l4 192h-29l-23 -69q-26 -77 -83 -92q-17 -4 -36 -4h-113v267h192v30h-192v249h113q82 0 113 -78q4 -9 7 -18l22 -69h29z" />
    <glyph glyph-name="F" unicode="F" horiz-adv-x="529" 
d="M358 0v27h-118v267h192v30h-192v249h113q90 0 119 -94q1 -1 1 -2l22 -74h29l-4 197h-500v-27h80v-546h-80v-27h338z" />
    <glyph glyph-name="G" unicode="G" horiz-adv-x="695" 
d="M387 276v-27h85v-191q-46 -36 -109 -36q-122 0 -157 128q-16 60 -16 148q0 263 157 280q12 1 24 1q143 0 181 -189v-2h31l-4 212l-94 -19q-69 29 -145 29q-137 0 -223 -85q-82 -84 -82 -223q0 -179 129 -262q78 -49 179 -49q80 0 146 30l121 -21v249h65v27h-288z" />
    <glyph glyph-name="H" unicode="H" horiz-adv-x="734" 
d="M320 0q-6 25 -27 27h-53v267h254v-267h-80v-27h300q-6 25 -27 27h-53v546h80v27h-300v-27h80v-249h-254v249h80v27h-300v-27h80v-546h-80v-27h300z" />
    <glyph glyph-name="I" unicode="I" horiz-adv-x="340" 
d="M320 0q-6 25 -27 27h-53v546h80v27h-300v-27h80v-546h-80v-27h300z" />
    <glyph glyph-name="J" unicode="J" horiz-adv-x="417" 
d="M402 573v27h-305v-27h90v-380q0 -147 -25 -175q-12 -12 -28 -12q-26 0 -34 32l-3 18q-7 47 -27 61q-16 10 -41 10q-39 0 -51 -35q-3 -10 -3 -20q0 -46 52 -72q39 -20 96 -20q135 0 182 103q22 49 22 116v374h75z" />
    <glyph glyph-name="K" unicode="K" horiz-adv-x="654" 
d="M320 0q-6 25 -27 27h-53v240l32 29l191 -297l191 1q-6 25 -27 27h-9l-244 362l152 137q45 41 65 46q7 1 13 1q24 0 26 17q1 5 1 10h-185v-27h80l-286 -258v258h80v27h-300v-27h80v-546h-80v-27h300z" />
    <glyph glyph-name="L" unicode="L" horiz-adv-x="514" 
d="M510 0l4 217h-29l-29 -94q-21 -67 -60 -86q-23 -10 -53 -10h-103v546h85v27h-305v-27h80v-546h-80v-27h490z" />
    <glyph glyph-name="M" unicode="M" horiz-adv-x="803" 
d="M793 600h-215l-179 -430l-210 430h-179v-27h80v-546h-80v-27h202q-6 25 -27 27h-53v377l213 -414h18l215 512v-475h-80v-27h295q-6 25 -27 27h-53v546h80v27z" />
    <glyph glyph-name="N" unicode="N" horiz-adv-x="664" 
d="M457 573h80v-387l-353 414h-169v-27h80v-546h-80v-27h207q-6 25 -27 27h-58v417l385 -449l57 10v568h80v27h-202v-27z" />
    <glyph glyph-name="O" unicode="O" horiz-adv-x="704" 
d="M355 610q-133 0 -225 -84q-95 -87 -95 -224q0 -157 113 -245q87 -67 204 -67q133 0 224 84q93 88 93 224q0 165 -117 251q-84 61 -197 61zM355 19q-102 0 -138 93q-25 66 -25 186q0 229 99 271q27 12 61 12q113 0 145 -127q15 -61 15 -151q0 -213 -80 -264
q-31 -20 -77 -20z" />
    <glyph glyph-name="P" unicode="P" horiz-adv-x="562" 
d="M297 573q104 -2 105 -140q-2 -138 -109 -139h-53v279h57zM340 0q-6 25 -27 27h-73v237h82q173 0 217 109q13 31 13 69q0 94 -84 135q-48 23 -114 23h-334v-27h80v-546h-80v-27h320z" />
    <glyph glyph-name="Q" unicode="Q" horiz-adv-x="709" 
d="M357 610q-133 0 -225 -84q-95 -87 -95 -224q0 -157 113 -245q87 -67 204 -67q38 0 70 7q55 -81 73 -101q52 -55 106 -56q85 2 136 125l-24 14q-45 -45 -79 -48q-7 -1 -13 -1q-49 0 -113 71q-8 8 -16 18q113 50 156 162q21 55 21 117q0 165 -117 251q-84 61 -197 61z
M340 126q-53 -1 -98 -63q-51 61 -51 235q0 223 95 269q29 14 68 14q112 0 146 -121q17 -61 17 -157q0 -190 -57 -247q-66 70 -120 70zM357 19q-59 1 -93 24q33 35 66 36q36 -1 75 -54q-21 -6 -48 -6z" />
    <glyph glyph-name="R" unicode="R" horiz-adv-x="614" 
d="M320 0v27h-80v247h49l149 -275l176 1q0 22 -16 25q-5 1 -10 1h-13l-154 260q105 29 129 114q6 21 6 43q0 74 -66 119q-56 38 -136 38h-334v-27h80v-546h-80v-27h300zM294 573q82 0 106 -81q7 -26 7 -54q0 -86 -52 -119q-23 -15 -53 -15h-62v269h54z" />
    <glyph glyph-name="S" unicode="S" horiz-adv-x="558" 
d="M517 167q0 83 -91 142q-13 7 -105 56q-84 44 -105 87q-10 21 -10 44q0 59 57 78q19 6 40 6q82 0 123 -62q25 -39 26 -93h39v181q-28 0 -33 -19q-1 -7 -1 -16q-83 39 -175 39q-121 0 -182 -63q-39 -41 -39 -97q0 -83 95 -142q12 -8 108 -57q86 -45 107 -87q9 -20 9 -41
q0 -72 -64 -96q-23 -8 -51 -8q-106 0 -149 97q-18 41 -22 94h-39v-212q27 0 32 16q2 10 2 27q77 -51 186 -51q127 0 195 65q47 46 47 112z" />
    <glyph glyph-name="T" unicode="T" horiz-adv-x="556" 
d="M443 0q-6 25 -27 27h-68v546h17q72 0 102 -64q6 -14 13 -33l31 -90h30l-4 214h-518l-4 -214h30l31 90q22 64 57 84q24 13 58 13h17v-546h-95v-27h330z" />
    <glyph glyph-name="U" unicode="U" horiz-adv-x="647" 
d="M10 573h80v-353q2 -229 253 -230q161 0 203 123q16 50 16 121v339h80v27h-197v-27h80v-345q-1 -207 -161 -208q-101 0 -125 110q-9 41 -9 98v345h80v27h-300v-27z" />
    <glyph glyph-name="V" unicode="V" horiz-adv-x="593" 
d="M334 -5l209 578h50v27h-170v-27h80l-151 -423l-171 423h79v27h-270v-27h51l198 -496q25 -64 39 -74q12 -8 35 -8h21z" />
    <glyph glyph-name="W" unicode="W" horiz-adv-x="893" 
d="M652 0l191 573h50v27h-165v-27h80l-141 -428l-155 429l80 -1v27h-232l76 -197l-98 -267l-157 437h80v27h-271v-27h50l192 -496q24 -61 42 -71q11 -6 28 -6h20l132 358l108 -281q24 -61 42 -71q11 -6 28 -6h20z" />
    <glyph glyph-name="X" unicode="X" horiz-adv-x="634" 
d="M193 0v27h-80l162 229l150 -229h-72v-27h281q-6 25 -27 27h-31l-208 313l146 205q18 26 41 28h12q25 6 27 27h-177v-27h80l-147 -206l-137 206h72v27h-275v-27h58l189 -289l-164 -229q-22 -28 -61 -28q-25 -6 -27 -27h188z" />
    <glyph glyph-name="Y" unicode="Y" horiz-adv-x="579" 
d="M451 0q-6 25 -27 27h-58v234l136 284q19 27 50 28q25 6 27 27h-176v-27h80l-135 -277l-146 277h76v27h-280v-27h47l181 -319v-227h-85v-27h310z" />
    <glyph glyph-name="Z" unicode="Z" horiz-adv-x="552" 
d="M525 0l2 207h-31l-29 -96q-29 -81 -98 -84h-198l350 551v22h-453l-7 -181h30l42 90q31 63 81 64l164 1l-358 -552v-22h505z" />
    <glyph glyph-name="bracketleft" unicode="[" horiz-adv-x="376" 
d="M351 -136h-281v781h281v-29h-154v-721l154 -2v-29z" />
    <glyph glyph-name="backslash" unicode="\" horiz-adv-x="456" 
d="M346 -155l-341 865h85l341 -865h-85z" />
    <glyph glyph-name="bracketright" unicode="]" horiz-adv-x="389" 
d="M38 -136h281v781h-281v-29h154v-721l-154 -2v-29z" />
    <glyph glyph-name="asciicircum" unicode="^" horiz-adv-x="513" 
d="M65 335l35 -23l157 254l156 -254l35 23l-179 289h-24z" />
    <glyph glyph-name="underscore" unicode="_" horiz-adv-x="510" 
d="M10 -75h490v50h-490v-50z" />
    <glyph glyph-name="grave" unicode="`" horiz-adv-x="500" 
d="M387 503q-43 37 -100 105q-21 25 -35 35q-16 11 -31 11q-33 0 -50 -34q-6 -13 -6 -26q1 -27 22 -42q15 -11 96 -37q54 -18 89 -34z" />
    <glyph glyph-name="a" unicode="a" horiz-adv-x="493" 
d="M388 -10q73 0 91 53q6 20 9 51l-26 1q-6 -69 -35 -70q-22 2 -22 50v209q0 125 -116 154q-30 7 -65 7q-136 0 -171 -59q-9 -15 -9 -32q0 -39 37 -49q9 -3 19 -3q43 0 58 42q2 6 6 20q11 40 28 50q11 5 25 5q47 0 57 -57q4 -21 4 -50v-65q-257 -5 -258 -136q0 -89 78 -114
q23 -7 51 -7q85 0 125 64q8 13 13 27q21 -86 101 -91zM201 33q-50 2 -51 89q0 66 54 86q29 9 74 11v-97q-19 -70 -61 -86q-9 -3 -16 -3z" />
    <glyph glyph-name="b" unicode="b" horiz-adv-x="556" 
d="M319 -10q98 0 157 74q52 65 52 165q0 130 -81 187q-42 29 -93 29q-103 -1 -155 -102v307h-184v-27h57v-544q0 -43 -33 -50q-11 -2 -24 -2v-27h153l8 70q53 -79 143 -80zM305 397q86 -2 86 -182q-1 -197 -93 -198q-65 0 -88 86q-11 40 -11 93q0 137 58 184q22 17 48 17z
" />
    <glyph glyph-name="c" unicode="c" horiz-adv-x="454" 
d="M30 216q0 -146 111 -201q52 -25 119 -25q104 0 160 63q19 22 29 48l-26 7q-28 -60 -95 -81q-26 -8 -52 -8q-69 0 -92 62q-17 46 -17 130q0 168 53 200q16 9 38 9q44 0 54 -41q2 -8 5 -27q6 -46 24 -59q14 -10 38 -10q51 0 63 38q2 8 2 16q0 44 -53 77q-52 31 -130 31
q-106 0 -172 -69q-59 -62 -59 -160z" />
    <glyph glyph-name="d" unicode="d" horiz-adv-x="571" 
d="M377 0h179q0 23 -12 26q-5 1 -12 1h-46v623h-218v-26h91v-222q-51 44 -122 44q-95 0 -155 -73q-52 -66 -52 -166q0 -124 81 -183q46 -34 102 -34q93 0 138 79q7 12 12 25zM167 219q0 146 63 184q18 10 38 10q72 0 89 -111q4 -30 4 -64q0 -150 -63 -191q-18 -11 -39 -11
q-70 0 -87 114q-5 31 -5 69z" />
    <glyph glyph-name="e" unicode="e" horiz-adv-x="476" 
d="M254 419q64 -2 65 -109q0 -47 -28 -58q-20 -7 -60 -5l-64 3q7 166 87 169zM441 103l-24 8q-28 -61 -88 -83q-24 -9 -49 -9q-80 0 -103 102q-9 42 -10 100l92 -3q161 -5 187 51q6 14 6 31q0 85 -87 124q-49 21 -111 21q-113 0 -176 -77q-48 -60 -48 -149q0 -145 109 -202
q52 -27 118 -27q117 0 168 82q10 15 16 31z" />
    <glyph glyph-name="f" unicode="f" horiz-adv-x="346" 
d="M299 26h-71v377h113v27h-113v5q0 151 23 180q12 14 31 14q25 0 41 -38q20 -46 26 -54q17 -19 40 -20q41 0 54 32q3 8 3 17q0 44 -52 70q-38 19 -92 19q-117 0 -169 -84q-32 -52 -32 -128v-13h-81v-27h81v-325q-2 -52 -76 -52v-26h298q0 23 -13 25q-5 1 -11 1z" />
    <glyph glyph-name="g" unicode="g" horiz-adv-x="506" 
d="M170 276q0 99 22 125q16 18 47 18q50 0 63 -46q7 -28 7 -94q0 -101 -24 -128q-17 -17 -47 -17q-49 0 -61 46q-7 27 -7 96zM243 445q-116 0 -170 -74q-30 -41 -30 -92q0 -72 70 -126q13 -10 27 -18h-1q-59 1 -82 -52q-8 -20 -8 -40q1 -48 37 -78q-26 -31 -26 -61
q0 -54 71 -81q48 -18 116 -18q164 0 212 77q15 24 15 50q0 101 -110 115q-13 2 -27 2l-207 4q-26 1 -31 23q-1 3 -1 6q0 23 25 26q4 1 8 1l107 -1q110 0 166 75q32 44 32 98q-1 73 -55 120q18 28 42 29q13 0 32 -17q15 -12 28 -12q30 0 37 28q1 5 1 10q0 36 -35 51
q-16 7 -35 7q-52 0 -81 -60q-5 -11 -9 -22q-48 30 -118 30zM247 -168q-122 0 -147 54q-5 11 -5 22q0 21 15 42q20 -8 42 -8l202 -2q58 0 68 -18q4 -7 4 -17q0 -47 -93 -65q-39 -8 -86 -8z" />
    <glyph glyph-name="h" unicode="h" horiz-adv-x="562" 
d="M231 26h-25v240q0 88 54 117q17 9 33 9q61 0 68 -75q1 -8 1 -18v-221q0 -40 -12 -47q-10 -5 -27 -5v-26h224q0 23 -13 25q-6 1 -12 1h-33v256q0 125 -89 155q-22 8 -48 8q-81 0 -129 -62q-10 -14 -17 -28v295h-186v-26h59v-546q0 -47 -45 -51q-7 -1 -14 -1v-26h235
q0 23 -13 25q-5 1 -11 1z" />
    <glyph glyph-name="i" unicode="i" horiz-adv-x="291" 
d="M247 26h-37v404h-185v-26h58v-326q0 -44 -35 -50q-10 -2 -23 -2v-26h246q0 23 -13 25q-5 1 -11 1zM219 561q0 44 -39 65q-17 10 -36 10q-43 0 -65 -39q-9 -17 -9 -36q0 -44 39 -64q17 -9 35 -9q44 0 65 37q10 17 10 36z" />
    <glyph glyph-name="j" unicode="j" horiz-adv-x="287" 
d="M233 561q0 44 -39 65q-17 10 -36 10q-43 0 -65 -39q-9 -17 -9 -36q0 -44 39 -64q17 -9 35 -9q44 0 65 37q10 17 10 36zM37 430v-26h63v-326q0 -47 4 -133q2 -49 2 -65q-1 -47 -27 -48q-20 0 -28 31q-9 41 -16 51q-14 18 -41 18q-38 0 -47 -32q-2 -7 -2 -14q0 -44 49 -67
q30 -14 72 -14q149 0 160 200q1 15 1 31v394h-190z" />
    <glyph glyph-name="k" unicode="k" horiz-adv-x="527" 
d="M270 26h-52v154l31 30l122 -211l166 1q0 22 -12 25q-5 1 -12 1h-15l-161 269l74 71q35 33 54 37q8 1 16 1q22 0 25 16q1 5 1 10h-169v-26h73l-193 -183v429h-203v-26h76v-546q-2 -52 -76 -52v-26h279q0 23 -13 25q-5 1 -11 1z" />
    <glyph glyph-name="l" unicode="l" horiz-adv-x="312" 
d="M270 26h-50v624h-205v-26h78v-544q0 -41 -33 -50q-17 -4 -45 -4v-26h279q0 23 -13 25q-5 1 -11 1z" />
    <glyph glyph-name="m" unicode="m" horiz-adv-x="808" 
d="M223 26h-18l1 258q6 79 52 103q13 7 26 7q37 0 53 -46q7 -22 7 -49v-221q0 -41 -19 -49q-9 -3 -25 -3v-26h212q0 23 -13 25q-6 1 -12 1h-17v256v7q7 83 54 103q10 4 20 4q43 0 59 -51q6 -21 6 -46v-221q0 -41 -19 -49q-9 -3 -25 -3v-26h228q0 23 -13 25q-6 1 -12 1h-33
v261q0 98 -65 139q-30 19 -65 19q-97 -1 -145 -93q-24 71 -85 89q-16 4 -32 4q-96 -1 -140 -88l-5 73h-178v-26h58v-326q0 -46 -43 -51q-7 -1 -15 -1v-26h227q0 23 -13 25q-5 1 -11 1z" />
    <glyph glyph-name="n" unicode="n" horiz-adv-x="562" 
d="M230 26h-25l1 256q7 79 58 104q14 7 29 7q57 0 67 -67q2 -13 2 -27v-221q0 -42 -22 -49q-10 -3 -24 -3v-26h231q0 23 -13 25q-6 1 -12 1h-33v256q0 124 -88 155q-24 8 -50 8q-73 0 -124 -58q-15 -17 -24 -35l-5 78h-178v-26h58v-326q0 -46 -43 -51q-7 -1 -15 -1v-26h234
q0 23 -13 25q-5 1 -11 1z" />
    <glyph glyph-name="o" unicode="o" horiz-adv-x="521" 
d="M167 217q0 140 34 179q21 23 59 23q64 0 82 -65q12 -42 12 -133q0 -146 -38 -184q-22 -21 -57 -21q-62 0 -80 64q-12 43 -12 137zM265 445q-123 0 -189 -84q-46 -60 -46 -140q0 -113 78 -179q62 -52 148 -52q118 0 185 85q50 64 50 148q0 112 -79 175q-61 47 -147 47z
" />
    <glyph glyph-name="p" unicode="p" horiz-adv-x="560" 
d="M204 -164v200q39 -44 119 -46q99 0 159 76q50 66 50 164q0 127 -76 184q-41 31 -94 31q-80 0 -130 -59q-20 -24 -30 -52l-5 96h-177v-26h57v-516q0 -43 -33 -50q-11 -2 -24 -2v-26h260q0 23 -13 25q-6 1 -12 1h-51zM309 397q86 -2 86 -182q-1 -197 -93 -198q-54 0 -81 66
q-18 46 -18 113q0 125 54 178q24 23 52 23z" />
    <glyph glyph-name="q" unicode="q" horiz-adv-x="568" 
d="M28 208q0 -126 82 -186q45 -32 100 -32q81 0 129 65q10 15 18 31v-198q0 -43 -33 -50q-11 -2 -24 -2v-26h248q0 22 -12 25q-5 1 -12 1h-40v568h64v26h-181l-3 -30q-50 45 -126 45q-98 0 -158 -73q-52 -65 -52 -164zM359 238q0 -150 -63 -191q-18 -11 -39 -11
q-70 0 -87 114q-5 31 -5 69q0 146 63 184q18 10 38 10q72 0 89 -111q4 -30 4 -64z" />
    <glyph glyph-name="r" unicode="r" horiz-adv-x="422" 
d="M279 26h-74v216q7 105 51 128q7 3 13 3q11 0 24 -23q18 -32 39 -40q10 -3 22 -3q40 0 57 38q6 13 6 27q0 50 -49 63q-12 3 -25 3q-62 0 -109 -49q-21 -24 -32 -52l-7 93h-175v-26h58v-326q0 -44 -35 -50q-10 -2 -23 -2v-26h283q0 23 -13 25q-5 1 -11 1z" />
    <glyph glyph-name="s" unicode="s" horiz-adv-x="419" 
d="M196 18q67 0 77 48q1 7 1 13q0 51 -64 85q-14 8 -45 21q-75 33 -99 61q-26 30 -26 71q0 85 93 115q39 13 87 13q78 0 122 -28q0 30 18 33q4 1 8 1v-125h-32q-4 91 -99 92q-64 0 -79 -42q-3 -10 -3 -20q0 -43 60 -73q12 -7 40 -19q78 -35 104 -64q30 -34 30 -81
q0 -87 -90 -117q-37 -12 -83 -12q-88 0 -148 31q0 -26 -13 -30q-6 -1 -14 -1v152h34q2 -123 121 -124z" />
    <glyph glyph-name="t" unicode="t" horiz-adv-x="361" 
d="M15 399h69v-250q0 -145 120 -159q12 -1 24 -1q77 0 106 50q14 25 22 66l-27 4q-20 -81 -59 -89q-6 -1 -12 -1q-37 0 -45 52q-2 12 -2 25v303h132v26h-132v116l-127 -21v-95h-69v-26z" />
    <glyph glyph-name="u" unicode="u" horiz-adv-x="562" 
d="M518 26h-34v404h-176v-26h49l-1 -252q-7 -78 -57 -103q-15 -7 -30 -7q-57 0 -67 67q-2 13 -2 27v294h-185v-26h58v-251q2 -162 143 -163q90 0 137 80l6 12l5 -82h178q0 22 -12 25q-5 1 -12 1z" />
    <glyph glyph-name="v" unicode="v" horiz-adv-x="475" 
d="M233 405v25h-231v-25h39l126 -337q22 -57 35 -66q11 -7 32 -7h36l145 381q10 25 26 28q6 1 12 1q16 0 18 2q2 6 2 23h-162v-25h82l-118 -302l-110 302h68z" />
    <glyph glyph-name="w" unicode="w" horiz-adv-x="710" 
d="M236 404v26h-231v-26h42l116 -336q21 -60 42 -69q10 -4 25 -4h33l93 289l74 -216q20 -57 33 -66q11 -7 31 -7h33l125 380q18 27 38 29q18 0 19 16q1 5 1 10h-142v-26h62l-93 -292l-98 292h60v26h-194l34 -100l-66 -217l-97 291h60z" />
    <glyph glyph-name="x" unicode="x" horiz-adv-x="482" 
d="M5 0h151v26h-70l120 150l100 -150h-55v-26h231q0 23 -16 25q-4 1 -9 1h-20l-146 220l99 129q20 27 51 30q15 2 18 12q1 6 1 13h-148v-26h65l-103 -133l-88 133h55v26h-232v-26h46l136 -204l-118 -145q-21 -25 -51 -30q-14 -1 -16 -12q-1 -6 -1 -13z" />
    <glyph glyph-name="y" unicode="y" horiz-adv-x="490" 
d="M130 -160q-18 0 -29 27q-14 35 -25 44q-13 9 -30 9q-36 0 -46 -31q-2 -8 -2 -15q0 -33 40 -54q28 -15 65 -15q84 0 139 97q21 35 40 85l150 389q17 27 33 29q22 0 24 15q1 5 1 10h-155v-25h75l-109 -279l-121 279h61v25h-235v-25h42l195 -426q-48 -119 -92 -135
q-11 -4 -21 -4z" />
    <glyph glyph-name="z" unicode="z" horiz-adv-x="419" 
d="M146 27l256 382v21h-360l-7 -149h25l34 74q24 47 66 48h119l-267 -381v-22h385l2 170h-26l-21 -79q-19 -63 -81 -64l3 -1z" />
    <glyph glyph-name="braceleft" unicode="{" horiz-adv-x="400" 
d="M271 148v-151q0 -65 4 -76q8 -23 54 -26q20 -2 51 -2v-29q-133 0 -173 16q-52 21 -59 90q-2 16 -2 34v149q0 55 -26 73q-17 11 -50 18v21q56 12 69 41q7 18 7 50v149q0 90 47 117q38 22 158 23h29v-29q-82 0 -98 -16q-12 -12 -11 -62v-26v-151q0 -62 -51 -91
q-8 -5 -25 -13v-5q46 -22 60 -44q16 -25 16 -60z" />
    <glyph glyph-name="bar" unicode="|" horiz-adv-x="260" 
d="M90 -136v786h80v-786h-80z" />
    <glyph glyph-name="braceright" unicode="}" horiz-adv-x="400" 
d="M129 359v151q0 65 -4 76q-8 23 -54 26q-20 2 -51 2v29q133 0 173 -16q52 -21 59 -90q2 -16 2 -34v-149q0 -55 26 -73q17 -11 50 -18v-21q-56 -12 -69 -41q-7 -18 -7 -50v-149q0 -90 -47 -117q-38 -22 -158 -23h-29v29q82 0 98 16q12 12 11 62v26v151q0 62 51 91
q8 5 25 13v5q-46 22 -60 44q-16 25 -16 60z" />
    <glyph glyph-name="asciitilde" unicode="~" horiz-adv-x="482" 
d="M159 323q45 0 111 -39q55 -32 80 -32q53 0 74 71q1 1 1 2l27 -5q-9 -91 -66 -128q-27 -17 -58 -17q-42 0 -109 38q-57 32 -84 32q-59 -2 -78 -73l-27 6q9 89 67 127q28 18 62 18z" />
    <glyph glyph-name="uni00A0" unicode="&#xa0;" horiz-adv-x="205" 
 />
    <glyph glyph-name="exclamdown" unicode="&#xa1;" horiz-adv-x="289" 
d="M105 248q0 -114 -36 -242q-21 -72 -21 -105q2 -70 73 -71q71 6 75 72q0 33 -20 102q-37 130 -37 244h-34zM50 375q0 -42 38 -63q16 -8 33 -8q42 0 62 38q8 16 8 33q0 43 -38 62q-15 8 -32 8q-43 0 -63 -36q-8 -16 -8 -34z" />
    <glyph glyph-name="cent" unicode="&#xa2;" horiz-adv-x="467" 
d="M28 271q0 -144 110 -200q44 -21 99 -25v-66h29v65q108 3 159 70q14 19 22 41l-25 7q-28 -56 -90 -80q-29 -10 -58 -10h-8v401q40 -4 49 -46q2 -7 4 -23q6 -46 23 -58q14 -9 35 -9q51 0 63 38q2 8 2 16q0 44 -52 76q-50 30 -124 32v70h-29v-71q-109 -9 -167 -87
q-42 -58 -42 -141zM160 266q0 161 49 196q13 8 28 11v-396q-61 17 -73 116q-4 32 -4 73z" />
    <glyph glyph-name="sterling" unicode="&#xa3;" horiz-adv-x="568" 
d="M548 179h-21q-28 -71 -143 -72q-57 0 -153 13h-1q12 44 12 94q0 40 -3 81h153v30h-155q-5 57 -5 99q0 123 45 149q17 9 38 9q51 0 63 -46q2 -9 5 -30q7 -50 26 -64q16 -12 42 -12q50 0 64 38q4 11 4 21q0 67 -85 100q-55 21 -129 21q-114 0 -179 -67q-46 -49 -46 -116
q0 -45 17 -102h-55v-30h65q8 -23 25 -66q28 -70 34 -100q-26 3 -46 3q-57 0 -75 -43q-5 -13 -5 -26q0 -43 39 -58q14 -5 30 -5q61 1 99 66l27 -21q68 -53 112 -65q25 -7 49 -7q128 0 148 148q4 27 4 58zM108 28q-32 6 -36 35q0 30 30 39q8 2 16 2q25 0 52 -13q0 -39 -35 -57
q-13 -6 -27 -6z" />
    <glyph glyph-name="currency" unicode="&#xa4;" horiz-adv-x="606" 
d="M297 111q-80 0 -124 61q-33 45 -33 109q0 103 77 147q36 21 79 21q78 0 123 -60q33 -45 33 -109q0 -105 -77 -149q-36 -20 -78 -20zM295 75q77 1 132 48l86 -86l25 25l-86 87q43 55 43 133q-1 74 -39 126l85 85l-26 26l-83 -84q-57 50 -134 50q-78 -1 -133 -48l-85 83
l-25 -25l85 -85q-43 -53 -43 -131q1 -81 45 -134l-85 -84l26 -26l85 85q55 -45 127 -45z" />
    <glyph glyph-name="yen" unicode="&#xa5;" horiz-adv-x="574" 
d="M438 0q0 24 -13 26q-5 1 -11 1h-54l1 193h126v30h-126v48h126v30h-116l118 217q11 20 26 24q13 4 35 4q17 8 19 27h-179v-27h80l-127 -233l-133 233h69v27h-269v-27h44l151 -245h-111v-30h127v-48h-127v-30h127l-1 -193h-77v-27h295z" />
    <glyph glyph-name="brokenbar" unicode="&#xa6;" horiz-adv-x="260" 
d="M170 315v335h-80v-335h80zM170 -136v335h-80v-335h80z" />
    <glyph glyph-name="section" unicode="&#xa7;" horiz-adv-x="473" 
d="M155 314q1 32 20 55q86 -39 89 -40q53 -31 54 -69q-1 -36 -24 -58q-83 40 -99 50q-39 29 -40 62zM438 301q0 72 -87 118q-20 10 -62 28q-77 33 -96 56q-14 17 -14 36q0 39 39 52q11 4 23 4q42 0 54 -38q2 -6 5 -18q8 -38 25 -47q12 -6 27 -6q38 0 45 35q1 6 1 12
q0 46 -69 74q-42 16 -88 16q-115 0 -162 -58q-23 -29 -23 -66q1 -64 72 -106q-77 -26 -91 -92q-2 -12 -2 -24q0 -74 91 -126q19 -10 58 -29q73 -35 90 -57q11 -15 11 -30q0 -41 -41 -52q-10 -3 -21 -3q-39 0 -50 37q-2 6 -5 20q-8 40 -26 51q-13 7 -32 7q-42 0 -49 -35
q-1 -6 -1 -11q0 -59 80 -85q39 -12 86 -12q98 0 152 49q34 32 34 76q-1 61 -76 103q80 25 98 90q4 16 4 31z" />
    <glyph glyph-name="dieresis" unicode="&#xa8;" horiz-adv-x="500" 
d="M224 569q0 41 -36 60q-15 8 -31 8q-42 0 -61 -37q-7 -15 -7 -31q0 -41 37 -59q15 -7 31 -7q39 0 59 34q8 16 8 32zM411 569q0 41 -37 60q-16 8 -32 8q-39 0 -58 -36q-8 -15 -8 -32q0 -40 36 -59q14 -7 30 -7q42 0 61 35q8 15 8 31z" />
    <glyph glyph-name="copyright" unicode="&#xa9;" horiz-adv-x="631" 
d="M601 275q0 126 -87 208q-80 76 -198 76q-135 0 -218 -95q-68 -79 -68 -189q0 -127 88 -209q81 -76 198 -76q133 0 215 94q70 80 70 191zM62 275q0 121 83 195q70 61 171 61q124 0 197 -91q56 -70 56 -165q0 -118 -81 -193q-71 -64 -172 -64q-124 0 -197 90
q-57 71 -57 167zM322 455q-96 0 -147 -63q-38 -48 -38 -118q0 -107 86 -154q43 -23 94 -23q85 0 131 63q8 10 13 21l-23 10q-33 -63 -101 -64q-68 0 -78 119q-2 18 -2 37q0 123 47 144q8 3 16 3q27 0 32 -31q1 -5 2 -17q5 -43 23 -56q15 -9 38 -9q47 7 51 45q0 50 -63 77
q-37 16 -81 16z" />
    <glyph glyph-name="ordfeminine" unicode="&#xaa;" horiz-adv-x="306" 
d="M286 242v37h-272v-37h272zM296 389h-19q-3 -36 -21 -37q-12 2 -12 30v120q0 88 -91 97q-10 1 -20 1q-94 0 -110 -42q-2 -7 -2 -13q0 -26 26 -32q6 -1 10 -1q34 0 43 30q7 28 10 31q7 8 19 8q31 0 34 -46q1 -8 1 -16v-37q-150 -11 -157 -85q0 -60 58 -71q11 -2 22 -2
q60 1 82 49q10 -40 52 -49q7 -1 14 -1q48 0 59 45q2 11 2 21zM121 360q-27 4 -28 44q0 44 40 53q14 3 31 4v-55q-14 -44 -43 -46z" />
    <glyph glyph-name="guillemotleft" unicode="&#xab;" horiz-adv-x="421" 
d="M216 378l-21 17q-23 -24 -123 -115q-30 -27 -41 -40q-16 -17 -16 -36q1 -19 16 -36q8 -9 101 -94q39 -36 63 -60l20 18q-14 26 -73 160q-3 7 -6 13q62 138 80 173zM406 378l-21 17q-24 -26 -125 -117q-29 -26 -40 -38q-15 -18 -15 -36t15 -36q6 -7 102 -94q38 -35 63 -60
l20 18q-11 21 -70 152q-6 12 -10 21q6 13 21 46q38 85 60 127z" />
    <glyph glyph-name="logicalnot" unicode="&#xac;" horiz-adv-x="480" 
d="M395 108h55v232h-420v-42h365v-190z" />
    <glyph glyph-name="uni00AD" unicode="&#xad;" horiz-adv-x="350" 
d="M25 195h300v45h-300v-45z" />
    <glyph glyph-name="registered" unicode="&#xae;" horiz-adv-x="395" 
d="M370 473q0 86 -67 137q-48 36 -111 36q-91 0 -142 -68q-35 -46 -35 -105q0 -86 67 -137q48 -36 110 -36q90 0 142 67q36 47 36 106zM43 473q0 80 61 123q38 27 88 27q81 0 124 -63q26 -38 26 -87q0 -79 -61 -123q-39 -27 -89 -27q-81 0 -123 63q-26 39 -26 87zM304 375
q-4 14 -13 15h-5l-49 79q49 12 50 53q0 36 -44 49q-16 4 -36 4h-114v-16h20v-169h-20v-15h102v15h-23v74h13l50 -90zM172 559h15q27 0 33 -29q1 -6 1 -10q0 -33 -25 -39q-4 -1 -7 -1h-17v79z" />
    <glyph glyph-name="macron" unicode="&#xaf;" horiz-adv-x="500" 
d="M90 540h320v55h-320v-55z" />
    <glyph glyph-name="degree" unicode="&#xb0;" horiz-adv-x="278" 
d="M72 542q0 42 35 63q16 8 32 8q38 0 58 -36q9 -16 9 -35q0 -41 -36 -60q-15 -7 -31 -7q-41 0 -60 36q-7 15 -7 31zM238 542q0 54 -45 84q-25 17 -54 17q-53 0 -83 -46q-16 -26 -16 -55q0 -54 46 -82q25 -14 53 -14q55 0 84 45q15 24 15 51z" />
    <glyph glyph-name="plusminus" unicode="&#xb1;" horiz-adv-x="448" 
d="M418 253v42h-166v140h-55v-140h-167v-42h167v-140h55v140h166zM418 28v42h-388v-42h388z" />
    <glyph glyph-name="twosuperior" unicode="&#xb2;" horiz-adv-x="370" 
d="M87 394q16 25 86 49q79 28 104 48q34 29 34 72q0 64 -79 87q-30 9 -65 9q-72 0 -112 -37q-23 -22 -23 -50q4 -45 51 -47q33 0 46 17.5t11 39t2.5 39t22.5 17.5q30 0 35 -40q1 -13 1 -35q0 -63 -55 -101l-30 -18q-54 -32 -70 -58q-16 -27 -16 -62v-5h284l1 124h-16
l-12 -31q-16 -17 -51 -18h-149z" />
    <glyph glyph-name="threesuperior" unicode="&#xb3;" horiz-adv-x="377" 
d="M334 630v18h-279l-1 -129h15l11 27q9 24 31 27h15h103l-98 -102l17 -12q21 7 33 7q47 -4 49 -74q-6 -93 -59 -97q-30 0 -34 30q-1 5 -1 17q-2 39 -19 49q-13 7 -32 7q-42 -6 -46 -42q0 -51 69 -70q28 -7 60 -7q87 0 137 45q32 30 33 70q0 54 -52 79q-29 14 -67 14
q-14 0 -45 -4z" />
    <glyph glyph-name="acute" unicode="&#xb4;" horiz-adv-x="500" 
d="M368 552q21 16 22 42q0 34 -29 52q-13 8 -27 8q-16 -1 -31 -11q-13 -10 -54 -58q-39 -45 -81 -82l15 -22q29 14 131 47q39 14 54 24z" />
    <glyph glyph-name="uni00B5" unicode="&#xb5;" horiz-adv-x="562" 
d="M195 -102q0 27 -38 128q31 -34 75 -35q68 0 116 76q6 9 11 18l5 -85h178q0 22 -12 25q-5 1 -12 1h-34v404h-176v-26h49l-1 -231q1 -86 -50 -119q-18 -12 -37 -12q-57 0 -67 67q-2 13 -2 27v294h-185v-26h58v-251q0 -53 -15 -206q-3 -34 -3 -52q0 -61 52 -71q9 -1 17 -1
q58 0 69 53q2 11 2 22z" />
    <glyph glyph-name="paragraph" unicode="&#xb6;" horiz-adv-x="554" 
d="M236 -117q113 0 182 61q58 52 58 131v499h68v26h-271q-146 0 -210 -94q-34 -50 -34 -113q0 -101 74 -159q58 -44 143 -44h28v-129q0 -121 -15 -141q-8 -10 -21 -10q-29 0 -37 36q-2 7 -4 23q-9 52 -28 67q-18 13 -45 13q-46 0 -60 -39q-4 -11 -4 -22q0 -59 77 -89
q45 -16 99 -16zM356 65q0 -103 -22 -132q-18 -22 -55 -24q22 22 24 121v31v513h53v-509z" />
    <glyph glyph-name="periodcentered" unicode="&#xb7;" horiz-adv-x="249" 
d="M199 227q0 44 -39 65q-17 10 -36 10q-43 0 -65 -39q-9 -17 -9 -36q0 -44 39 -64q16 -9 35 -9q44 0 65 37q10 17 10 36z" />
    <glyph glyph-name="cedilla" unicode="&#xb8;" horiz-adv-x="500" 
d="M155 -85l14 -10q25 18 48 18q35 0 39 -45q1 -6 1 -12q0 -57 -38 -64q-4 -1 -8 -1q-35 1 -65 38l-16 -14q40 -52 112 -53q85 0 116 54q11 18 11 39q0 50 -51 73q-28 13 -65 13q-30 0 -56 -11l30 68h-26z" />
    <glyph glyph-name="onesuperior" unicode="&#xb9;" horiz-adv-x="328" 
d="M168 649l-148 -100l15 -24l91 61v-238l-86 -7v-22h273q0 18 -20 21q-4 1 -6 1l-51 7v301h-68z" />
    <glyph glyph-name="ordmasculine" unicode="&#xba;" horiz-adv-x="316" 
d="M111 462q0 97 30 110q7 3 15 3q35 0 43 -49q3 -23 3 -62q0 -103 -35 -114q-6 -1 -11 -1q-35 0 -42 52q-3 23 -3 61zM159 600q-87 0 -130 -61q-22 -33 -22 -75q0 -74 59 -114q39 -26 88 -26q85 0 128 63q24 35 24 78q0 73 -59 111q-38 24 -88 24zM21 242h272v37h-272v-37z
" />
    <glyph glyph-name="guillemotright" unicode="&#xbb;" horiz-adv-x="421" 
d="M205 378l21 17q23 -24 123 -115q30 -27 41 -40q16 -17 16 -36q-1 -19 -16 -36q-8 -9 -101 -94q-39 -36 -63 -60l-20 18q14 26 73 160q3 7 6 13q-62 138 -80 173zM15 378l21 17q24 -26 125 -117q29 -26 40 -38q15 -18 15 -36t-15 -36q-6 -7 -102 -94q-38 -35 -63 -60
l-20 18q11 21 70 152q6 12 10 21q-6 13 -21 46q-38 85 -60 127z" />
    <glyph glyph-name="onequarter" unicode="&#xbc;" horiz-adv-x="764" 
d="M199 -33l429 643l-37 23l-430 -643zM188 619l-148 -100l15 -24l91 61v-238l-86 -7v-22h273q0 18 -20 21q-4 1 -6 1l-51 7v301h-68zM724 -45q0 20 -11 22q-4 1 -9 1h-52v68h72v25h-72v131h-19l-9 -25q-12 -33 -56 -36h-16h-12v-69l-140 1q135 88 164 111q92 72 93 122
q0 38 -42 46q-8 1 -15 1q-36 0 -55 -35q-5 -9 -15 -33q-37 -87 -90 -142q-35 -37 -80 -70l5 -25l175 -1v-69h-79v-23h263z" />
    <glyph glyph-name="onehalf" unicode="&#xbd;" horiz-adv-x="786" 
d="M197 -33l429 643l-37 23l-430 -643zM188 619l-148 -100l15 -24l91 61v-238l-86 -7v-22h273q0 18 -20 21q-4 1 -6 1l-51 7v301h-68zM508 75q16 25 86 49q79 28 104 48q34 29 34 72q0 64 -79 87q-30 9 -65 9q-72 0 -112 -37q-23 -22 -23 -50q4 -45 51 -47q33 0 46 17.5
t11 39t2.5 39t22.5 17.5q30 0 35 -40q1 -13 1 -35q0 -63 -55 -101q-10 -6 -31 -19q-53 -31 -69 -57q-16 -27 -16 -62v-5h284l1 124h-16l-12 -31q-16 -17 -51 -18h-149z" />
    <glyph glyph-name="threequarters" unicode="&#xbe;" horiz-adv-x="769" 
d="M335 600v18h-279l-1 -129h15l11 27q9 24 31 27h15h103l-98 -102l17 -12q21 7 33 7q47 -4 49 -74q-6 -93 -59 -97q-30 0 -34 30q-1 5 -1 17q-2 39 -19 49q-13 7 -32 7q-42 -6 -46 -42q0 -51 69 -70q28 -7 60 -7q87 0 137 45q32 30 33 70q0 54 -52 79q-29 14 -67 14
q-14 0 -45 -4zM204 -33l429 643l-37 23l-430 -643zM729 -45q0 20 -11 22q-4 1 -9 1h-52v68h72v25h-72v131h-19l-9 -25q-12 -33 -56 -36h-16h-12v-69l-140 1q135 88 164 111q92 72 93 122q0 38 -42 46q-8 1 -15 1q-36 0 -55 -35q-5 -9 -15 -33q-37 -87 -90 -142
q-35 -37 -80 -70l5 -25l175 -1v-69h-79v-23h263z" />
    <glyph glyph-name="questiondown" unicode="&#xbf;" horiz-adv-x="492" 
d="M227 248q0 -71 -62 -122q-11 -9 -35 -26q-57 -41 -75 -70q-20 -32 -20 -73q0 -83 99 -114q43 -13 94 -13q95 0 145 43q28 26 29 60q0 42 -40 52q-10 2 -20 2q-45 0 -54 -41q-2 -8 -4 -25q-5 -44 -21 -56q-14 -9 -35 -9q-48 0 -62 50q-4 16 -4 34q0 87 39 145q34 49 36 53
q24 45 24 110h-34zM169 375q0 -42 38 -63q16 -8 33 -8q42 0 62 38q8 16 8 33q0 43 -38 62q-15 8 -32 8q-43 0 -63 -36q-8 -16 -8 -34z" />
    <glyph glyph-name="Agrave" unicode="&#xc0;" horiz-adv-x="647" 
d="M647 0q0 24 -13 26q-5 1 -11 1h-30l-236 573h-74l-219 -573h-64v-27h184q0 24 -13 26q-5 1 -11 1h-56l72 192h199l75 -192h-71v-27h268zM363 249h-175l86 230zM429 633q-43 37 -100 105q-21 25 -35 35q-16 11 -31 11q-33 0 -50 -34q-6 -13 -6 -26q1 -27 22 -42
q15 -11 96 -37q54 -18 89 -34z" />
    <glyph glyph-name="Aacute" unicode="&#xc1;" horiz-adv-x="647" 
d="M647 0q0 24 -13 26q-5 1 -11 1h-30l-236 573h-74l-219 -573h-64v-27h184q0 24 -13 26q-5 1 -11 1h-56l72 192h199l75 -192h-71v-27h268zM363 249h-175l86 230zM420 682q21 16 22 42q0 34 -29 52q-13 8 -27 8q-16 -1 -31 -11q-13 -10 -54 -58q-39 -45 -81 -82l15 -22
q29 14 131 47q39 14 54 24z" />
    <glyph glyph-name="Acircumflex" unicode="&#xc2;" horiz-adv-x="647" 
d="M647 0q0 24 -13 26q-5 1 -11 1h-30l-236 573h-74l-219 -573h-64v-27h184q0 24 -13 26q-5 1 -11 1h-56l72 192h199l75 -192h-71v-27h268zM363 249h-175l86 230zM446 630l14 19q-27 27 -80 93q-28 35 -52 38q-4 1 -8 1q-28 0 -55 -33q-6 -7 -18 -22q-36 -47 -65 -77l14 -19
q52 29 126 58q66 -26 124 -58z" />
    <glyph glyph-name="Atilde" unicode="&#xc3;" horiz-adv-x="647" 
d="M647 0q0 24 -13 26q-5 1 -11 1h-30l-236 573h-74l-219 -573h-64v-27h184q0 24 -13 26q-5 1 -11 1h-56l72 192h199l75 -192h-71v-27h268zM363 249h-175l86 230zM260 782q30 0 83 -34q44 -28 66 -28q41 2 55 55l21 -3q-7 -94 -61 -122q-16 -8 -34 -8q-30 0 -84 35
q-42 27 -62 27q-43 0 -57 -50q0 -3 -1 -5l-20 3q7 95 61 122q16 8 33 8z" />
    <glyph glyph-name="Adieresis" unicode="&#xc4;" horiz-adv-x="647" 
d="M647 0q0 24 -13 26q-5 1 -11 1h-30l-236 573h-74l-219 -573h-64v-27h184q0 24 -13 26q-5 1 -11 1h-56l72 192h199l75 -192h-71v-27h268zM363 249h-175l86 230zM294 697q0 41 -36 60q-15 8 -31 8q-42 0 -61 -37q-7 -15 -7 -31q0 -41 37 -59q15 -7 31 -7q39 0 59 34
q8 16 8 32zM481 697q0 41 -37 60q-16 8 -32 8q-39 0 -58 -36q-8 -15 -8 -32q0 -40 36 -59q14 -7 30 -7q42 0 61 35q8 15 8 31z" />
    <glyph glyph-name="Aring" unicode="&#xc5;" horiz-adv-x="647" 
d="M647 0q0 24 -13 26q-5 1 -11 1h-30l-234 569q67 13 80 70q3 11 3 22q0 60 -59 82q-25 9 -56 9q-90 0 -114 -59q-6 -16 -6 -33q0 -64 61 -86l14 -4l-218 -570h-64v-27h184q0 24 -13 26q-5 1 -11 1h-56l72 192h199l75 -192h-71v-27h268zM363 249h-175l86 230zM284 685
q1 69 40 70q41 -1 41 -68q-1 -70 -41 -71q-40 1 -40 69z" />
    <glyph glyph-name="AE" unicode="&#xc6;" horiz-adv-x="903" 
d="M249 263l188 308v-308h-188zM186 0q0 23 -13 25q-5 1 -11 1h-57l126 207h206v-206h-81v-27h498l4 197h-29l-23 -74q-27 -86 -99 -95q-10 -1 -20 -1h-110v267h189v30h-189v249h110q90 0 119 -94q1 -1 1 -2l22 -74h29l-4 197h-442l-352 -574h-60v-26h186z" />
    <glyph glyph-name="Ccedilla" unicode="&#xc7;" horiz-adv-x="600" 
d="M545 39q-1 -38 17 -42q7 -2 18 -2v197h-33q-37 -139 -131 -165q-26 -7 -58 -7q-127 0 -159 144q-12 57 -12 141q1 274 179 275q94 0 139 -77q21 -37 37 -95h35l-3 197q-26 0 -31 -16q-2 -10 -1 -26q-87 47 -192 47q-168 0 -257 -117q-63 -84 -63 -193q0 -129 83 -217
q72 -75 183 -90l-39 -78l14 -10q25 18 48 18q35 0 39 -45q1 -6 1 -12q0 -57 -38 -64q-4 -1 -8 -1q-35 1 -65 38l-16 -14q40 -52 112 -53q85 0 116 54q11 18 11 39q0 50 -51 73q-28 13 -65 13q-30 0 -56 -11l22 51q10 -1 26 -1q103 0 198 49z" />
    <glyph glyph-name="Egrave" unicode="&#xc8;" horiz-adv-x="569" 
d="M524 408l-4 192h-500v-27h80v-546h-80v-27h500l4 192h-29l-23 -69q-26 -77 -83 -92q-17 -4 -36 -4h-113v267h192v30h-192v249h113q82 0 113 -78q4 -9 7 -18l22 -69h29zM406 633q-43 37 -100 105q-21 25 -35 35q-16 11 -31 11q-33 0 -50 -34q-6 -13 -6 -26q1 -27 22 -42
q15 -11 96 -37q54 -18 89 -34z" />
    <glyph glyph-name="Eacute" unicode="&#xc9;" horiz-adv-x="569" 
d="M524 408l-4 192h-500v-27h80v-546h-80v-27h500l4 192h-29l-23 -69q-26 -77 -83 -92q-17 -4 -36 -4h-113v267h192v30h-192v249h113q82 0 113 -78q4 -9 7 -18l22 -69h29zM399 692q21 16 22 42q0 34 -29 52q-13 8 -27 8q-16 -1 -31 -11q-13 -10 -54 -58q-39 -45 -81 -82
l15 -22q29 14 131 47q39 14 54 24z" />
    <glyph glyph-name="Ecircumflex" unicode="&#xca;" horiz-adv-x="569" 
d="M524 408l-4 192h-500v-27h80v-546h-80v-27h500l4 192h-29l-23 -69q-26 -77 -83 -92q-17 -4 -36 -4h-113v267h192v30h-192v249h113q82 0 113 -78q4 -9 7 -18l22 -69h29zM423 630l14 19q-27 27 -80 93q-28 35 -52 38q-4 1 -8 1q-28 0 -55 -33q-6 -7 -18 -22
q-36 -47 -65 -77l14 -19q52 29 126 58q66 -26 124 -58z" />
    <glyph glyph-name="Edieresis" unicode="&#xcb;" horiz-adv-x="569" 
d="M524 408l-4 192h-500v-27h80v-546h-80v-27h500l4 192h-29l-23 -69q-26 -77 -83 -92q-17 -4 -36 -4h-113v267h192v30h-192v249h113q82 0 113 -78q4 -9 7 -18l22 -69h29zM271 697q0 41 -36 60q-15 8 -31 8q-42 0 -61 -37q-7 -15 -7 -31q0 -41 37 -59q15 -7 31 -7
q39 0 59 34q8 16 8 32zM458 697q0 41 -37 60q-16 8 -32 8q-39 0 -58 -36q-8 -15 -8 -32q0 -40 36 -59q14 -7 30 -7q42 0 61 35q8 15 8 31z" />
    <glyph glyph-name="Igrave" unicode="&#xcc;" horiz-adv-x="340" 
d="M320 0q-6 25 -27 27h-53v546h80v27h-300v-27h80v-546h-80v-27h300zM274 633q-43 37 -100 105q-21 25 -35 35q-16 11 -31 11q-33 0 -50 -34q-6 -13 -6 -26q1 -27 22 -42q15 -11 96 -37q54 -18 89 -34z" />
    <glyph glyph-name="Iacute" unicode="&#xcd;" horiz-adv-x="340" 
d="M320 0q-6 25 -27 27h-53v546h80v27h-300v-27h80v-546h-80v-27h300zM265 682q21 16 22 42q0 34 -29 52q-13 8 -27 8q-16 -1 -31 -11q-13 -10 -54 -58q-39 -45 -81 -82l15 -22q29 14 131 47q39 14 54 24z" />
    <glyph glyph-name="Icircumflex" unicode="&#xce;" horiz-adv-x="340" 
d="M320 0q-6 25 -27 27h-53v546h80v27h-300v-27h80v-546h-80v-27h300zM291 630l14 19q-27 27 -80 93q-28 35 -52 38q-4 1 -8 1q-28 0 -55 -33q-6 -7 -18 -22q-36 -47 -65 -77l14 -19q52 29 126 58q66 -26 124 -58z" />
    <glyph glyph-name="Idieresis" unicode="&#xcf;" horiz-adv-x="340" 
d="M320 0q-6 25 -27 27h-53v546h80v27h-300v-27h80v-546h-80v-27h300zM139 697q0 41 -36 60q-15 8 -31 8q-42 0 -61 -37q-7 -15 -7 -31q0 -41 37 -59q15 -7 31 -7q39 0 59 34q8 16 8 32zM326 697q0 41 -37 60q-16 8 -32 8q-39 0 -58 -36q-8 -15 -8 -32q0 -40 36 -59
q14 -7 30 -7q42 0 61 35q8 15 8 31z" />
    <glyph glyph-name="Eth" unicode="&#xd0;" horiz-adv-x="670" 
d="M20 600v-27h80v-240h-75v-45h75v-261h-80v-27h298q139 0 229 84q88 83 88 214q0 167 -126 249q-83 53 -194 53h-295zM318 573q105 0 140 -103q20 -63 20 -167q0 -208 -83 -257q-32 -19 -79 -19h-76v261h85v45h-85v240h78z" />
    <glyph glyph-name="Ntilde" unicode="&#xd1;" horiz-adv-x="664" 
d="M457 573h80v-387l-353 414h-169v-27h80v-546h-80v-27h207q-6 25 -27 27h-58v417l385 -449l57 10v568h80v27h-202v-27zM274 782q30 0 83 -34q44 -28 66 -28q41 2 55 55l21 -3q-7 -94 -61 -122q-16 -8 -34 -8q-30 0 -84 35q-42 27 -62 27q-43 0 -57 -50q0 -3 -1 -5l-20 3
q7 95 61 122q16 8 33 8z" />
    <glyph glyph-name="Ograve" unicode="&#xd2;" horiz-adv-x="704" 
d="M355 610q-133 0 -225 -84q-95 -87 -95 -224q0 -157 113 -245q87 -67 204 -67q133 0 224 84q93 88 93 224q0 165 -117 251q-84 61 -197 61zM355 19q-102 0 -138 93q-25 66 -25 186q0 229 99 271q27 12 61 12q113 0 145 -127q15 -61 15 -151q0 -213 -80 -264
q-31 -20 -77 -20zM466 633q-43 37 -100 105q-21 25 -35 35q-16 11 -31 11q-33 0 -50 -34q-6 -13 -6 -26q1 -27 22 -42q15 -11 96 -37q54 -18 89 -34z" />
    <glyph glyph-name="Oacute" unicode="&#xd3;" horiz-adv-x="704" 
d="M355 610q-133 0 -225 -84q-95 -87 -95 -224q0 -157 113 -245q87 -67 204 -67q133 0 224 84q93 88 93 224q0 165 -117 251q-84 61 -197 61zM355 19q-102 0 -138 93q-25 66 -25 186q0 229 99 271q27 12 61 12q113 0 145 -127q15 -61 15 -151q0 -213 -80 -264
q-31 -20 -77 -20zM457 682q21 16 22 42q0 34 -29 52q-13 8 -27 8q-16 -1 -31 -11q-13 -10 -54 -58q-39 -45 -81 -82l15 -22q29 14 131 47q39 14 54 24z" />
    <glyph glyph-name="Ocircumflex" unicode="&#xd4;" horiz-adv-x="704" 
d="M355 610q-133 0 -225 -84q-95 -87 -95 -224q0 -157 113 -245q87 -67 204 -67q133 0 224 84q93 88 93 224q0 165 -117 251q-84 61 -197 61zM355 19q-102 0 -138 93q-25 66 -25 186q0 229 99 271q27 12 61 12q113 0 145 -127q15 -61 15 -151q0 -213 -80 -264
q-31 -20 -77 -20zM483 630l14 19q-27 27 -80 93q-28 35 -52 38q-4 1 -8 1q-28 0 -55 -33q-6 -7 -18 -22q-36 -47 -65 -77l14 -19q52 29 126 58q66 -26 124 -58z" />
    <glyph glyph-name="Otilde" unicode="&#xd5;" horiz-adv-x="704" 
d="M355 610q-133 0 -225 -84q-95 -87 -95 -224q0 -157 113 -245q87 -67 204 -67q133 0 224 84q93 88 93 224q0 165 -117 251q-84 61 -197 61zM355 19q-102 0 -138 93q-25 66 -25 186q0 229 99 271q27 12 61 12q113 0 145 -127q15 -61 15 -151q0 -213 -80 -264
q-31 -20 -77 -20zM297 782q30 0 83 -34q44 -28 66 -28q41 2 55 55l21 -3q-7 -94 -61 -122q-16 -8 -34 -8q-30 0 -84 35q-42 27 -62 27q-43 0 -57 -50q0 -3 -1 -5l-20 3q7 95 61 122q16 8 33 8z" />
    <glyph glyph-name="Odieresis" unicode="&#xd6;" horiz-adv-x="704" 
d="M355 610q-133 0 -225 -84q-95 -87 -95 -224q0 -157 113 -245q87 -67 204 -67q133 0 224 84q93 88 93 224q0 165 -117 251q-84 61 -197 61zM355 19q-102 0 -138 93q-25 66 -25 186q0 229 99 271q27 12 61 12q113 0 145 -127q15 -61 15 -151q0 -213 -80 -264
q-31 -20 -77 -20zM331 697q0 41 -36 60q-15 8 -31 8q-42 0 -61 -37q-7 -15 -7 -31q0 -41 37 -59q15 -7 31 -7q39 0 59 34q8 16 8 32zM518 697q0 41 -37 60q-16 8 -32 8q-39 0 -58 -36q-8 -15 -8 -32q0 -40 36 -59q14 -7 30 -7q42 0 61 35q8 15 8 31z" />
    <glyph glyph-name="multiply" unicode="&#xd7;" horiz-adv-x="404" 
d="M328 74l31 31l-129 130l129 129l-29 30l-130 -130l-129 130l-31 -31l129 -130l-128 -128l29 -30l129 129z" />
    <glyph glyph-name="Oslash" unicode="&#xd8;" horiz-adv-x="704" 
d="M355 610q-133 0 -225 -84q-95 -87 -95 -224q0 -157 114 -245q24 -19 52 -33l-71 -179h85l60 153q40 -8 77 -8q133 0 224 84q93 88 93 224q0 167 -119 253q-22 15 -46 27l52 132h-85l-42 -107q-34 7 -74 7zM192 298q0 229 99 271q27 12 61 12q36 0 63 -12l-188 -478
q-35 67 -35 207zM355 19q-37 0 -67 12l189 478q35 -69 35 -206q0 -213 -80 -264q-31 -20 -77 -20z" />
    <glyph glyph-name="Ugrave" unicode="&#xd9;" horiz-adv-x="647" 
d="M10 573h80v-353q2 -229 253 -230q161 0 203 123q16 50 16 121v339h80v27h-197v-27h80v-345q-1 -207 -161 -208q-101 0 -125 110q-9 41 -9 98v345h80v27h-300v-27zM456 633q-43 37 -100 105q-21 25 -35 35q-16 11 -31 11q-33 0 -50 -34q-6 -13 -6 -26q1 -27 22 -42
q15 -11 96 -37q54 -18 89 -34z" />
    <glyph glyph-name="Uacute" unicode="&#xda;" horiz-adv-x="647" 
d="M10 573h80v-353q2 -229 253 -230q161 0 203 123q16 50 16 121v339h80v27h-197v-27h80v-345q-1 -207 -161 -208q-101 0 -125 110q-9 41 -9 98v345h80v27h-300v-27zM447 682q21 16 22 42q0 34 -29 52q-13 8 -27 8q-16 -1 -31 -11q-13 -10 -54 -58q-39 -45 -81 -82l15 -22
q29 14 131 47q39 14 54 24z" />
    <glyph glyph-name="Ucircumflex" unicode="&#xdb;" horiz-adv-x="647" 
d="M10 573h80v-353q2 -229 253 -230q161 0 203 123q16 50 16 121v339h80v27h-197v-27h80v-345q-1 -207 -161 -208q-101 0 -125 110q-9 41 -9 98v345h80v27h-300v-27zM473 630l14 19q-27 27 -80 93q-28 35 -52 38q-4 1 -8 1q-28 0 -55 -33q-6 -7 -18 -22q-36 -47 -65 -77
l14 -19q52 29 126 58q66 -26 124 -58z" />
    <glyph glyph-name="Udieresis" unicode="&#xdc;" horiz-adv-x="647" 
d="M10 573h80v-353q2 -229 253 -230q161 0 203 123q16 50 16 121v339h80v27h-197v-27h80v-345q-1 -207 -161 -208q-101 0 -125 110q-9 41 -9 98v345h80v27h-300v-27zM321 697q0 41 -36 60q-15 8 -31 8q-42 0 -61 -37q-7 -15 -7 -31q0 -41 37 -59q15 -7 31 -7q39 0 59 34
q8 16 8 32zM508 697q0 41 -37 60q-16 8 -32 8q-39 0 -58 -36q-8 -15 -8 -32q0 -40 36 -59q14 -7 30 -7q42 0 61 35q8 15 8 31z" />
    <glyph glyph-name="Yacute" unicode="&#xdd;" horiz-adv-x="579" 
d="M451 0q-6 25 -27 27h-58v234l136 284q19 27 50 28q25 6 27 27h-176v-27h80l-135 -277l-146 277h76v27h-280v-27h47l181 -319v-227h-85v-27h310zM419 682q21 16 22 42q0 34 -29 52q-13 8 -27 8q-16 -1 -31 -11q-13 -10 -54 -58q-39 -45 -81 -82l15 -22q29 14 131 47
q39 14 54 24z" />
    <glyph glyph-name="Thorn" unicode="&#xde;" horiz-adv-x="576" 
d="M286 453q104 -2 105 -140q-2 -138 -109 -139h-53v279h57zM298 0q0 24 -13 26q-5 1 -11 1h-45v117h82q173 0 217 109q13 31 13 69q0 94 -84 135q-48 23 -114 23h-114v93h69v27h-278v-27h69v-546h-69v-27h278z" />
    <glyph glyph-name="germandbls" unicode="&#xdf;" horiz-adv-x="609" 
d="M594 119q0 82 -79 136q-14 9 -42 25q-57 34 -70 55q-8 14 -8 28q0 36 44 59q7 4 20 10q49 23 63 46q9 17 9 38q0 78 -89 114q-49 20 -112 20q-133 0 -192 -82q-37 -51 -37 -125v-13h-81v-26h81v-326q-2 -52 -76 -52v-26h203v435q0 167 66 188q13 4 28 4q75 0 79 -104v-11
q0 -50 -43 -79q-5 -3 -16 -10q-41 -25 -52 -49q-10 -20 -10 -47q0 -55 65 -102q11 -9 35 -24q63 -42 82 -70q17 -26 17 -56q-2 -56 -63 -57q-35 0 -48 43q-2 6 -6 19q-12 44 -28 53q-9 5 -20 5q-42 0 -54 -32q-3 -9 -3 -17q0 -57 76 -84q42 -15 94 -15q88 0 136 52
q31 33 31 77z" />
    <glyph glyph-name="agrave" unicode="&#xe0;" horiz-adv-x="493" 
d="M388 -10q73 0 91 53q6 20 9 51l-26 1q-6 -69 -35 -70q-22 2 -22 50v209q0 125 -116 154q-30 7 -65 7q-136 0 -171 -59q-9 -15 -9 -32q0 -39 37 -49q9 -3 19 -3q43 0 58 42q2 6 6 20q11 40 28 50q11 5 25 5q47 0 57 -57q4 -21 4 -50v-65q-257 -5 -258 -136q0 -89 78 -114
q23 -7 51 -7q85 0 125 64q8 13 13 27q21 -86 101 -91zM201 33q-50 2 -51 89q0 66 54 86q29 9 74 11v-97q-19 -70 -61 -86q-9 -3 -16 -3zM355 503q-43 37 -100 105q-21 25 -35 35q-16 11 -31 11q-33 0 -50 -34q-6 -13 -6 -26q1 -27 22 -42q15 -11 96 -37q54 -18 89 -34z" />
    <glyph glyph-name="aacute" unicode="&#xe1;" horiz-adv-x="493" 
d="M388 -10q73 0 91 53q6 20 9 51l-26 1q-6 -69 -35 -70q-22 2 -22 50v209q0 125 -116 154q-30 7 -65 7q-136 0 -171 -59q-9 -15 -9 -32q0 -39 37 -49q9 -3 19 -3q43 0 58 42q2 6 6 20q11 40 28 50q11 5 25 5q47 0 57 -57q4 -21 4 -50v-65q-257 -5 -258 -136q0 -89 78 -114
q23 -7 51 -7q85 0 125 64q8 13 13 27q21 -86 101 -91zM201 33q-50 2 -51 89q0 66 54 86q29 9 74 11v-97q-19 -70 -61 -86q-9 -3 -16 -3zM346 552q21 16 22 42q0 34 -29 52q-13 8 -27 8q-16 -1 -31 -11q-13 -10 -54 -58q-39 -45 -81 -82l15 -22q29 14 131 47q39 14 54 24z
" />
    <glyph glyph-name="acircumflex" unicode="&#xe2;" horiz-adv-x="493" 
d="M388 -10q73 0 91 53q6 20 9 51l-26 1q-6 -69 -35 -70q-22 2 -22 50v209q0 125 -116 154q-30 7 -65 7q-136 0 -171 -59q-9 -15 -9 -32q0 -39 37 -49q9 -3 19 -3q43 0 58 42q2 6 6 20q11 40 28 50q11 5 25 5q47 0 57 -57q4 -21 4 -50v-65q-257 -5 -258 -136q0 -89 78 -114
q23 -7 51 -7q85 0 125 64q8 13 13 27q21 -86 101 -91zM201 33q-50 2 -51 89q0 66 54 86q29 9 74 11v-97q-19 -70 -61 -86q-9 -3 -16 -3zM372 500l14 19q-27 27 -80 93q-28 35 -52 38q-4 1 -8 1q-28 0 -55 -33q-6 -7 -18 -22q-36 -47 -65 -77l14 -19q52 29 126 58
q66 -26 124 -58z" />
    <glyph glyph-name="atilde" unicode="&#xe3;" horiz-adv-x="493" 
d="M388 -10q73 0 91 53q6 20 9 51l-26 1q-6 -69 -35 -70q-22 2 -22 50v209q0 125 -116 154q-30 7 -65 7q-136 0 -171 -59q-9 -15 -9 -32q0 -39 37 -49q9 -3 19 -3q43 0 58 42q2 6 6 20q11 40 28 50q11 5 25 5q47 0 57 -57q4 -21 4 -50v-65q-257 -5 -258 -136q0 -89 78 -114
q23 -7 51 -7q85 0 125 64q8 13 13 27q21 -86 101 -91zM201 33q-50 2 -51 89q0 66 54 86q29 9 74 11v-97q-19 -70 -61 -86q-9 -3 -16 -3zM186 652q30 0 83 -34q44 -28 66 -28q41 2 55 55l21 -3q-7 -94 -61 -122q-16 -8 -34 -8q-30 0 -84 35q-42 27 -62 27q-43 0 -57 -50
q0 -3 -1 -5l-20 3q7 95 61 122q16 8 33 8z" />
    <glyph glyph-name="adieresis" unicode="&#xe4;" horiz-adv-x="493" 
d="M388 -10q73 0 91 53q6 20 9 51l-26 1q-6 -69 -35 -70q-22 2 -22 50v209q0 125 -116 154q-30 7 -65 7q-136 0 -171 -59q-9 -15 -9 -32q0 -39 37 -49q9 -3 19 -3q43 0 58 42q2 6 6 20q11 40 28 50q11 5 25 5q47 0 57 -57q4 -21 4 -50v-65q-257 -5 -258 -136q0 -89 78 -114
q23 -7 51 -7q85 0 125 64q8 13 13 27q21 -86 101 -91zM201 33q-50 2 -51 89q0 66 54 86q29 9 74 11v-97q-19 -70 -61 -86q-9 -3 -16 -3zM220 567q0 41 -36 60q-15 8 -31 8q-42 0 -61 -37q-7 -15 -7 -31q0 -41 37 -59q15 -7 31 -7q39 0 59 34q8 16 8 32zM407 567q0 41 -37 60
q-16 8 -32 8q-39 0 -58 -36q-8 -15 -8 -32q0 -40 36 -59q14 -7 30 -7q42 0 61 35q8 15 8 31z" />
    <glyph glyph-name="aring" unicode="&#xe5;" horiz-adv-x="493" 
d="M388 -10q73 0 91 53q6 20 9 51l-26 1q-6 -69 -35 -70q-22 2 -22 50v209q0 125 -116 154q-30 7 -65 7q-136 0 -171 -59q-9 -15 -9 -32q0 -39 37 -49q9 -3 19 -3q43 0 58 42q2 6 6 20q11 40 28 50q11 5 25 5q47 0 57 -57q4 -21 4 -50v-65q-257 -5 -258 -136q0 -89 78 -114
q23 -7 51 -7q85 0 125 64q8 13 13 27q21 -86 101 -91zM201 33q-50 2 -51 89q0 66 54 86q29 9 74 11v-97q-19 -70 -61 -86q-9 -3 -16 -3zM199 575q1 69 40 70q41 -1 41 -68q-1 -70 -41 -71q-40 1 -40 69zM242 669q-90 0 -114 -59q-6 -16 -6 -33q0 -63 60 -86q24 -9 55 -9
q87 0 113 59q7 17 7 37q0 60 -59 82q-25 9 -56 9z" />
    <glyph glyph-name="ae" unicode="&#xe6;" horiz-adv-x="710" 
d="M484 420q53 0 63 -57q4 -20 4 -53q0 -47 -28 -58q-19 -7 -58 -5l-63 2v28q6 127 64 141q9 2 18 2zM674 106l-25 5q-27 -59 -85 -82q-25 -10 -50 -10q-83 0 -105 112q-5 29 -7 64v28l91 -3q156 -5 183 46q8 15 8 34q0 84 -84 123q-49 22 -110 22q-78 -1 -135 -45
q-50 45 -134 45q-140 0 -175 -60q-8 -15 -8 -31q0 -39 37 -49q9 -3 19 -3q41 0 56 41q3 6 7 20q12 41 30 51q12 6 27 6q57 0 63 -82q1 -12 1 -26v-65q-263 -4 -264 -136q0 -89 78 -114q23 -7 51 -7q85 0 131 63q16 22 24 48q45 -110 193 -111q123 0 171 88q7 14 12 28z
M198 33q-53 2 -54 89q0 68 61 88q29 9 73 10v-98q-18 -67 -61 -85q-10 -4 -19 -4z" />
    <glyph glyph-name="ccedilla" unicode="&#xe7;" horiz-adv-x="454" 
d="M30 216q0 -148 115 -202q28 -13 59 -19l-40 -80l14 -10q26 18 48 18q35 0 39 -45q1 -6 1 -12q0 -57 -38 -64q-4 -1 -8 -1q-35 1 -65 38l-16 -14q40 -52 112 -53q85 0 116 54q11 18 11 39q0 50 -51 73q-28 13 -65 13q-30 0 -56 -11l23 51q11 -1 31 -1q104 0 160 63
q19 22 29 48l-26 7q-28 -60 -95 -81q-26 -8 -52 -8q-69 0 -92 62q-17 46 -17 130q0 168 53 200q16 9 38 9q44 0 54 -41q2 -8 5 -27q6 -46 24 -59q14 -10 38 -10q51 0 63 38q2 8 2 16q0 44 -53 77q-52 31 -130 31q-106 0 -172 -69q-59 -62 -59 -160z" />
    <glyph glyph-name="egrave" unicode="&#xe8;" horiz-adv-x="476" 
d="M254 419q64 -2 65 -109q0 -47 -28 -58q-20 -7 -60 -5l-64 3q7 166 87 169zM441 103l-24 8q-28 -61 -88 -83q-24 -9 -49 -9q-80 0 -103 102q-9 42 -10 100l92 -3q161 -5 187 51q6 14 6 31q0 85 -87 124q-49 21 -111 21q-113 0 -176 -77q-48 -60 -48 -149q0 -145 109 -202
q52 -27 118 -27q117 0 168 82q10 15 16 31zM350 503q-43 37 -100 105q-21 25 -35 35q-16 11 -31 11q-33 0 -50 -34q-6 -13 -6 -26q1 -27 22 -42q15 -11 96 -37q54 -18 89 -34z" />
    <glyph glyph-name="eacute" unicode="&#xe9;" horiz-adv-x="476" 
d="M254 419q64 -2 65 -109q0 -47 -28 -58q-20 -7 -60 -5l-64 3q7 166 87 169zM441 103l-24 8q-28 -61 -88 -83q-24 -9 -49 -9q-80 0 -103 102q-9 42 -10 100l92 -3q161 -5 187 51q6 14 6 31q0 85 -87 124q-49 21 -111 21q-113 0 -176 -77q-48 -60 -48 -149q0 -145 109 -202
q52 -27 118 -27q117 0 168 82q10 15 16 31zM341 552q21 16 22 42q0 34 -29 52q-13 8 -27 8q-16 -1 -31 -11q-13 -10 -54 -58q-39 -45 -81 -82l15 -22q29 14 131 47q39 14 54 24z" />
    <glyph glyph-name="ecircumflex" unicode="&#xea;" horiz-adv-x="476" 
d="M254 419q64 -2 65 -109q0 -47 -28 -58q-20 -7 -60 -5l-64 3q7 166 87 169zM441 103l-24 8q-28 -61 -88 -83q-24 -9 -49 -9q-80 0 -103 102q-9 42 -10 100l92 -3q161 -5 187 51q6 14 6 31q0 85 -87 124q-49 21 -111 21q-113 0 -176 -77q-48 -60 -48 -149q0 -145 109 -202
q52 -27 118 -27q117 0 168 82q10 15 16 31zM367 500l14 19q-27 27 -80 93q-28 35 -52 38q-4 1 -8 1q-28 0 -55 -33q-6 -7 -18 -22q-36 -47 -65 -77l14 -19q52 29 126 58q66 -26 124 -58z" />
    <glyph glyph-name="edieresis" unicode="&#xeb;" horiz-adv-x="476" 
d="M254 419q64 -2 65 -109q0 -47 -28 -58q-20 -7 -60 -5l-64 3q7 166 87 169zM441 103l-24 8q-28 -61 -88 -83q-24 -9 -49 -9q-80 0 -103 102q-9 42 -10 100l92 -3q161 -5 187 51q6 14 6 31q0 85 -87 124q-49 21 -111 21q-113 0 -176 -77q-48 -60 -48 -149q0 -145 109 -202
q52 -27 118 -27q117 0 168 82q10 15 16 31zM215 567q0 41 -36 60q-15 8 -31 8q-42 0 -61 -37q-7 -15 -7 -31q0 -41 37 -59q15 -7 31 -7q39 0 59 34q8 16 8 32zM402 567q0 41 -37 60q-16 8 -32 8q-39 0 -58 -36q-8 -15 -8 -32q0 -40 36 -59q14 -7 30 -7q42 0 61 35q8 15 8 31
z" />
    <glyph glyph-name="igrave" unicode="&#xec;" horiz-adv-x="283" 
d="M244 26h-34v404h-190v-26h58v-326q0 -44 -35 -50q-10 -2 -23 -2v-26h248q0 23 -13 25q-5 1 -11 1zM250 503q-43 37 -100 105q-21 25 -35 35q-16 11 -31 11q-33 0 -50 -34q-6 -13 -6 -26q1 -27 22 -42q15 -11 96 -37q54 -18 89 -34z" />
    <glyph glyph-name="iacute" unicode="&#xed;" horiz-adv-x="283" 
d="M244 26h-34v404h-190v-26h58v-326q0 -44 -35 -50q-10 -2 -23 -2v-26h248q0 23 -13 25q-5 1 -11 1zM241 552q21 16 22 42q0 34 -29 52q-13 8 -27 8q-16 -1 -31 -11q-13 -10 -54 -58q-39 -45 -81 -82l15 -22q29 14 131 47q39 14 54 24z" />
    <glyph glyph-name="icircumflex" unicode="&#xee;" horiz-adv-x="283" 
d="M244 26h-34v404h-190v-26h58v-326q0 -44 -35 -50q-10 -2 -23 -2v-26h248q0 23 -13 25q-5 1 -11 1zM267 500l14 19q-27 27 -80 93q-28 35 -52 38q-4 1 -8 1q-28 0 -55 -33q-6 -7 -18 -22q-36 -47 -65 -77l14 -19q52 29 126 58q66 -26 124 -58z" />
    <glyph glyph-name="idieresis" unicode="&#xef;" horiz-adv-x="283" 
d="M121 567q0 39 -35 57q-14 8 -29 8q-40 0 -58 -36q-7 -14 -7 -29q0 -39 36 -56q14 -7 29 -7q37 0 56 33q8 15 8 30zM290 567q0 39 -36 58q-14 7 -30 7q-37 0 -55 -34q-8 -15 -8 -31q0 -38 34 -56q14 -7 29 -7q40 0 58 34q8 14 8 29zM244 26h-34v404h-190v-26h58v-326
q0 -44 -35 -50q-10 -2 -23 -2v-26h248q0 23 -13 25q-5 1 -11 1z" />
    <glyph glyph-name="eth" unicode="&#xf0;" horiz-adv-x="600" 
d="M490 244q0 141 -82 253q-36 48 -81 82l84 48l-15 26l-98 -55q-82 48 -182 52l-3 -27q87 -9 140 -50l-123 -69l16 -28l131 74q46 -53 66 -163q-41 18 -87 18q-104 0 -170 -67q-56 -56 -56 -137q0 -101 77 -163q62 -49 149 -49q140 0 201 112q33 62 33 143zM167 197
q0 127 33 162q22 21 60 21q65 0 83 -61q11 -38 11 -118q0 -133 -38 -168q-22 -19 -57 -19q-63 0 -81 61q-11 39 -11 122z" />
    <glyph glyph-name="ntilde" unicode="&#xf1;" horiz-adv-x="562" 
d="M230 26h-25l1 256q7 79 58 104q14 7 29 7q57 0 67 -67q2 -13 2 -27v-221q0 -42 -22 -49q-10 -3 -24 -3v-26h231q0 23 -13 25q-6 1 -12 1h-33v256q0 124 -88 155q-24 8 -50 8q-73 0 -124 -58q-15 -17 -24 -35l-5 78h-178v-26h58v-326q0 -46 -43 -51q-7 -1 -15 -1v-26h234
q0 23 -13 25q-5 1 -11 1zM220 652q30 0 83 -34q44 -28 66 -28q41 2 55 55l21 -3q-7 -94 -61 -122q-16 -8 -34 -8q-30 0 -84 35q-42 27 -62 27q-43 0 -57 -50q0 -3 -1 -5l-20 3q7 95 61 122q16 8 33 8z" />
    <glyph glyph-name="ograve" unicode="&#xf2;" horiz-adv-x="521" 
d="M167 217q0 140 34 179q21 23 59 23q64 0 82 -65q12 -42 12 -133q0 -146 -38 -184q-22 -21 -57 -21q-62 0 -80 64q-12 43 -12 137zM265 445q-123 0 -189 -84q-46 -60 -46 -140q0 -113 78 -179q62 -52 148 -52q118 0 185 85q50 64 50 148q0 112 -79 175q-61 47 -147 47z
M379 503q-43 37 -100 105q-21 25 -35 35q-16 11 -31 11q-33 0 -50 -34q-6 -13 -6 -26q1 -27 22 -42q15 -11 96 -37q54 -18 89 -34z" />
    <glyph glyph-name="oacute" unicode="&#xf3;" horiz-adv-x="521" 
d="M167 217q0 140 34 179q21 23 59 23q64 0 82 -65q12 -42 12 -133q0 -146 -38 -184q-22 -21 -57 -21q-62 0 -80 64q-12 43 -12 137zM265 445q-123 0 -189 -84q-46 -60 -46 -140q0 -113 78 -179q62 -52 148 -52q118 0 185 85q50 64 50 148q0 112 -79 175q-61 47 -147 47z
M370 552q21 16 22 42q0 34 -29 52q-13 8 -27 8q-16 -1 -31 -11q-13 -10 -54 -58q-39 -45 -81 -82l15 -22q29 14 131 47q39 14 54 24z" />
    <glyph glyph-name="ocircumflex" unicode="&#xf4;" horiz-adv-x="521" 
d="M167 217q0 140 34 179q21 23 59 23q64 0 82 -65q12 -42 12 -133q0 -146 -38 -184q-22 -21 -57 -21q-62 0 -80 64q-12 43 -12 137zM265 445q-123 0 -189 -84q-46 -60 -46 -140q0 -113 78 -179q62 -52 148 -52q118 0 185 85q50 64 50 148q0 112 -79 175q-61 47 -147 47z
M396 500l14 19q-27 27 -80 93q-28 35 -52 38q-4 1 -8 1q-28 0 -55 -33q-6 -7 -18 -22q-36 -47 -65 -77l14 -19q52 29 126 58q66 -26 124 -58z" />
    <glyph glyph-name="otilde" unicode="&#xf5;" horiz-adv-x="521" 
d="M167 217q0 140 34 179q21 23 59 23q64 0 82 -65q12 -42 12 -133q0 -146 -38 -184q-22 -21 -57 -21q-62 0 -80 64q-12 43 -12 137zM265 445q-123 0 -189 -84q-46 -60 -46 -140q0 -113 78 -179q62 -52 148 -52q118 0 185 85q50 64 50 148q0 112 -79 175q-61 47 -147 47z
M210 652q30 0 83 -34q44 -28 66 -28q41 2 55 55l21 -3q-7 -94 -61 -122q-16 -8 -34 -8q-30 0 -84 35q-42 27 -62 27q-43 0 -57 -50q0 -3 -1 -5l-20 3q7 95 61 122q16 8 33 8z" />
    <glyph glyph-name="odieresis" unicode="&#xf6;" horiz-adv-x="521" 
d="M167 217q0 140 34 179q21 23 59 23q64 0 82 -65q12 -42 12 -133q0 -146 -38 -184q-22 -21 -57 -21q-62 0 -80 64q-12 43 -12 137zM265 445q-123 0 -189 -84q-46 -60 -46 -140q0 -113 78 -179q62 -52 148 -52q118 0 185 85q50 64 50 148q0 112 -79 175q-61 47 -147 47z
M244 567q0 41 -36 60q-15 8 -31 8q-42 0 -61 -37q-7 -15 -7 -31q0 -41 37 -59q15 -7 31 -7q39 0 59 34q8 16 8 32zM431 567q0 41 -37 60q-16 8 -32 8q-39 0 -58 -36q-8 -15 -8 -32q0 -40 36 -59q14 -7 30 -7q42 0 61 35q8 15 8 31z" />
    <glyph glyph-name="divide" unicode="&#xf7;" horiz-adv-x="448" 
d="M418 213v42h-388v-42h388zM215 143q39 0 53 -31q6 -12 6 -27q0 -38 -31 -52q-13 -6 -28 -6q-39 0 -53 31q-6 12 -6 27q1 20 10 34q17 24 49 24zM215 440q39 0 53 -31q6 -12 6 -27q0 -38 -31 -52q-13 -6 -28 -6q-39 0 -53 31q-6 12 -6 27q1 20 10 34q17 24 49 24z" />
    <glyph glyph-name="oslash" unicode="&#xf8;" horiz-adv-x="521" 
d="M34 -14l65 64q64 -60 157 -60q118 0 185 85q50 64 50 148q-1 96 -61 158l60 60l-26 24l-61 -61q-58 41 -138 41q-123 0 -189 -84q-46 -60 -46 -140q1 -83 45 -143l-67 -67zM167 217q0 140 34 179q21 23 59 23q67 -2 84 -73l-176 -176q-1 16 -1 47zM259 16q-61 0 -79 61
q-6 20 -9 46l180 179q3 -34 3 -81q0 -146 -38 -184q-22 -21 -57 -21z" />
    <glyph glyph-name="ugrave" unicode="&#xf9;" horiz-adv-x="562" 
d="M518 26h-34v404h-176v-26h49l-1 -252q-7 -78 -57 -103q-15 -7 -30 -7q-57 0 -67 67q-2 13 -2 27v294h-185v-26h58v-251q2 -162 143 -163q90 0 137 80l6 12l5 -82h178q0 22 -12 25q-5 1 -12 1zM392 503q-43 37 -100 105q-21 25 -35 35q-16 11 -31 11q-33 0 -50 -34
q-6 -13 -6 -26q1 -27 22 -42q15 -11 96 -37q54 -18 89 -34z" />
    <glyph glyph-name="uacute" unicode="&#xfa;" horiz-adv-x="562" 
d="M518 26h-34v404h-176v-26h49l-1 -252q-7 -78 -57 -103q-15 -7 -30 -7q-57 0 -67 67q-2 13 -2 27v294h-185v-26h58v-251q2 -162 143 -163q90 0 137 80l6 12l5 -82h178q0 22 -12 25q-5 1 -12 1zM383 552q21 16 22 42q0 34 -29 52q-13 8 -27 8q-16 -1 -31 -11
q-13 -10 -54 -58q-39 -45 -81 -82l15 -22q29 14 131 47q39 14 54 24z" />
    <glyph glyph-name="ucircumflex" unicode="&#xfb;" horiz-adv-x="562" 
d="M518 26h-34v404h-176v-26h49l-1 -252q-7 -78 -57 -103q-15 -7 -30 -7q-57 0 -67 67q-2 13 -2 27v294h-185v-26h58v-251q2 -162 143 -163q90 0 137 80l6 12l5 -82h178q0 22 -12 25q-5 1 -12 1zM409 500l14 19q-27 27 -80 93q-28 35 -52 38q-4 1 -8 1q-28 0 -55 -33
q-6 -7 -18 -22q-36 -47 -65 -77l14 -19q52 29 126 58q66 -26 124 -58z" />
    <glyph glyph-name="udieresis" unicode="&#xfc;" horiz-adv-x="562" 
d="M518 26h-34v404h-176v-26h49l-1 -252q-7 -78 -57 -103q-15 -7 -30 -7q-57 0 -67 67q-2 13 -2 27v294h-185v-26h58v-251q2 -162 143 -163q90 0 137 80l6 12l5 -82h178q0 22 -12 25q-5 1 -12 1zM257 567q0 41 -36 60q-15 8 -31 8q-42 0 -61 -37q-7 -15 -7 -31q0 -41 37 -59
q15 -7 31 -7q39 0 59 34q8 16 8 32zM444 567q0 41 -37 60q-16 8 -32 8q-39 0 -58 -36q-8 -15 -8 -32q0 -40 36 -59q14 -7 30 -7q42 0 61 35q8 15 8 31z" />
    <glyph glyph-name="yacute" unicode="&#xfd;" horiz-adv-x="490" 
d="M130 -160q-18 0 -29 27q-14 35 -25 44q-13 9 -30 9q-36 0 -46 -31q-2 -8 -2 -15q0 -33 40 -54q28 -15 65 -15q84 0 139 97q21 35 40 85l150 389q17 27 33 29q22 0 24 15q1 5 1 10h-155v-25h75l-109 -279l-121 279h61v25h-235v-25h42l195 -426q-48 -119 -92 -135
q-11 -4 -21 -4zM368 552q21 16 22 42q0 34 -29 52q-13 8 -27 8q-16 -1 -31 -11q-13 -10 -54 -58q-39 -45 -81 -82l15 -22q29 14 131 47q39 14 54 24z" />
    <glyph glyph-name="thorn" unicode="&#xfe;" horiz-adv-x="560" 
d="M204 -164v200q39 -44 119 -46q99 0 159 76q50 66 50 164q0 127 -76 184q-41 31 -94 31q-80 0 -130 -59q-20 -24 -30 -52v316h-182v-26h57v-736q0 -43 -33 -50q-11 -2 -24 -2v-26h260q0 23 -13 25q-6 1 -12 1h-51zM309 397q86 -2 86 -182q-1 -197 -93 -198q-54 0 -81 66
q-18 46 -18 113q0 125 54 178q24 23 52 23z" />
    <glyph glyph-name="ydieresis" unicode="&#xff;" horiz-adv-x="490" 
d="M130 -160q-18 0 -29 27q-14 35 -25 44q-13 9 -30 9q-36 0 -46 -31q-2 -8 -2 -15q0 -33 40 -54q28 -15 65 -15q84 0 139 97q21 35 40 85l150 389q17 27 33 29q22 0 24 15q1 5 1 10h-155v-25h75l-109 -279l-121 279h61v25h-235v-25h42l195 -426q-48 -119 -92 -135
q-11 -4 -21 -4zM224 569q0 41 -36 60q-15 8 -31 8q-42 0 -61 -37q-7 -15 -7 -31q0 -41 37 -59q15 -7 31 -7q39 0 59 34q8 16 8 32zM411 569q0 41 -37 60q-16 8 -32 8q-39 0 -58 -36q-8 -15 -8 -32q0 -40 36 -59q14 -7 30 -7q42 0 61 35q8 15 8 31z" />
    <glyph glyph-name="Amacron" unicode="&#x100;" horiz-adv-x="647" 
d="M647 0q0 24 -13 26q-5 1 -11 1h-30l-236 573h-74l-219 -573h-64v-27h184q0 24 -13 26q-5 1 -11 1h-56l72 192h199l75 -192h-71v-27h268zM363 249h-175l86 230zM163 670h320v55h-320v-55z" />
    <glyph glyph-name="amacron" unicode="&#x101;" horiz-adv-x="493" 
d="M388 -10q73 0 91 53q6 20 9 51l-26 1q-6 -69 -35 -70q-22 2 -22 50v209q0 125 -116 154q-30 7 -65 7q-136 0 -171 -59q-9 -15 -9 -32q0 -39 37 -49q9 -3 19 -3q43 0 58 42q2 6 6 20q11 40 28 50q11 5 25 5q47 0 57 -57q4 -21 4 -50v-65q-257 -5 -258 -136q0 -89 78 -114
q23 -7 51 -7q85 0 125 64q8 13 13 27q21 -86 101 -91zM201 33q-50 2 -51 89q0 66 54 86q29 9 74 11v-97q-19 -70 -61 -86q-9 -3 -16 -3zM89 540h320v55h-320v-55z" />
    <glyph glyph-name="Abreve" unicode="&#x102;" horiz-adv-x="647" 
d="M647 0q0 24 -13 26q-5 1 -11 1h-30l-236 573h-74l-219 -573h-64v-27h184q0 24 -13 26q-5 1 -11 1h-56l72 192h199l75 -192h-71v-27h268zM363 249h-175l86 230zM324 716q83 0 101 41q3 7 5 15h21q0 -93 -65 -125q-28 -14 -65 -14q-96 0 -123 85q-8 26 -8 54h20
q13 -56 114 -56z" />
    <glyph glyph-name="abreve" unicode="&#x103;" horiz-adv-x="493" 
d="M388 -10q73 0 91 53q6 20 9 51l-26 1q-6 -69 -35 -70q-22 2 -22 50v209q0 125 -116 154q-30 7 -65 7q-136 0 -171 -59q-9 -15 -9 -32q0 -39 37 -49q9 -3 19 -3q43 0 58 42q2 6 6 20q11 40 28 50q11 5 25 5q47 0 57 -57q4 -21 4 -50v-65q-257 -5 -258 -136q0 -89 78 -114
q23 -7 51 -7q85 0 125 64q8 13 13 27q21 -86 101 -91zM201 33q-50 2 -51 89q0 66 54 86q29 9 74 11v-97q-19 -70 -61 -86q-9 -3 -16 -3zM250 586q83 0 101 41q3 7 5 15h21q0 -93 -65 -125q-28 -14 -65 -14q-96 0 -123 85q-8 26 -8 54h20q13 -56 114 -56z" />
    <glyph glyph-name="Aogonek" unicode="&#x104;" horiz-adv-x="647" 
d="M647 0q0 24 -13 26q-5 1 -11 1h-30l-236 573h-74l-219 -573h-64v-27h184q0 24 -13 26q-5 1 -11 1h-56l72 192h199l75 -192h-71v-27h188q-122 -28 -139 -98q-3 -10 -3 -20q0 -50 61 -68q22 -6 47 -6q65 1 98 36l-12 17q-28 -23 -52 -23q-34 2 -35 50q0 46 50 86
q20 16 44 26h21zM363 249h-175l86 230z" />
    <glyph glyph-name="aogonek" unicode="&#x105;" horiz-adv-x="493" 
d="M201 33q-50 2 -51 89q0 66 54 86q29 9 74 11v-97q-19 -70 -61 -86q-9 -3 -16 -3zM395 -162q-34 2 -35 50q0 46 50 86q20 16 44 26l-1 6q30 23 35 88l-26 1q-6 -69 -35 -70q-22 2 -22 50v209q0 125 -116 154q-30 7 -65 7q-136 0 -171 -59q-9 -15 -9 -32q0 -39 37 -49
q9 -3 19 -3q43 0 58 42q2 6 6 20q11 40 28 50q11 5 25 5q47 0 57 -57q4 -21 4 -50v-65q-257 -5 -258 -136q0 -89 78 -114q23 -7 51 -7q85 0 125 64q8 13 13 27q12 -76 78 -89q-102 -33 -111 -99q-1 -6 -1 -11q0 -50 61 -68q22 -6 47 -6q65 1 98 36l-12 17q-28 -23 -52 -23z
" />
    <glyph glyph-name="Cacute" unicode="&#x106;" horiz-adv-x="600" 
d="M545 39q-1 -38 17 -42q7 -2 18 -2v197h-33q-37 -139 -131 -165q-26 -7 -58 -7q-127 0 -159 144q-12 57 -12 141q1 274 179 275q94 0 139 -77q21 -37 37 -95h35l-3 197q-26 0 -31 -16q-2 -10 -1 -26q-87 47 -192 47q-168 0 -257 -117q-63 -84 -63 -193q0 -129 83 -217
q89 -93 234 -93q103 0 198 49zM403 752q21 16 22 42q0 34 -29 52q-13 8 -27 8q-16 -1 -31 -11q-13 -10 -54 -58q-39 -45 -81 -82l15 -22q29 14 131 47q39 14 54 24z" />
    <glyph glyph-name="cacute" unicode="&#x107;" horiz-adv-x="454" 
d="M30 216q0 -146 111 -201q52 -25 119 -25q104 0 160 63q19 22 29 48l-26 7q-28 -60 -95 -81q-26 -8 -52 -8q-69 0 -92 62q-17 46 -17 130q0 168 53 200q16 9 38 9q44 0 54 -41q2 -8 5 -27q6 -46 24 -59q14 -10 38 -10q51 0 63 38q2 8 2 16q0 44 -53 77q-52 31 -130 31
q-106 0 -172 -69q-59 -62 -59 -160zM349 552q21 16 22 42q0 34 -29 52q-13 8 -27 8q-16 -1 -31 -11q-13 -10 -54 -58q-39 -45 -81 -82l15 -22q29 14 131 47q39 14 54 24z" />
    <glyph glyph-name="Ccaron" unicode="&#x10c;" horiz-adv-x="600" 
d="M545 39q-1 -38 17 -42q7 -2 18 -2v197h-33q-37 -139 -131 -165q-26 -7 -58 -7q-127 0 -159 144q-12 57 -12 141q1 274 179 275q94 0 139 -77q21 -37 37 -95h35l-3 197q-26 0 -31 -16q-2 -10 -1 -26q-87 47 -192 47q-168 0 -257 -117q-63 -84 -63 -193q0 -129 83 -217
q89 -93 234 -93q103 0 198 49zM305 701q30 0 62 37q7 7 23 27q38 46 65 75l-15 20q-63 -36 -135 -63q-85 34 -137 63l-15 -20q23 -23 84 -96q33 -38 58 -42q5 -1 10 -1z" />
    <glyph glyph-name="ccaron" unicode="&#x10d;" horiz-adv-x="454" 
d="M30 216q0 -146 111 -201q52 -25 119 -25q104 0 160 63q19 22 29 48l-26 7q-28 -60 -95 -81q-26 -8 -52 -8q-69 0 -92 62q-17 46 -17 130q0 168 53 200q16 9 38 9q44 0 54 -41q2 -8 5 -27q6 -46 24 -59q14 -10 38 -10q51 0 63 38q2 8 2 16q0 44 -53 77q-52 31 -130 31
q-106 0 -172 -69q-59 -62 -59 -160zM251 501q30 0 62 37q7 7 23 27q38 46 65 75l-15 20q-63 -36 -135 -63q-85 34 -137 63l-15 -20q23 -23 84 -96q33 -38 58 -42q5 -1 10 -1z" />
    <glyph glyph-name="Dcaron" unicode="&#x10e;" horiz-adv-x="670" 
d="M20 600v-27h80v-546h-80v-27h298q139 0 229 84q88 83 88 214q0 167 -126 249q-83 53 -194 53h-295zM318 573q105 0 140 -103q20 -63 20 -167q0 -208 -83 -257q-32 -19 -79 -19h-76v546h78zM329 631q30 0 62 37q7 7 23 27q38 46 65 75l-15 20q-63 -36 -135 -63
q-85 34 -137 63l-15 -20q23 -23 84 -96q33 -38 58 -42q5 -1 10 -1z" />
    <glyph glyph-name="dcaron" unicode="&#x10f;" horiz-adv-x="604" 
d="M377 0h179q0 23 -12 26q-5 1 -12 1h-46v623h-218v-26h91v-222q-51 44 -122 44q-95 0 -155 -73q-52 -66 -52 -166q0 -124 81 -183q46 -34 102 -34q93 0 138 79q7 12 12 25zM167 219q0 146 63 184q18 10 38 10q72 0 89 -111q4 -30 4 -64q0 -150 -63 -191q-18 -11 -39 -11
q-70 0 -87 114q-5 31 -5 69zM649 576q0 62 -47 79q-13 4 -27 4q-41 0 -60 -38q-8 -16 -8 -33q0 -44 41 -64q8 -3 16 -5q25 -7 26 -25q0 -30 -37 -70l-2 -2l21 -16q63 68 75 146q2 13 2 24z" />
    <glyph glyph-name="Dcroat" unicode="&#x110;" horiz-adv-x="670" 
d="M20 600v-27h80v-240h-75v-45h75v-261h-80v-27h298q139 0 229 84q88 83 88 214q0 167 -126 249q-83 53 -194 53h-295zM318 573q105 0 140 -103q20 -63 20 -167q0 -208 -83 -257q-32 -19 -79 -19h-76v261h85v45h-85v240h78z" />
    <glyph glyph-name="dcroat" unicode="&#x111;" horiz-adv-x="571" 
d="M186 509h173v-107q-51 44 -122 44q-95 0 -155 -73q-52 -66 -52 -166q0 -124 81 -183q46 -34 102 -34q93 0 138 79q7 12 12 25l14 -94h179q0 23 -12 26q-5 1 -12 1h-46v482h70v33h-70v108h-218v-26h91v-82h-173v-33zM167 219q0 146 63 184q18 10 38 10q72 0 89 -111
q4 -30 4 -64q0 -150 -63 -191q-18 -11 -39 -11q-70 0 -87 114q-5 31 -5 69z" />
    <glyph glyph-name="Emacron" unicode="&#x112;" horiz-adv-x="569" 
d="M524 408l-4 192h-500v-27h80v-546h-80v-27h500l4 192h-29l-23 -69q-26 -77 -83 -92q-17 -4 -36 -4h-113v267h192v30h-192v249h113q82 0 113 -78q4 -9 7 -18l22 -69h29zM140 670h320v55h-320v-55z" />
    <glyph glyph-name="emacron" unicode="&#x113;" horiz-adv-x="476" 
d="M254 419q64 -2 65 -109q0 -47 -28 -58q-20 -7 -60 -5l-64 3q7 166 87 169zM441 103l-24 8q-28 -61 -88 -83q-24 -9 -49 -9q-80 0 -103 102q-9 42 -10 100l92 -3q161 -5 187 51q6 14 6 31q0 85 -87 124q-49 21 -111 21q-113 0 -176 -77q-48 -60 -48 -149q0 -145 109 -202
q52 -27 118 -27q117 0 168 82q10 15 16 31zM84 540h320v55h-320v-55z" />
    <glyph glyph-name="Edotaccent" unicode="&#x116;" horiz-adv-x="569" 
d="M524 408l-4 192h-500v-27h80v-546h-80v-27h500l4 192h-29l-23 -69q-26 -77 -83 -92q-17 -4 -36 -4h-113v267h192v30h-192v249h113q82 0 113 -78q4 -9 7 -18l22 -69h29zM372 691q0 44 -39 65q-17 10 -36 10q-43 0 -65 -39q-9 -17 -9 -36q0 -44 39 -64q17 -9 35 -9
q44 0 65 37q10 17 10 36z" />
    <glyph glyph-name="edotaccent" unicode="&#x117;" horiz-adv-x="476" 
d="M254 419q64 -2 65 -109q0 -47 -28 -58q-20 -7 -60 -5l-64 3q7 166 87 169zM441 103l-24 8q-28 -61 -88 -83q-24 -9 -49 -9q-80 0 -103 102q-9 42 -10 100l92 -3q161 -5 187 51q6 14 6 31q0 85 -87 124q-49 21 -111 21q-113 0 -176 -77q-48 -60 -48 -149q0 -145 109 -202
q52 -27 118 -27q117 0 168 82q10 15 16 31zM316 561q0 44 -39 65q-17 10 -36 10q-43 0 -65 -39q-9 -17 -9 -36q0 -44 39 -64q17 -9 35 -9q44 0 65 37q10 17 10 36z" />
    <glyph glyph-name="Eogonek" unicode="&#x118;" horiz-adv-x="569" 
d="M524 408l-4 192h-500v-27h80v-546h-80v-27h431q-122 -28 -139 -98q-3 -10 -3 -20q0 -50 61 -68q22 -6 47 -6q65 1 98 36l-12 17q-28 -23 -52 -23q-34 2 -35 50q0 46 50 86q20 16 44 26h10l4 192h-29l-23 -69q-26 -77 -83 -92q-17 -4 -36 -4h-113v267h192v30h-192v249h113
q82 0 113 -78q4 -9 7 -18l22 -69h29z" />
    <glyph glyph-name="eogonek" unicode="&#x119;" horiz-adv-x="476" 
d="M254 419q64 -2 65 -109q0 -47 -28 -58q-20 -7 -60 -5l-64 3q7 166 87 169zM441 103l-24 8q-28 -61 -88 -83q-24 -9 -49 -9q-80 0 -103 102q-9 42 -10 100l92 -3q161 -5 187 51q6 14 6 31q0 85 -87 124q-49 21 -111 21q-113 0 -176 -77q-48 -60 -48 -149q0 -145 109 -202
q52 -27 118 -27q26 0 52 5q-115 -32 -122 -104q-1 -5 -1 -9q0 -50 61 -68q22 -6 47 -6q65 1 98 36l-12 17q-28 -23 -52 -23q-34 2 -35 50q0 46 50 86q20 16 44 26l-1 10q-23 -2 -57 -10q82 26 112 103z" />
    <glyph glyph-name="Ecaron" unicode="&#x11a;" horiz-adv-x="569" 
d="M524 408l-4 192h-500v-27h80v-546h-80v-27h500l4 192h-29l-23 -69q-26 -77 -83 -92q-17 -4 -36 -4h-113v267h192v30h-192v249h113q82 0 113 -78q4 -9 7 -18l22 -69h29zM299 631q30 0 62 37q7 7 23 27q38 46 65 75l-15 20q-63 -36 -135 -63q-85 34 -137 63l-15 -20
q23 -23 84 -96q33 -38 58 -42q5 -1 10 -1z" />
    <glyph glyph-name="ecaron" unicode="&#x11b;" horiz-adv-x="476" 
d="M254 419q64 -2 65 -109q0 -47 -28 -58q-20 -7 -60 -5l-64 3q7 166 87 169zM441 103l-24 8q-28 -61 -88 -83q-24 -9 -49 -9q-80 0 -103 102q-9 42 -10 100l92 -3q161 -5 187 51q6 14 6 31q0 85 -87 124q-49 21 -111 21q-113 0 -176 -77q-48 -60 -48 -149q0 -145 109 -202
q52 -27 118 -27q117 0 168 82q10 15 16 31zM243 501q30 0 62 37q7 7 23 27q38 46 65 75l-15 20q-63 -36 -135 -63q-85 34 -137 63l-15 -20q23 -23 84 -96q33 -38 58 -42q5 -1 10 -1z" />
    <glyph glyph-name="Gbreve" unicode="&#x11e;" horiz-adv-x="695" 
d="M387 276v-27h85v-191q-46 -36 -109 -36q-122 0 -157 128q-16 60 -16 148q0 263 157 280q12 1 24 1q143 0 181 -189v-2h31l-4 212l-94 -19q-69 29 -145 29q-137 0 -223 -85q-82 -84 -82 -223q0 -179 129 -262q78 -49 179 -49q80 0 146 30l121 -21v249h65v27h-288zM360 716
q83 0 101 41q3 7 5 15h21q0 -93 -65 -125q-28 -14 -65 -14q-96 0 -123 85q-8 26 -8 54h20q13 -56 114 -56z" />
    <glyph glyph-name="gbreve" unicode="&#x11f;" horiz-adv-x="506" 
d="M170 276q0 99 22 125q16 18 47 18q50 0 63 -46q7 -28 7 -94q0 -101 -24 -128q-17 -17 -47 -17q-49 0 -61 46q-7 27 -7 96zM243 445q-116 0 -170 -74q-30 -41 -30 -92q0 -72 70 -126q13 -10 27 -18h-1q-59 1 -82 -52q-8 -20 -8 -40q1 -48 37 -78q-26 -31 -26 -61
q0 -54 71 -81q48 -18 116 -18q164 0 212 77q15 24 15 50q0 101 -110 115q-13 2 -27 2l-207 4q-26 1 -31 23q-1 3 -1 6q0 23 25 26q4 1 8 1l107 -1q110 0 166 75q32 44 32 98q-1 73 -55 120q18 28 42 29q13 0 32 -17q15 -12 28 -12q30 0 37 28q1 5 1 10q0 36 -35 51
q-16 7 -35 7q-52 0 -81 -60q-5 -11 -9 -22q-48 30 -118 30zM247 -168q-122 0 -147 54q-5 11 -5 22q0 21 15 42q20 -8 42 -8l202 -2q58 0 68 -18q4 -7 4 -17q0 -47 -93 -65q-39 -8 -86 -8zM254 586q83 0 101 41q3 7 5 15h21q0 -93 -65 -125q-28 -14 -65 -14q-96 0 -123 85
q-8 26 -8 54h20q13 -56 114 -56z" />
    <glyph glyph-name="uni0122" unicode="&#x122;" horiz-adv-x="695" 
d="M387 276v-27h85v-191q-46 -36 -109 -36q-122 0 -157 128q-16 60 -16 148q0 263 157 280q12 1 24 1q143 0 181 -189v-2h31l-4 212l-94 -19q-69 29 -145 29q-137 0 -223 -85q-82 -84 -82 -223q0 -179 129 -262q78 -49 179 -49q80 0 146 30l121 -21v249h65v27h-288z
M420 -119q0 62 -47 79q-13 4 -27 4q-41 0 -60 -38q-8 -16 -8 -33q0 -44 41 -64q8 -3 16 -5q25 -7 26 -25q0 -30 -37 -70l-2 -2l21 -16q63 68 75 146q2 13 2 24z" />
    <glyph glyph-name="uni0123" unicode="&#x123;" horiz-adv-x="506" 
d="M170 276q0 99 22 125q16 18 47 18q50 0 63 -46q7 -28 7 -94q0 -101 -24 -128q-17 -17 -47 -17q-49 0 -61 46q-7 27 -7 96zM243 445q-116 0 -170 -74q-30 -41 -30 -92q0 -72 70 -126q13 -10 27 -18h-1q-59 1 -82 -52q-8 -20 -8 -40q1 -48 37 -78q-26 -31 -26 -61
q0 -54 71 -81q48 -18 116 -18q164 0 212 77q15 24 15 50q0 101 -110 115q-13 2 -27 2l-207 4q-26 1 -31 23q-1 3 -1 6q0 23 25 26q4 1 8 1l107 -1q110 0 166 75q32 44 32 98q-1 73 -55 120q18 28 42 29q13 0 32 -17q15 -12 28 -12q30 0 37 28q1 5 1 10q0 36 -35 51
q-16 7 -35 7q-52 0 -81 -60q-5 -11 -9 -22q-48 30 -118 30zM247 -168q-122 0 -147 54q-5 11 -5 22q0 21 15 42q20 -8 42 -8l202 -2q58 0 68 -18q4 -7 4 -17q0 -47 -93 -65q-39 -8 -86 -8zM172 575q0 -62 47 -79q13 -4 27 -4q41 0 60 38q8 16 8 33q0 44 -41 64q-8 3 -16 5
q-25 7 -26 25q0 30 37 70l2 2l-21 16q-63 -68 -75 -146q-2 -13 -2 -24z" />
    <glyph glyph-name="Imacron" unicode="&#x12a;" horiz-adv-x="340" 
d="M320 0q-6 25 -27 27h-53v546h80v27h-300v-27h80v-546h-80v-27h300zM8 670h320v55h-320v-55z" />
    <glyph glyph-name="imacron" unicode="&#x12b;" horiz-adv-x="283" 
d="M14 540h260v55h-260v-55zM244 26h-34v404h-190v-26h58v-326q0 -44 -35 -50q-10 -2 -23 -2v-26h248q0 23 -13 25q-5 1 -11 1z" />
    <glyph glyph-name="Iogonek" unicode="&#x12e;" horiz-adv-x="340" 
d="M320 0q-6 25 -27 27h-53v546h80v27h-300v-27h80v-546h-80v-27h221q-122 -28 -139 -98q-3 -10 -3 -20q0 -50 61 -68q22 -6 47 -6q65 1 98 36l-12 17q-28 -23 -52 -23q-34 2 -35 50q0 46 50 86q20 16 44 26h20z" />
    <glyph glyph-name="iogonek" unicode="&#x12f;" horiz-adv-x="283" 
d="M244 26h-34v404h-190v-26h58v-326q0 -44 -35 -50q-10 -2 -23 -2v-26h189q-122 -28 -139 -98q-3 -10 -3 -20q0 -50 61 -68q22 -6 47 -6q65 1 98 36l-12 17q-28 -23 -52 -23q-34 2 -35 50q0 46 50 86q20 16 44 26q0 23 -13 25q-5 1 -11 1zM216 561q0 44 -39 65
q-17 10 -36 10q-43 0 -65 -39q-9 -17 -9 -36q0 -44 39 -64q17 -9 35 -9q44 0 65 37q10 17 10 36z" />
    <glyph glyph-name="Idotaccent" unicode="&#x130;" horiz-adv-x="340" 
d="M320 0q-6 25 -27 27h-53v546h80v27h-300v-27h80v-546h-80v-27h300zM240 691q0 44 -39 65q-17 10 -36 10q-43 0 -65 -39q-9 -17 -9 -36q0 -44 39 -64q17 -9 35 -9q44 0 65 37q10 17 10 36z" />
    <glyph glyph-name="dotlessi" unicode="&#x131;" horiz-adv-x="283" 
d="M244 26h-34v404h-190v-26h58v-326q0 -44 -35 -50q-10 -2 -23 -2v-26h248q0 23 -13 25q-5 1 -11 1z" />
    <glyph glyph-name="uni0136" unicode="&#x136;" horiz-adv-x="647" 
d="M423 -119q0 62 -47 79q-13 4 -27 4q-41 0 -60 -38q-8 -16 -8 -33q0 -44 41 -64q8 -3 16 -5q25 -7 26 -25q0 -30 -37 -70l-2 -2l21 -16q63 68 75 146q2 13 2 24zM320 0q-6 25 -27 27h-53v240l32 29l191 -297l191 1q-6 25 -27 27h-9l-244 362l152 137q45 41 65 46q7 1 13 1
q24 0 26 17q1 5 1 10h-185v-27h80l-286 -258v258h80v27h-300v-27h80v-546h-80v-27h300z" />
    <glyph glyph-name="uni0137" unicode="&#x137;" horiz-adv-x="527" 
d="M270 26h-52v154l31 30l122 -211l166 1q0 22 -12 25q-5 1 -12 1h-15l-161 269l74 71q35 33 54 37q8 1 16 1q22 0 25 16q1 5 1 10h-169v-26h73l-193 -183v429h-203v-26h76v-546q-2 -52 -76 -52v-26h279q0 23 -13 25q-5 1 -11 1zM361 -119q0 62 -47 79q-13 4 -27 4
q-41 0 -60 -38q-8 -16 -8 -33q0 -44 41 -64q8 -3 16 -5q25 -7 26 -25q0 -30 -37 -70l-2 -2l21 -16q63 68 75 146q2 13 2 24z" />
    <glyph glyph-name="Lacute" unicode="&#x139;" horiz-adv-x="514" 
d="M510 0l4 217h-29l-29 -94q-21 -67 -60 -86q-23 -10 -53 -10h-103v546h85v27h-305v-27h80v-546h-80v-27h490zM359 682q21 16 22 42q0 34 -29 52q-13 8 -27 8q-16 -1 -31 -11q-13 -10 -54 -58q-39 -45 -81 -82l15 -22q29 14 131 47q39 14 54 24z" />
    <glyph glyph-name="lacute" unicode="&#x13a;" horiz-adv-x="319" 
d="M241 735q24 15 26 40q3 34 -25 55q-13 8 -26 10q-16 1 -32 -8q-14 -9 -57 -52t-89 -76l13 -23q31 11 134 35q40 10 56 19zM270 26h-50v624h-205v-26h78v-544q0 -41 -33 -50q-17 -4 -45 -4v-26h279q0 23 -13 25q-5 1 -11 1z" />
    <glyph glyph-name="uni013B" unicode="&#x13b;" horiz-adv-x="514" 
d="M510 0l4 217h-29l-29 -94q-21 -67 -60 -86q-23 -10 -53 -10h-103v546h85v27h-305v-27h80v-546h-80v-27h490zM331 -119q0 62 -47 79q-13 4 -27 4q-41 0 -60 -38q-8 -16 -8 -33q0 -44 41 -64q8 -3 16 -5q25 -7 26 -25q0 -30 -37 -70l-2 -2l21 -16q63 68 75 146q2 13 2 24z
" />
    <glyph glyph-name="uni013C" unicode="&#x13c;" horiz-adv-x="312" 
d="M270 26h-50v624h-205v-26h78v-544q0 -41 -33 -50q-17 -4 -45 -4v-26h279q0 23 -13 25q-5 1 -11 1zM229 -119q0 62 -47 79q-13 4 -27 4q-41 0 -60 -38q-8 -16 -8 -33q0 -44 41 -64q8 -3 16 -5q25 -7 26 -25q0 -30 -37 -70l-2 -2l21 -16q63 68 75 146q2 13 2 24z" />
    <glyph glyph-name="Lcaron" unicode="&#x13d;" horiz-adv-x="514" 
d="M510 0l4 217h-29l-29 -94q-21 -67 -60 -86q-23 -10 -53 -10h-103v546h85v27h-305v-27h80v-546h-80v-27h490zM180 631q30 0 62 37q7 7 23 27q38 46 65 75l-15 20q-63 -36 -135 -63q-85 34 -137 63l-15 -20q23 -23 84 -96q33 -38 58 -42q5 -1 10 -1z" />
    <glyph glyph-name="lcaron" unicode="&#x13e;" horiz-adv-x="372" 
d="M270 26h-50v624h-205v-26h78v-544q0 -41 -33 -50q-17 -4 -45 -4v-26h279q0 23 -13 25q-5 1 -11 1zM393 576q0 62 -47 79q-13 4 -27 4q-41 0 -60 -38q-8 -16 -8 -33q0 -44 41 -64q8 -3 16 -5q25 -7 26 -25q0 -30 -37 -70l-2 -2l21 -16q63 68 75 146q2 13 2 24z" />
    <glyph glyph-name="Lslash" unicode="&#x141;" horiz-adv-x="515" 
d="M510 0l4 217h-29l-29 -94q-21 -67 -60 -86q-23 -10 -53 -10h-103v241l191 106l-17 31l-174 -96v264h85v27h-305v-27h80v-341l-96 -53l17 -32l79 44v-164h-80v-27h490z" />
    <glyph glyph-name="lslash" unicode="&#x142;" horiz-adv-x="319" 
d="M4 216l89 49v-185q0 -41 -33 -50q-17 -4 -45 -4v-26h279q0 23 -13 25q-5 1 -11 1h-50v310l118 65l-17 31l-101 -56v274h-205v-26h78v-318l-106 -58z" />
    <glyph glyph-name="Nacute" unicode="&#x143;" horiz-adv-x="664" 
d="M457 573h80v-387l-353 414h-169v-27h80v-546h-80v-27h207q-6 25 -27 27h-58v417l385 -449l57 10v568h80v27h-202v-27zM434 682q21 16 22 42q0 34 -29 52q-13 8 -27 8q-16 -1 -31 -11q-13 -10 -54 -58q-39 -45 -81 -82l15 -22q29 14 131 47q39 14 54 24z" />
    <glyph glyph-name="nacute" unicode="&#x144;" horiz-adv-x="562" 
d="M230 26h-25l1 256q7 79 58 104q14 7 29 7q57 0 67 -67q2 -13 2 -27v-221q0 -42 -22 -49q-10 -3 -24 -3v-26h231q0 23 -13 25q-6 1 -12 1h-33v256q0 124 -88 155q-24 8 -50 8q-73 0 -124 -58q-15 -17 -24 -35l-5 78h-178v-26h58v-326q0 -46 -43 -51q-7 -1 -15 -1v-26h234
q0 23 -13 25q-5 1 -11 1zM380 552q21 16 22 42q0 34 -29 52q-13 8 -27 8q-16 -1 -31 -11q-13 -10 -54 -58q-39 -45 -81 -82l15 -22q29 14 131 47q39 14 54 24z" />
    <glyph glyph-name="uni0145" unicode="&#x145;" horiz-adv-x="664" 
d="M457 573h80v-387l-353 414h-169v-27h80v-546h-80v-27h207q-6 25 -27 27h-58v417l385 -449l57 10v568h80v27h-202v-27zM403 -119q0 62 -47 79q-13 4 -27 4q-41 0 -60 -38q-8 -16 -8 -33q0 -44 41 -64q8 -3 16 -5q25 -7 26 -25q0 -30 -37 -70l-2 -2l21 -16q63 68 75 146
q2 13 2 24z" />
    <glyph glyph-name="uni0146" unicode="&#x146;" horiz-adv-x="562" 
d="M230 26h-25l1 256q7 79 58 104q14 7 29 7q57 0 67 -67q2 -13 2 -27v-221q0 -42 -22 -49q-10 -3 -24 -3v-26h231q0 23 -13 25q-6 1 -12 1h-33v256q0 124 -88 155q-24 8 -50 8q-73 0 -124 -58q-15 -17 -24 -35l-5 78h-178v-26h58v-326q0 -46 -43 -51q-7 -1 -15 -1v-26h234
q0 23 -13 25q-5 1 -11 1zM352 -119q0 62 -47 79q-13 4 -27 4q-41 0 -60 -38q-8 -16 -8 -33q0 -44 41 -64q8 -3 16 -5q25 -7 26 -25q0 -30 -37 -70l-2 -2l21 -16q63 68 75 146q2 13 2 24z" />
    <glyph glyph-name="Ncaron" unicode="&#x147;" horiz-adv-x="664" 
d="M457 573h80v-387l-353 414h-169v-27h80v-546h-80v-27h207q-6 25 -27 27h-58v417l385 -449l57 10v568h80v27h-202v-27zM336 631q30 0 62 37q7 7 23 27q38 46 65 75l-15 20q-63 -36 -135 -63q-85 34 -137 63l-15 -20q23 -23 84 -96q33 -38 58 -42q5 -1 10 -1z" />
    <glyph glyph-name="ncaron" unicode="&#x148;" horiz-adv-x="562" 
d="M230 26h-25l1 256q7 79 58 104q14 7 29 7q57 0 67 -67q2 -13 2 -27v-221q0 -42 -22 -49q-10 -3 -24 -3v-26h231q0 23 -13 25q-6 1 -12 1h-33v256q0 124 -88 155q-24 8 -50 8q-73 0 -124 -58q-15 -17 -24 -35l-5 78h-178v-26h58v-326q0 -46 -43 -51q-7 -1 -15 -1v-26h234
q0 23 -13 25q-5 1 -11 1zM282 501q30 0 62 37q7 7 23 27q38 46 65 75l-15 20q-63 -36 -135 -63q-85 34 -137 63l-15 -20q23 -23 84 -96q33 -38 58 -42q5 -1 10 -1z" />
    <glyph glyph-name="Omacron" unicode="&#x14c;" horiz-adv-x="704" 
d="M355 610q-133 0 -225 -84q-95 -87 -95 -224q0 -157 113 -245q87 -67 204 -67q133 0 224 84q93 88 93 224q0 165 -117 251q-84 61 -197 61zM355 19q-102 0 -138 93q-25 66 -25 186q0 229 99 271q27 12 61 12q113 0 145 -127q15 -61 15 -151q0 -213 -80 -264
q-31 -20 -77 -20zM200 670h320v55h-320v-55z" />
    <glyph glyph-name="omacron" unicode="&#x14d;" horiz-adv-x="521" 
d="M167 217q0 140 34 179q21 23 59 23q64 0 82 -65q12 -42 12 -133q0 -146 -38 -184q-22 -21 -57 -21q-62 0 -80 64q-12 43 -12 137zM265 445q-123 0 -189 -84q-46 -60 -46 -140q0 -113 78 -179q62 -52 148 -52q118 0 185 85q50 64 50 148q0 112 -79 175q-61 47 -147 47z
M113 540h320v55h-320v-55z" />
    <glyph glyph-name="Ohungarumlaut" unicode="&#x150;" horiz-adv-x="704" 
d="M355 610q-133 0 -225 -84q-95 -87 -95 -224q0 -157 113 -245q87 -67 204 -67q133 0 224 84q93 88 93 224q0 165 -117 251q-84 61 -197 61zM355 19q-102 0 -138 93q-25 66 -25 186q0 229 99 271q27 12 61 12q113 0 145 -127q15 -61 15 -151q0 -213 -80 -264
q-31 -20 -77 -20zM389 709q20 16 19 42q-1 33 -30 49q-13 7 -27 6t-30 -12q-11 -10 -49 -59q-35 -46 -74 -84l15 -20q26 14 124 52q38 15 52 26zM572 685q22 13 26 38q2 36 -26 55q-11 8 -22 9q-17 1 -32 -8q-14 -8 -58 -50q-42 -40 -86 -71l12 -23q31 11 133 33q38 9 53 17
z" />
    <glyph glyph-name="ohungarumlaut" unicode="&#x151;" horiz-adv-x="521" 
d="M167 217q0 140 34 179q21 23 59 23q64 0 82 -65q12 -42 12 -133q0 -146 -38 -184q-22 -21 -57 -21q-62 0 -80 64q-12 43 -12 137zM265 445q-123 0 -189 -84q-46 -60 -46 -140q0 -113 78 -179q62 -52 148 -52q118 0 185 85q50 64 50 148q0 112 -79 175q-61 47 -147 47z
M302 579q20 16 19 42q-1 33 -30 49q-14 7 -27 6q-14 -1 -30 -12q-11 -10 -49 -59q-35 -46 -74 -84l15 -20q26 14 124 52q38 15 52 26zM485 555q22 13 26 38q2 36 -26 55q-11 8 -22 9q-17 1 -32 -8q-14 -8 -58 -50q-42 -40 -86 -71l12 -23q31 11 133 33q38 9 53 17z" />
    <glyph glyph-name="OE" unicode="&#x152;" horiz-adv-x="923" 
d="M356 21q-118 0 -150 127q-14 58 -14 150q0 182 64 242q43 39 116 39q48 0 84 -16v-524q-41 -18 -100 -18zM486 0h388l4 197h-29l-28 -74q-25 -66 -65 -85q-24 -11 -54 -11h-106v267h190v30h-190v249h106q76 0 110 -71q5 -11 10 -25l27 -74h29l-4 197h-378q-16 0 -69 2
q-55 3 -72 3q-136 0 -227 -83q-93 -85 -93 -220q0 -158 116 -244q85 -63 201 -63q22 0 84 3q40 2 50 2z" />
    <glyph glyph-name="oe" unicode="&#x153;" horiz-adv-x="794" 
d="M566 420q60 0 69 -72q2 -17 2 -38q0 -47 -28 -58q-20 -7 -60 -5l-64 3q2 145 56 166q12 4 25 4zM167 217q0 141 34 179q22 24 59 24q64 0 82 -66q12 -43 12 -133q0 -147 -39 -186q-22 -20 -56 -20q-62 0 -81 65q-11 43 -11 137zM265 445q-123 0 -189 -84
q-46 -60 -46 -140q0 -113 78 -179q62 -52 148 -52q99 1 159 71q57 -71 160 -71q128 0 175 93q6 11 10 23l-25 5q-28 -61 -88 -83q-24 -9 -49 -9q-85 0 -106 115q-6 39 -7 89l92 -3q156 -4 185 45q8 15 8 35q0 84 -86 123q-48 22 -110 22q-98 -1 -155 -65q-56 65 -154 65z
" />
    <glyph glyph-name="Racute" unicode="&#x154;" horiz-adv-x="614" 
d="M320 0v27h-80v247h49l149 -275l176 1q0 22 -16 25q-5 1 -10 1h-13l-154 260q105 29 129 114q6 21 6 43q0 74 -66 119q-56 38 -136 38h-334v-27h80v-546h-80v-27h300zM294 573q82 0 106 -81q7 -26 7 -54q0 -86 -52 -119q-23 -15 -53 -15h-62v269h54zM403 682q21 16 22 42
q0 34 -29 52q-13 8 -27 8q-16 -1 -31 -11q-13 -10 -54 -58q-39 -45 -81 -82l15 -22q29 14 131 47q39 14 54 24z" />
    <glyph glyph-name="racute" unicode="&#x155;" horiz-adv-x="422" 
d="M279 26h-74v216q7 105 51 128q7 3 13 3q11 0 24 -23q18 -32 39 -40q10 -3 22 -3q40 0 57 38q6 13 6 27q0 50 -49 63q-12 3 -25 3q-62 0 -109 -49q-21 -24 -32 -52l-7 93h-175v-26h58v-326q0 -44 -35 -50q-10 -2 -23 -2v-26h283q0 23 -13 25q-5 1 -11 1zM299 552
q21 16 22 42q0 34 -29 52q-13 8 -27 8q-16 -1 -31 -11q-13 -10 -54 -58q-39 -45 -81 -82l15 -22q29 14 131 47q39 14 54 24z" />
    <glyph glyph-name="uni0156" unicode="&#x156;" horiz-adv-x="614" 
d="M320 0v27h-80v247h49l149 -275l176 1q0 22 -16 25q-5 1 -10 1h-13l-154 260q105 29 129 114q6 21 6 43q0 74 -66 119q-56 38 -136 38h-334v-27h80v-546h-80v-27h300zM294 573q82 0 106 -81q7 -26 7 -54q0 -86 -52 -119q-23 -15 -53 -15h-62v269h54zM392 -119q0 62 -47 79
q-13 4 -27 4q-41 0 -60 -38q-8 -16 -8 -33q0 -44 41 -64q8 -3 16 -5q25 -7 26 -25q0 -30 -37 -70l-2 -2l21 -16q63 68 75 146q2 13 2 24z" />
    <glyph glyph-name="uni0157" unicode="&#x157;" horiz-adv-x="422" 
d="M279 26h-74v216q7 105 51 128q7 3 13 3q11 0 24 -23q18 -32 39 -40q10 -3 22 -3q40 0 57 38q6 13 6 27q0 50 -49 63q-12 3 -25 3q-62 0 -109 -49q-21 -24 -32 -52l-7 93h-175v-26h58v-326q0 -44 -35 -50q-10 -2 -23 -2v-26h283q0 23 -13 25q-5 1 -11 1zM217 -119
q0 62 -47 79q-13 4 -27 4q-41 0 -60 -38q-8 -16 -8 -33q0 -44 41 -64q8 -3 16 -5q25 -7 26 -25q0 -30 -37 -70l-2 -2l21 -16q63 68 75 146q2 13 2 24z" />
    <glyph glyph-name="Rcaron" unicode="&#x158;" horiz-adv-x="614" 
d="M320 0v27h-80v247h49l149 -275l176 1q0 22 -16 25q-5 1 -10 1h-13l-154 260q105 29 129 114q6 21 6 43q0 74 -66 119q-56 38 -136 38h-334v-27h80v-546h-80v-27h300zM294 573q82 0 106 -81q7 -26 7 -54q0 -86 -52 -119q-23 -15 -53 -15h-62v269h54zM305 631q30 0 62 37
q7 7 23 27q38 46 65 75l-15 20q-63 -36 -135 -63q-85 34 -137 63l-15 -20q23 -23 84 -96q33 -38 58 -42q5 -1 10 -1z" />
    <glyph glyph-name="rcaron" unicode="&#x159;" horiz-adv-x="422" 
d="M279 26h-74v216q7 105 51 128q7 3 13 3q11 0 24 -23q18 -32 39 -40q10 -3 22 -3q40 0 57 38q6 13 6 27q0 50 -49 63q-12 3 -25 3q-62 0 -109 -49q-21 -24 -32 -52l-7 93h-175v-26h58v-326q0 -44 -35 -50q-10 -2 -23 -2v-26h283q0 23 -13 25q-5 1 -11 1zM201 501
q30 0 62 37q7 7 23 27q38 46 65 75l-15 20q-63 -36 -135 -63q-85 34 -137 63l-15 -20q23 -23 84 -96q33 -38 58 -42q5 -1 10 -1z" />
    <glyph glyph-name="Sacute" unicode="&#x15a;" horiz-adv-x="558" 
d="M517 167q0 83 -91 142q-13 7 -105 56q-84 44 -105 87q-10 21 -10 44q0 59 57 78q19 6 40 6q82 0 123 -62q25 -39 26 -93h39v181q-28 0 -33 -19q-1 -7 -1 -16q-83 39 -175 39q-121 0 -182 -63q-39 -41 -39 -97q0 -83 95 -142q12 -8 108 -57q86 -45 107 -87q9 -20 9 -41
q0 -72 -64 -96q-23 -8 -51 -8q-106 0 -149 97q-18 41 -22 94h-39v-212q27 0 32 16q2 10 2 27q77 -51 186 -51q127 0 195 65q47 46 47 112zM401 682q21 16 22 42q0 34 -29 52q-13 8 -27 8q-16 -1 -31 -11q-13 -10 -54 -58q-39 -45 -81 -82l15 -22q29 14 131 47q39 14 54 24z
" />
    <glyph glyph-name="sacute" unicode="&#x15b;" horiz-adv-x="419" 
d="M196 18q67 0 77 48q1 7 1 13q0 51 -64 85q-14 8 -45 21q-75 33 -99 61q-26 30 -26 71q0 85 93 115q39 13 87 13q78 0 122 -28q0 30 18 33q4 1 8 1v-125h-32q-4 91 -99 92q-64 0 -79 -42q-3 -10 -3 -20q0 -43 60 -73q12 -7 40 -19q78 -35 104 -64q30 -34 30 -81
q0 -87 -90 -117q-37 -12 -83 -12q-88 0 -148 31q0 -26 -13 -30q-6 -1 -14 -1v152h34q2 -123 121 -124zM309 552q21 16 22 42q0 34 -29 52q-13 8 -27 8q-16 -1 -31 -11q-13 -10 -54 -58q-39 -45 -81 -82l15 -22q29 14 131 47q39 14 54 24z" />
    <glyph glyph-name="uni015E" unicode="&#x15e;" horiz-adv-x="558" 
d="M517 167q0 83 -91 142q-13 7 -105 56q-84 44 -105 87q-10 21 -10 44q0 59 57 78q19 6 40 6q82 0 123 -62q25 -39 26 -93h39v181q-28 0 -33 -19q-1 -7 -1 -16q-83 39 -175 39q-121 0 -182 -63q-39 -41 -39 -97q0 -83 95 -142q12 -8 108 -57q86 -45 107 -87q9 -20 9 -41
q0 -72 -64 -96q-23 -8 -51 -8q-106 0 -149 97q-18 41 -22 94h-39v-212q27 0 32 16q2 10 2 27q67 -43 159 -50l-38 -76l14 -10q26 18 48 18q35 0 39 -45q1 -6 1 -12q0 -57 -38 -64q-4 -1 -8 -1q-35 1 -65 38l-16 -14q40 -52 112 -53q85 0 116 54q11 18 11 39q0 50 -51 73
q-28 13 -65 13q-30 0 -56 -11l22 50h1q127 0 195 65q47 46 47 112z" />
    <glyph glyph-name="uni015F" unicode="&#x15f;" horiz-adv-x="419" 
d="M196 18q-120 2 -121 124h-34v-152q22 0 25 13q2 7 2 18q36 -19 97 -28l-39 -78l14 -10q26 18 48 18q35 0 39 -45q1 -6 1 -12q0 -57 -38 -64q-4 -1 -8 -1q-35 1 -65 38l-16 -14q40 -52 112 -53q85 0 116 54q11 18 11 39q0 50 -51 73q-28 13 -65 13q-30 0 -56 -11l22 51
q-10 0 -25 2l7 15h26l-8 -17q10 -1 26 -1q125 0 161 75q12 24 12 54q0 75 -80 119q-17 10 -54 26q-69 30 -87 53q-13 18 -13 39q0 48 56 60q13 2 26 2q96 -2 99 -92h32v125q-23 0 -25 -22q-1 -5 -1 -12q-44 28 -122 28q-115 0 -159 -62q-21 -29 -21 -66q0 -67 73 -107
q17 -9 52 -25q72 -31 92 -56q17 -22 17 -50q0 -48 -52 -59q-12 -2 -26 -2z" />
    <glyph glyph-name="Scaron" unicode="&#x160;" horiz-adv-x="558" 
d="M517 167q0 83 -91 142q-13 7 -105 56q-84 44 -105 87q-10 21 -10 44q0 59 57 78q19 6 40 6q82 0 123 -62q25 -39 26 -93h39v181q-28 0 -33 -19q-1 -7 -1 -16q-83 39 -175 39q-121 0 -182 -63q-39 -41 -39 -97q0 -83 95 -142q12 -8 108 -57q86 -45 107 -87q9 -20 9 -41
q0 -72 -64 -96q-23 -8 -51 -8q-106 0 -149 97q-18 41 -22 94h-39v-212q27 0 32 16q2 10 2 27q77 -51 186 -51q127 0 195 65q47 46 47 112zM303 631q30 0 62 37q7 7 23 27q38 46 65 75l-15 20q-63 -36 -135 -63q-85 34 -137 63l-15 -20q23 -23 84 -96q33 -38 58 -42
q5 -1 10 -1z" />
    <glyph glyph-name="scaron" unicode="&#x161;" horiz-adv-x="419" 
d="M196 18q67 0 77 48q1 7 1 13q0 51 -64 85q-14 8 -45 21q-75 33 -99 61q-26 30 -26 71q0 85 93 115q39 13 87 13q78 0 122 -28q0 30 18 33q4 1 8 1v-125h-32q-4 91 -99 92q-64 0 -79 -42q-3 -10 -3 -20q0 -43 60 -73q12 -7 40 -19q78 -35 104 -64q30 -34 30 -81
q0 -87 -90 -117q-37 -12 -83 -12q-88 0 -148 31q0 -26 -13 -30q-6 -1 -14 -1v152h34q2 -123 121 -124zM211 501q30 0 62 37q7 7 23 27q38 46 65 75l-15 20q-63 -36 -135 -63q-85 34 -137 63l-15 -20q23 -23 84 -96q33 -38 58 -42q5 -1 10 -1z" />
    <glyph glyph-name="uni0162" unicode="&#x162;" horiz-adv-x="566" 
d="M195 -85l14 -10q25 18 48 18q35 0 39 -45q1 -6 1 -12q0 -57 -38 -64q-4 -1 -8 -1q-35 1 -65 38l-16 -14q40 -52 112 -53q85 0 116 54q11 18 11 39q0 50 -51 73q-28 13 -65 13q-30 0 -56 -11l26 60h180q-6 25 -27 27h-68v546h17q72 0 102 -64q6 -14 13 -33l31 -90h30
l-4 214h-518l-4 -214h30l31 90q22 64 57 84q24 13 58 13h17v-546h-95v-27h124z" />
    <glyph glyph-name="uni0163" unicode="&#x163;" horiz-adv-x="361" 
d="M15 399h69v-250q1 -112 74 -146l-43 -88l14 -10q25 18 48 18q35 0 39 -45q1 -6 1 -12q0 -57 -38 -64q-4 -1 -8 -1q-35 1 -65 38l-16 -14q40 -52 112 -53q85 0 116 54q11 18 11 39q0 50 -51 73q-28 13 -65 13q-30 0 -56 -11l24 55q23 -6 47 -6q77 0 106 50q14 25 22 66
l-27 4q-20 -81 -59 -89q-6 -1 -12 -1q-37 0 -45 52q-2 12 -2 25v303h132v26h-132v116l-127 -21v-95h-69v-26z" />
    <glyph glyph-name="Tcaron" unicode="&#x164;" horiz-adv-x="556" 
d="M443 0q-6 25 -27 27h-68v546h17q72 0 102 -64q6 -14 13 -33l31 -90h30l-4 214h-518l-4 -214h30l31 90q22 64 57 84q24 13 58 13h17v-546h-95v-27h330zM279 631q30 0 62 37q7 7 23 27q38 46 65 75l-15 20q-63 -36 -135 -63q-85 34 -137 63l-15 -20q23 -23 84 -96
q33 -38 58 -42q5 -1 10 -1z" />
    <glyph glyph-name="tcaron" unicode="&#x165;" horiz-adv-x="361" 
d="M15 399h69v-250q0 -145 120 -159q12 -1 24 -1q77 0 106 50q14 25 22 66l-27 4q-20 -81 -59 -89q-6 -1 -12 -1q-37 0 -45 52q-2 12 -2 25v303h132v26h-132v116l-127 -21v-95h-69v-26zM371 604q0 62 -47 79q-13 4 -27 4q-41 0 -60 -38q-8 -16 -8 -33q0 -44 41 -64
q8 -3 16 -5q25 -7 26 -25q0 -30 -37 -70l-2 -2l21 -16q63 68 75 146q2 13 2 24z" />
    <glyph glyph-name="Umacron" unicode="&#x16a;" horiz-adv-x="647" 
d="M10 573h80v-353q2 -229 253 -230q161 0 203 123q16 50 16 121v339h80v27h-197v-27h80v-345q-1 -207 -161 -208q-101 0 -125 110q-9 41 -9 98v345h80v27h-300v-27zM190 670h320v55h-320v-55z" />
    <glyph glyph-name="umacron" unicode="&#x16b;" horiz-adv-x="562" 
d="M518 26h-34v404h-176v-26h49l-1 -252q-7 -78 -57 -103q-15 -7 -30 -7q-57 0 -67 67q-2 13 -2 27v294h-185v-26h58v-251q2 -162 143 -163q90 0 137 80l6 12l5 -82h178q0 22 -12 25q-5 1 -12 1zM126 540h320v55h-320v-55z" />
    <glyph glyph-name="Uring" unicode="&#x16e;" horiz-adv-x="647" 
d="M10 573h80v-353q2 -229 253 -230q161 0 203 123q16 50 16 121v339h80v27h-197v-27h80v-345q-1 -207 -161 -208q-101 0 -125 110q-9 41 -9 98v345h80v27h-300v-27zM330 705q1 69 40 70q41 -1 41 -68q-1 -70 -41 -71q-40 1 -40 69zM373 799q-90 0 -114 -59q-6 -16 -6 -33
q0 -63 60 -86q24 -9 55 -9q87 0 113 59q7 17 7 37q0 60 -59 82q-25 9 -56 9z" />
    <glyph glyph-name="uring" unicode="&#x16f;" horiz-adv-x="562" 
d="M518 26h-34v404h-176v-26h49l-1 -252q-7 -78 -57 -103q-15 -7 -30 -7q-57 0 -67 67q-2 13 -2 27v294h-185v-26h58v-251q2 -162 143 -163q90 0 137 80l6 12l5 -82h178q0 22 -12 25q-5 1 -12 1zM236 575q1 69 40 70q41 -1 41 -68q-1 -70 -41 -71q-40 1 -40 69zM279 669
q-90 0 -114 -59q-6 -16 -6 -33q0 -63 60 -86q24 -9 55 -9q87 0 113 59q7 17 7 37q0 60 -59 82q-25 9 -56 9z" />
    <glyph glyph-name="Uhungarumlaut" unicode="&#x170;" horiz-adv-x="647" 
d="M10 573h80v-353q2 -229 253 -230q161 0 203 123q16 50 16 121v339h80v27h-197v-27h80v-345q-1 -207 -161 -208q-101 0 -125 110q-9 41 -9 98v345h80v27h-300v-27zM379 709q20 16 19 42q-1 33 -30 49q-13 7 -27 6t-30 -12q-11 -10 -49 -59q-35 -46 -74 -84l15 -20
q26 14 124 52q38 15 52 26zM562 685q22 13 26 38q2 36 -26 55q-11 8 -22 9q-17 1 -32 -8q-14 -8 -58 -50q-42 -40 -86 -71l12 -23q31 11 133 33q38 9 53 17z" />
    <glyph glyph-name="uhungarumlaut" unicode="&#x171;" horiz-adv-x="562" 
d="M518 26h-34v404h-176v-26h49l-1 -252q-7 -78 -57 -103q-15 -7 -30 -7q-57 0 -67 67q-2 13 -2 27v294h-185v-26h58v-251q2 -162 143 -163q90 0 137 80l6 12l5 -82h178q0 22 -12 25q-5 1 -12 1zM315 579q20 16 19 42q-1 33 -30 49q-13 7 -27 6t-30 -12q-11 -10 -49 -59
q-35 -46 -74 -84l15 -20q26 14 124 52q38 15 52 26zM498 555q22 13 26 38q2 36 -26 55q-11 8 -22 9q-17 1 -32 -8q-14 -8 -58 -50q-42 -40 -86 -71l12 -23q31 11 133 33q38 9 53 17z" />
    <glyph glyph-name="Uogonek" unicode="&#x172;" horiz-adv-x="647" 
d="M10 573h80v-353q2 -229 253 -230q161 0 203 123q16 50 16 121v339h80v27h-197v-27h80v-345q-1 -207 -161 -208q-101 0 -125 110q-9 41 -9 98v345h80v27h-300v-27zM432 -162q-34 2 -35 50q0 46 50 86q20 16 44 26l-1 10q-158 -19 -192 -93q-8 -17 -8 -35q0 -50 61 -68
q22 -6 47 -6q65 1 98 36l-12 17q-28 -23 -52 -23z" />
    <glyph glyph-name="uogonek" unicode="&#x173;" horiz-adv-x="562" 
d="M518 26h-34v404h-176v-26h49l-1 -252q-7 -78 -57 -103q-15 -7 -30 -7q-57 0 -67 67q-2 13 -2 27v294h-185v-26h58v-251q2 -162 143 -163q90 0 137 80l6 12l5 -82h119q-122 -28 -139 -98q-3 -10 -3 -20q0 -50 61 -68q22 -6 47 -6q65 1 98 36l-12 17q-28 -23 -52 -23
q-34 2 -35 50q0 46 50 86q20 16 44 26q0 22 -12 25q-5 1 -12 1z" />
    <glyph glyph-name="Ydieresis" unicode="&#x178;" horiz-adv-x="579" 
d="M451 0q-6 25 -27 27h-58v234l136 284q19 27 50 28q25 6 27 27h-176v-27h80l-135 -277l-146 277h76v27h-280v-27h47l181 -319v-227h-85v-27h310zM293 697q0 41 -36 60q-15 8 -31 8q-42 0 -61 -37q-7 -15 -7 -31q0 -41 37 -59q15 -7 31 -7q39 0 59 34q8 16 8 32zM480 697
q0 41 -37 60q-16 8 -32 8q-39 0 -58 -36q-8 -15 -8 -32q0 -40 36 -59q14 -7 30 -7q42 0 61 35q8 15 8 31z" />
    <glyph glyph-name="Zacute" unicode="&#x179;" horiz-adv-x="552" 
d="M525 0l2 207h-31l-29 -96q-29 -81 -98 -84h-198l350 551v22h-453l-7 -181h30l42 90q31 63 81 64l164 1l-358 -552v-22h505zM410 682q21 16 22 42q0 34 -29 52q-13 8 -27 8q-16 -1 -31 -11q-13 -10 -54 -58q-39 -45 -81 -82l15 -22q29 14 131 47q39 14 54 24z" />
    <glyph glyph-name="zacute" unicode="&#x17a;" horiz-adv-x="419" 
d="M146 27l256 382v21h-360l-7 -149h25l34 74q24 47 66 48h119l-267 -381v-22h385l2 170h-26l-21 -79q-19 -63 -81 -64l3 -1zM309 552q21 16 22 42q0 34 -29 52q-13 8 -27 8q-16 -1 -31 -11q-13 -10 -54 -58q-39 -45 -81 -82l15 -22q29 14 131 47q39 14 54 24z" />
    <glyph glyph-name="Zdotaccent" unicode="&#x17b;" horiz-adv-x="552" 
d="M525 0l2 207h-31l-29 -96q-29 -81 -98 -84h-198l350 551v22h-453l-7 -181h30l42 90q31 63 81 64l164 1l-358 -552v-22h505zM385 691q0 44 -39 65q-17 10 -36 10q-43 0 -65 -39q-9 -17 -9 -36q0 -44 39 -64q17 -9 35 -9q44 0 65 37q10 17 10 36z" />
    <glyph glyph-name="zdotaccent" unicode="&#x17c;" horiz-adv-x="419" 
d="M146 27l256 382v21h-360l-7 -149h25l34 74q24 47 66 48h119l-267 -381v-22h385l2 170h-26l-21 -79q-19 -63 -81 -64l3 -1zM284 561q0 44 -39 65q-17 10 -36 10q-43 0 -65 -39q-9 -17 -9 -36q0 -44 39 -64q17 -9 35 -9q44 0 65 37q10 17 10 36z" />
    <glyph glyph-name="Zcaron" unicode="&#x17d;" horiz-adv-x="552" 
d="M525 0l2 207h-31l-29 -96q-29 -81 -98 -84h-198l350 551v22h-453l-7 -181h30l42 90q31 63 81 64l164 1l-358 -552v-22h505zM312 631q30 0 62 37q7 7 23 27q38 46 65 75l-15 20q-63 -36 -135 -63q-85 34 -137 63l-15 -20q23 -23 84 -96q33 -38 58 -42q5 -1 10 -1z" />
    <glyph glyph-name="zcaron" unicode="&#x17e;" horiz-adv-x="419" 
d="M146 27l256 382v21h-360l-7 -149h25l34 74q24 47 66 48h119l-267 -381v-22h385l2 170h-26l-21 -79q-19 -63 -81 -64l3 -1zM211 501q30 0 62 37q7 7 23 27q38 46 65 75l-15 20q-63 -36 -135 -63q-85 34 -137 63l-15 -20q23 -23 84 -96q33 -38 58 -42q5 -1 10 -1z" />
    <glyph glyph-name="florin" unicode="&#x192;" horiz-adv-x="530" 
d="M308 261q2 32 2 47h132v27h-130q9 177 29 220q15 28 39 29q25 0 32 -36q1 -6 3 -17q7 -49 27 -62q13 -8 31 -8q46 0 59 37q3 9 3 18q0 51 -55 78q-35 16 -79 16q-147 0 -200 -151q-17 -53 -26 -124h-104v-27h101q-3 -26 -5 -80q-7 -219 -14 -273q-16 -123 -64 -124
q-23 0 -29 36q-9 50 -10 54q-14 34 -52 35q-42 0 -55 -37q-3 -11 -3 -21q0 -49 54 -76q34 -17 75 -17q158 0 210 215q22 93 29 241z" />
    <glyph glyph-name="uni0218" unicode="&#x218;" horiz-adv-x="558" 
d="M517 167q0 83 -91 142q-13 7 -105 56q-84 44 -105 87q-10 21 -10 44q0 59 57 78q19 6 40 6q82 0 123 -62q25 -39 26 -93h39v181q-28 0 -33 -19q-1 -7 -1 -16q-83 39 -175 39q-121 0 -182 -63q-39 -41 -39 -97q0 -83 95 -142q12 -8 108 -57q86 -45 107 -87q9 -20 9 -41
q0 -72 -64 -96q-23 -8 -51 -8q-106 0 -149 97q-18 41 -22 94h-39v-212q27 0 32 16q2 10 2 27q77 -51 186 -51q127 0 195 65q47 46 47 112zM365 -119q0 62 -47 79q-13 4 -27 4q-41 0 -60 -38q-8 -16 -8 -33q0 -44 41 -64q8 -3 16 -5q25 -7 26 -25q0 -30 -37 -70l-2 -2l21 -16
q63 68 75 146q2 13 2 24z" />
    <glyph glyph-name="uni0219" unicode="&#x219;" horiz-adv-x="419" 
d="M196 18q67 0 77 48q1 7 1 13q0 51 -64 85q-14 8 -45 21q-75 33 -99 61q-26 30 -26 71q0 85 93 115q39 13 87 13q78 0 122 -28q0 30 18 33q4 1 8 1v-125h-32q-4 91 -99 92q-64 0 -79 -42q-3 -10 -3 -20q0 -43 60 -73q12 -7 40 -19q78 -35 104 -64q30 -34 30 -81
q0 -87 -90 -117q-37 -12 -83 -12q-88 0 -148 31q0 -26 -13 -30q-6 -1 -14 -1v152h34q2 -123 121 -124zM281 -119q0 62 -47 79q-13 4 -27 4q-41 0 -60 -38q-8 -16 -8 -33q0 -44 41 -64q8 -3 16 -5q25 -7 26 -25q0 -30 -37 -70l-2 -2l21 -16q63 68 75 146q2 13 2 24z" />
    <glyph glyph-name="uni021A" unicode="&#x21a;" horiz-adv-x="556" 
d="M443 0q-6 25 -27 27h-68v546h17q72 0 102 -64q6 -14 13 -33l31 -90h30l-4 214h-518l-4 -214h30l31 90q22 64 57 84q24 13 58 13h17v-546h-95v-27h330zM345 -119q0 62 -47 79q-13 4 -27 4q-41 0 -60 -38q-8 -16 -8 -33q0 -44 41 -64q8 -3 16 -5q25 -7 26 -25
q0 -30 -37 -70l-2 -2l21 -16q63 68 75 146q2 13 2 24z" />
    <glyph glyph-name="uni021B" unicode="&#x21b;" horiz-adv-x="361" 
d="M15 399h69v-250q0 -145 120 -159q12 -1 24 -1q77 0 106 50q14 25 22 66l-27 4q-20 -81 -59 -89q-6 -1 -12 -1q-37 0 -45 52q-2 12 -2 25v303h132v26h-132v116l-127 -21v-95h-69v-26zM270 -119q0 62 -47 79q-13 4 -27 4q-41 0 -60 -38q-8 -16 -8 -33q0 -44 41 -64
q8 -3 16 -5q25 -7 26 -25q0 -30 -37 -70l-2 -2l21 -16q63 68 75 146q2 13 2 24z" />
    <glyph glyph-name="circumflex" unicode="&#x2c6;" horiz-adv-x="500" 
d="M375 500l14 19q-27 27 -80 93q-28 35 -52 38q-4 1 -8 1q-28 0 -55 -33q-6 -7 -18 -22q-36 -47 -65 -77l14 -19q52 29 126 58q66 -26 124 -58z" />
    <glyph glyph-name="caron" unicode="&#x2c7;" horiz-adv-x="500" 
d="M251 501q30 0 62 37q7 7 23 27q38 46 65 75l-15 20q-63 -36 -135 -63q-85 34 -137 63l-15 -20q23 -23 84 -96q33 -38 58 -42q5 -1 10 -1z" />
    <glyph glyph-name="uni02C9" unicode="&#x2c9;" horiz-adv-x="500" 
d="M90 540h320v55h-320v-55z" />
    <glyph glyph-name="breve" unicode="&#x2d8;" horiz-adv-x="500" 
d="M254 586q83 0 101 41q3 7 5 15h21q0 -93 -65 -125q-28 -14 -65 -14q-96 0 -123 85q-8 26 -8 54h20q13 -56 114 -56z" />
    <glyph glyph-name="dotaccent" unicode="&#x2d9;" horiz-adv-x="283" 
d="M216 561q0 44 -39 65q-17 10 -36 10q-43 0 -65 -39q-9 -17 -9 -36q0 -44 39 -64q17 -9 35 -9q44 0 65 37q10 17 10 36z" />
    <glyph glyph-name="ring" unicode="&#x2da;" horiz-adv-x="500" 
d="M202 575q1 69 40 70q41 -1 41 -68q-1 -70 -41 -71q-40 1 -40 69zM245 669q-90 0 -114 -59q-6 -16 -6 -33q0 -63 60 -86q24 -9 55 -9q87 0 113 59q7 17 7 37q0 60 -59 82q-25 9 -56 9z" />
    <glyph glyph-name="ogonek" unicode="&#x2db;" horiz-adv-x="500" 
d="M262 -162q-34 2 -35 50q0 46 50 86q20 16 44 26l-1 10q-158 -19 -192 -93q-8 -17 -8 -35q0 -50 61 -68q22 -6 47 -6q65 1 98 36l-12 17q-28 -23 -52 -23z" />
    <glyph glyph-name="tilde" unicode="&#x2dc;" horiz-adv-x="500" 
d="M196 652q30 0 83 -34q44 -28 66 -28q41 2 55 55l21 -3q-7 -94 -61 -122q-16 -8 -34 -8q-30 0 -84 35q-42 27 -62 27q-43 0 -57 -50q0 -3 -1 -5l-20 3q7 95 61 122q16 8 33 8z" />
    <glyph glyph-name="hungarumlaut" unicode="&#x2dd;" horiz-adv-x="500" 
d="M289 579q20 16 19 42q-1 33 -30 49q-14 7 -27 6q-14 -1 -30 -12q-11 -10 -49 -59q-35 -46 -74 -84l15 -20q26 14 124 52q38 15 52 26zM472 555q22 13 26 38q2 36 -26 55q-11 8 -22 9q-17 1 -32 -8q-14 -8 -58 -50q-42 -40 -86 -71l12 -23q31 11 133 33q38 9 53 17z" />
    <glyph glyph-name="pi" unicode="&#x3c0;" horiz-adv-x="573" 
d="M563 75l-23 5q-8 -55 -38 -64q-4 -1 -7 -1q-22 0 -25 45v16v328h71v26h-521v-26h58v-326q0 -44 -35 -50q-10 -2 -23 -2v-26h245q0 23 -13 25q-5 1 -11 1h-36v378h138v-253q0 -151 105 -161q10 -1 19 -1q75 0 93 72q2 7 3 14z" />
    <glyph glyph-name="anusvara" unicode="&#xd82;" horiz-adv-x="355" 
d="M80 188q0 -48 42 -73q22 -13 47 -13q50 0 76 42q12 21 12 44q0 48 -43 73q-21 12 -45 12q-51 0 -77 -42q-12 -20 -12 -43zM28 161q0 69 57 111q37 28 84 28q71 0 113 -57q28 -37 28 -82q0 -69 -57 -111q-38 -27 -84 -27q-71 0 -113 56q-28 37 -28 82z" />
    <glyph glyph-name="visarga" unicode="&#xd83;" horiz-adv-x="242" 
d="M62 108q0 -33 30 -46q10 -4 20 -4q34 0 47 30q4 10 4 20q0 32 -29 46q-11 5 -22 5q-33 0 -46 -31q-4 -10 -4 -20zM30 107q0 46 40 70q20 12 42 12q46 0 70 -40q12 -20 12 -42q0 -46 -40 -70q-20 -12 -42 -12q-46 0 -70 40q-12 20 -12 42zM62 306q0 -34 30 -47
q10 -4 20 -4q32 0 46 29q5 11 5 22q0 33 -31 46q-9 4 -20 4q-33 0 -46 -30q-4 -10 -4 -20zM30 305q0 46 40 70q20 12 42 12q46 0 70 -40q12 -20 12 -42q0 -46 -40 -70q-20 -12 -42 -12q-46 0 -70 40q-12 20 -12 42z" />
    <glyph glyph-name="si_A" unicode="&#xd85;" horiz-adv-x="559" 
d="M397 226q-13 0 -18 2v76q1 55 31 84v-4q1 -25 15 -46q16 -24 16 -54q0 -44 -30 -56q-7 -2 -14 -2zM348 -210h31v214q83 14 132 46v33q-50 -38 -132 -46v160q25 -4 41 -4q64 0 88 43q9 17 9 38q0 45 -46 80q-30 23 -34 30q-2 6 -2 10q1 12 10 16q3 2 8 4l-24 11
q-32 -9 -55 -34q-26 -30 -26 -85v-272h-21q-96 0 -130 66q-14 27 -14 60q0 71 51 102q28 16 68 16h34v5q0 108 -84 134q-21 6 -46 6q-71 0 -95 -38q-7 -12 -7 -25q0 -28 28 -38q7 -2 13 -2q31 1 47 30q12 24 35 27q6 1 11 1q40 0 59 -43q6 -16 7 -33h-107q-108 0 -148 -75
q-17 -32 -17 -71q0 -99 106 -139q57 -21 137 -21q43 0 73 4v-210z" />
    <glyph glyph-name="si_Aa" unicode="&#xd86;" horiz-adv-x="840" 
d="M397 226q-13 0 -18 2v76q1 55 31 84v-4q1 -25 15 -46q16 -24 16 -54q0 -44 -30 -56q-7 -2 -14 -2zM348 -210h31v214q83 14 132 46v33q-50 -38 -132 -46v160q25 -4 41 -4q64 0 88 43q9 17 9 38q0 45 -46 80q-30 23 -34 30q-2 6 -2 10q1 12 10 16q3 2 8 4l-24 11
q-32 -9 -55 -34q-26 -30 -26 -85v-272h-21q-96 0 -130 66q-14 27 -14 60q0 71 51 102q28 16 68 16h34v5q0 108 -84 134q-21 6 -46 6q-71 0 -95 -38q-7 -12 -7 -25q0 -28 28 -38q7 -2 13 -2q31 1 47 30q12 24 35 27q6 1 11 1q40 0 59 -43q6 -16 7 -33h-107q-108 0 -148 -75
q-17 -32 -17 -71q0 -99 106 -139q57 -21 137 -21q43 0 73 4v-210zM548 108q0 -74 60 -100q23 -9 49 -9q106 0 128 128q6 32 6 69q0 169 -100 194q-16 4 -34 4q-60 0 -91 -47q-18 -28 -18 -62q0 -15 1 -22h28q-1 6 -1 15q3 48 34 52q46 -2 46 -134q-1 -131 -46 -132
q-33 3 -34 50q0 10 1 15h-28q-1 -8 -1 -21z" />
    <glyph glyph-name="si_Ae" unicode="&#xd87;" horiz-adv-x="857" 
d="M534 304h200q-70 -75 -93 -109q-61 -87 -61 -177q0 -97 67 -141q35 -21 77 -21q70 1 106 40l-4 20q-26 2 -43 10q-62 29 -75 124q-3 20 -3 38q0 119 61 217q3 4 5 8q2 15 3 18h-240v-27zM397 226q-13 0 -18 2v76q1 55 31 84v-4q1 -25 15 -46q16 -24 16 -54q0 -44 -30 -56
q-7 -2 -14 -2zM348 -210h31v214q83 14 132 46v33q-50 -38 -132 -46v160q25 -4 41 -4q64 0 88 43q9 17 9 38q0 45 -46 80q-30 23 -34 30q-2 6 -2 10q1 12 10 16q3 2 8 4l-24 11q-32 -9 -55 -34q-26 -30 -26 -85v-272h-21q-96 0 -130 66q-14 27 -14 60q0 71 51 102
q28 16 68 16h34v5q0 108 -84 134q-21 6 -46 6q-71 0 -95 -38q-7 -12 -7 -25q0 -28 28 -38q7 -2 13 -2q31 1 47 30q12 24 35 27q6 1 11 1q40 0 59 -43q6 -16 7 -33h-107q-108 0 -148 -75q-17 -32 -17 -71q0 -99 106 -139q57 -21 137 -21q43 0 73 4v-210z" />
    <glyph glyph-name="si_Aae" unicode="&#xd88;" horiz-adv-x="857" 
d="M397 226q-13 0 -18 2v76q1 55 31 84v-4q1 -25 15 -46q16 -24 16 -54q0 -44 -30 -56q-7 -2 -14 -2zM348 -210h31v214q83 14 132 46v33q-50 -38 -132 -46v160q25 -4 41 -4q64 0 88 43q9 17 9 38q0 45 -46 80q-30 23 -34 30q-2 6 -2 10q1 12 10 16q3 2 8 4l-24 11
q-32 -9 -55 -34q-26 -30 -26 -85v-272h-21q-96 0 -130 66q-14 27 -14 60q0 71 51 102q28 16 68 16h34v5q0 108 -84 134q-21 6 -46 6q-71 0 -95 -38q-7 -12 -7 -25q0 -28 28 -38q7 -2 13 -2q31 1 47 30q12 24 35 27q6 1 11 1q40 0 59 -43q6 -16 7 -33h-107q-108 0 -148 -75
q-17 -32 -17 -71q0 -99 106 -139q57 -21 137 -21q43 0 73 4v-210zM532 305h189l-123 -89v-24h152q-87 -52 -121 -91q-47 -54 -47 -119q0 -84 76 -115q32 -12 72 -12q48 0 97 21v27q-72 0 -102 68q-13 31 -13 64q1 98 82 161v22h-147l124 92v21h-239v-26z" />
    <glyph glyph-name="si_I" unicode="&#xd89;" horiz-adv-x="579" 
d="M32 216q0 113 99 170q63 36 147 36q155 0 219 -99q34 -54 34 -129q0 -98 -70 -159q-38 -32 -86 -41q52 -13 54 -67q0 -53 -72 -75q-32 -9 -66 -9q-94 0 -116 53q-6 14 -6 30q0 30 27 35q4 1 7 1q26 -5 30 -25q0 -2 -1 -9q-2 -13 -2 -20q2 -39 63 -40q53 0 60 41q1 5 1 10
q0 53 -63 65q-14 2 -30 2q-3 0 -18 -2v30q12 1 24 1q8 0 23 -1q17 -1 25 -1q87 0 126 70q19 35 19 75q0 84 -70 127q-46 29 -112 29q-126 0 -161 -76q-11 -24 -11 -52q0 -48 42 -80q35 -25 82 -25q65 1 88 27q-15 -12 -40 -12q-45 0 -67 38q-10 16 -10 35q0 48 41 71
q18 9 38 9q65 0 84 -55q5 -16 5 -34q0 -100 -135 -107h-19q-103 0 -153 67q-30 41 -30 96zM232 172q0 -31 29 -44q10 -4 20 -4q31 0 45 28q4 10 4 20q0 31 -29 44q-10 4 -20 4q-31 0 -45 -28q-4 -10 -4 -20z" />
    <glyph glyph-name="si_Ii" unicode="&#xd8a;" horiz-adv-x="515" 
d="M401 457q0 -25 23 -34q7 -2 13 -2q26 0 35 24q2 6 2 12q0 24 -23 34q-7 3 -14 3q-25 0 -34 -25q-2 -6 -2 -12zM373 457q0 39 35 57q14 7 29 7q39 0 57 -35q7 -14 7 -29q0 -39 -35 -57q-14 -7 -29 -7q-39 0 -57 35q-7 14 -7 29zM142 526q0 -26 24 -35q6 -2 12 -2
q24 0 34 23q3 7 3 14q0 25 -25 34q-6 2 -12 2q-25 0 -34 -23q-2 -7 -2 -13zM114 525q0 39 35 57q14 7 29 7q39 0 57 -35q7 -14 7 -29q0 -39 -35 -57q-14 -7 -29 -7q-39 0 -57 35q-7 14 -7 29zM30 208q0 130 131 201q3 2 5 3q63 33 112 94q4 5 36 57q33 50 65 51q30 0 39 -24
q2 -6 2 -10q0 -25 -62 -77q-4 -4 -7 -6q-38 -32 -110 -71q7 1 15 1q100 -1 163 -69q52 -59 52 -138q0 -100 -75 -165q-65 -55 -154 -55q-105 0 -167 75q-45 57 -45 133zM77 250q0 -67 61 -98q36 -17 85 -17q118 0 158 78q15 32 15 71q0 73 -67 103q-33 14 -75 14
q-70 0 -126 -47q-50 -44 -51 -104z" />
    <glyph glyph-name="si_U" unicode="&#xd8b;" horiz-adv-x="635" 
d="M31 97q0 -121 101 -195q82 -59 188 -59q124 0 203 75q66 63 66 149h-31q0 -84 -74 -132q-47 -31 -99 -31q-108 0 -164 78q-38 54 -38 132q0 135 135 147q14 1 29 1h179v8q0 88 -71 129q-39 22 -88 22q-91 0 -104 -50q-2 -8 -2 -15q0 -29 28 -38q9 -2 17 -2q30 1 48 30
q17 28 52 28q41 0 69 -38q15 -22 17 -47h-234q-126 0 -189 -80q-38 -49 -38 -112z" />
    <glyph glyph-name="si_Uu" unicode="&#xd8c;" horiz-adv-x="967" 
d="M31 97q0 -121 101 -195q82 -59 188 -59q124 0 203 75q66 63 66 149h-31q0 -84 -74 -132q-47 -31 -99 -31q-108 0 -164 78q-38 54 -38 132q0 135 135 147q14 1 29 1h179v8q0 88 -71 129q-39 22 -88 22q-91 0 -104 -50q-2 -8 -2 -15q0 -29 28 -38q9 -2 17 -2q30 1 48 30
q17 28 52 28q41 0 69 -38q15 -22 17 -47h-234q-126 0 -189 -80q-38 -49 -38 -112zM569 313q0 -66 44 -94q20 -12 43 -12q75 4 77 74q-1 37 -36 56v7q2 34 34 36q36 0 48 -80q4 -30 4 -68q0 -152 -44 -168q-7 -2 -14 -2q-40 0 -45 47q-1 7 -1 13q0 16 3 31h-27q-4 -17 -4 -36
q0 -81 61 -109q23 -10 53 -10q109 0 143 118q13 44 13 99q0 114 -59 170q-39 37 -96 37q-67 0 -90 -47q-7 -16 -7 -34q0 -8 1 -12q19 -20 19 -46q-2 -41 -38 -42q-36 0 -48 43q-4 14 -4 30q1 68 42 104h-36q-36 -40 -36 -105z" />
    <glyph glyph-name="si_vocalicR" unicode="&#xd8d;" horiz-adv-x="873" 
d="M601 243v-7h26v4q0 82 46 91q5 1 9 1q27 0 33 -45q4 -26 4 -72q-22 -1 -53 -13q-64 -28 -65 -98q0 -51 31 -83q22 -22 50 -22q16 0 37 14q7 4 11 4q10 -2 15 -14h73q-1 7 -1 19t6 60q10 82 10 116q0 157 -88 182q-16 4 -32 4q-82 0 -105 -85q-7 -25 -7 -56zM632 104
q1 59 57 77q27 7 30 7v-9v-25q-1 -26 -1 -43q0 -64 8 -70q-4 0 -8 -2q-21 -10 -34 -10q-39 0 -50 52q-2 12 -2 23zM30 150q0 -73 54 -118q41 -33 95 -33q93 1 127 81q32 -79 124 -80q103 0 144 76q20 37 20 86q0 72 -50 113q-13 10 -26 16q19 11 26 39q2 6 2 12q0 62 -68 77
q-16 3 -33 3q-76 0 -107 -68q-13 -32 -13 -70v-12q48 9 95 9q106 -2 108 -69q0 -56 -70 -71q-20 -4 -44 -4q-93 1 -94 56v16h-26v-16q-2 -55 -94 -56q-76 0 -98 46q-6 13 -6 25q0 58 70 70q15 3 31 3q46 0 89 -8v16q0 87 -62 119q-27 13 -61 13q-65 0 -92 -37
q-11 -16 -11 -33q0 -32 29 -37q5 -1 8 -1q35 1 45 31q9 29 34 35q8 1 16 1q32 0 52 -35q10 -18 10 -39v-3q-28 6 -55 6q-124 0 -159 -97q-10 -29 -10 -62zM356 303q6 65 69 72q7 1 14 1q52 0 63 -30q2 -6 2 -12q-1 -20 -14 -34q-28 9 -75 9q-37 0 -59 -6z" />
    <glyph glyph-name="si_vocalicRr" unicode="&#xd8e;" horiz-adv-x="1113" 
d="M601 243v-7h26v4q0 82 46 91q5 1 9 1q27 0 33 -45q4 -26 4 -72q-22 -1 -53 -13q-64 -28 -65 -98q0 -51 31 -83q22 -22 50 -22q16 0 37 14q7 4 11 4q10 -2 15 -14h73q-1 7 -1 19t6 60q10 82 10 116q0 157 -88 182q-16 4 -32 4q-82 0 -105 -85q-7 -25 -7 -56zM632 104
q1 59 57 77q27 7 30 7v-9v-25q-1 -26 -1 -43q0 -64 8 -70q-4 0 -8 -2q-21 -10 -34 -10q-39 0 -50 52q-2 12 -2 23zM847 243v-7h26v4q0 82 46 91q5 1 9 1q27 0 33 -45q4 -26 4 -72q-22 -1 -53 -13q-64 -28 -65 -98q0 -51 31 -83q22 -22 50 -22q16 0 37 14q7 4 11 4
q10 -2 15 -14h73q-1 7 -1 19t6 60q10 82 10 116q0 157 -88 182q-16 4 -32 4q-82 0 -105 -85q-7 -25 -7 -56zM878 104q1 59 57 77q27 7 30 7v-9v-25q-1 -26 -1 -43q0 -64 8 -70q-4 0 -8 -2q-21 -10 -34 -10q-39 0 -50 52q-2 12 -2 23zM30 150q0 -73 54 -118q41 -33 95 -33
q93 1 127 81q32 -79 124 -80q103 0 144 76q20 37 20 86q0 72 -50 113q-13 10 -26 16q19 11 26 39q2 6 2 12q0 62 -68 77q-16 3 -33 3q-76 0 -107 -68q-13 -32 -13 -70v-12q48 9 95 9q106 -2 108 -69q0 -56 -70 -71q-20 -4 -44 -4q-93 1 -94 56v16h-26v-16q-2 -55 -94 -56
q-76 0 -98 46q-6 13 -6 25q0 58 70 70q15 3 31 3q46 0 89 -8v16q0 87 -62 119q-27 13 -61 13q-65 0 -92 -37q-11 -16 -11 -33q0 -32 29 -37q5 -1 8 -1q35 1 45 31q9 29 34 35q8 1 16 1q32 0 52 -35q10 -18 10 -39v-3q-28 6 -55 6q-124 0 -159 -97q-10 -29 -10 -62zM356 303
q6 65 69 72q7 1 14 1q52 0 63 -30q2 -6 2 -12q-1 -20 -14 -34q-28 9 -75 9q-37 0 -59 -6z" />
    <glyph glyph-name="si_vocalicL" unicode="&#xd8f;" horiz-adv-x="800" 
d="M626 52q0 18 18 22q3 1 6 1q19 -5 23 -23q0 -18 -17 -23q-3 -1 -6 -1q-18 0 -23 18q-1 3 -1 6zM692 78q-13 24 -42 24q-8 0 -11 -1q21 35 21 81q-1 79 -59 114q26 20 26 50q-1 24 -15 42q-11 20 -11 34q1 16 18 17q55 0 84 -84q19 -54 19 -121q0 -95 -26 -149
q-2 -4 -4 -7zM568 435q1 -13 5 -19q-23 7 -45 7q-91 0 -111 -69q-4 -16 -4 -34q0 -16 3 -32q39 7 68 7q90 0 107 -45q3 -9 3 -17q0 -69 -114 -89q-37 -7 -81 -7q-192 0 -205 78q-1 5 -1 11q0 45 63 61q25 6 55 6q19 0 53 -4q4 17 4 37q0 85 -89 96q-12 1 -25 1q-21 0 -42 -5
q5 6 5 17q-2 34 -47 35q-74 0 -113 -89q-27 -62 -27 -147q0 -108 37 -180q28 -52 68 -53q34 0 47 30q4 11 4 21v4q71 -56 213 -56q130 1 200 56v-4q0 -34 31 -47q10 -4 20 -4q61 0 90 113q15 59 15 120q0 135 -61 200q-35 36 -79 36q-46 -1 -47 -35zM112 52q5 19 23 23
q18 0 23 -17q1 -3 1 -6q0 -18 -18 -23q-3 -1 -6 -1q-18 0 -22 18q-1 3 -1 6zM130 179q0 -43 18 -79q-9 2 -13 2q-30 -1 -42 -24q-28 56 -30 156q0 110 44 170q27 34 60 35q17 -1 18 -13q-1 -16 -16 -31l2 1q-17 -17 -18 -38q6 -36 41 -40q37 1 47 32q12 30 48 31
q35 0 45 -34q2 -9 2 -19v-5q-1 -4 -1 -6q-25 2 -34 2q-118 0 -157 -75q-14 -29 -14 -65zM446 328q0 50 50 62q12 3 25 3q58 0 68 -38q1 -6 1 -12q-1 -22 -15 -35q-33 12 -82 12q-21 0 -46 -3q-1 5 -1 11z" />
    <glyph glyph-name="si_vocalicLL" unicode="&#xd90;" horiz-adv-x="1174" 
d="M626 52q0 18 18 22q3 1 6 1q19 -5 23 -23q0 -18 -17 -23q-3 -1 -6 -1q-18 0 -23 18q-1 3 -1 6zM692 78q-13 24 -42 24q-8 0 -11 -1q21 35 21 81q-1 79 -59 114q26 20 26 50q-1 24 -15 42q-11 20 -11 34q1 16 18 17q55 0 84 -84q19 -54 19 -121q0 -95 -26 -149
q-2 -4 -4 -7zM568 435q1 -13 5 -19q-23 7 -45 7q-91 0 -111 -69q-4 -16 -4 -34q0 -16 3 -32q39 7 68 7q90 0 107 -45q3 -9 3 -17q0 -69 -114 -89q-37 -7 -81 -7q-192 0 -205 78q-1 5 -1 11q0 45 63 61q25 6 55 6q19 0 53 -4q4 17 4 37q0 85 -89 96q-12 1 -25 1q-21 0 -42 -5
q5 6 5 17q-2 34 -47 35q-74 0 -113 -89q-27 -62 -27 -147q0 -108 37 -180q28 -52 68 -53q34 0 47 30q4 11 4 21v4q71 -56 213 -56q130 1 200 56v-4q0 -34 31 -47q10 -4 20 -4q61 0 90 113q15 59 15 120q0 135 -61 200q-35 36 -79 36q-46 -1 -47 -35zM112 52q5 19 23 23
q18 0 23 -17q1 -3 1 -6q0 -18 -18 -23q-3 -1 -6 -1q-18 0 -22 18q-1 3 -1 6zM130 179q0 -43 18 -79q-9 2 -13 2q-30 -1 -42 -24q-28 56 -30 156q0 110 44 170q27 34 60 35q17 -1 18 -13q-1 -16 -16 -31l2 1q-17 -17 -18 -38q6 -36 41 -40q37 1 47 32q12 30 48 31
q35 0 45 -34q2 -9 2 -19v-5q-1 -4 -1 -6q-25 2 -34 2q-118 0 -157 -75q-14 -29 -14 -65zM446 328q0 50 50 62q12 3 25 3q58 0 68 -38q1 -6 1 -12q-1 -22 -15 -35q-33 12 -82 12q-21 0 -46 -3q-1 5 -1 11zM778 313q0 -66 44 -94q20 -12 43 -12q75 4 77 74q-1 37 -36 56v7
q2 34 34 36q36 0 48 -80q4 -30 4 -68q0 -152 -44 -168q-7 -2 -14 -2q-40 0 -45 47q-1 7 -1 13q0 16 3 31h-27q-4 -17 -4 -36q0 -81 61 -109q23 -10 53 -10q109 0 143 118q13 44 13 99q0 114 -59 170q-39 37 -96 37q-67 0 -90 -47q-7 -16 -7 -34q0 -8 1 -12q19 -20 19 -46
q-2 -41 -38 -42q-36 0 -48 43q-4 14 -4 30q1 68 42 104h-36q-36 -40 -36 -105z" />
    <glyph glyph-name="si_E" unicode="&#xd91;" horiz-adv-x="581" 
d="M44 161q0 -109 118 -146q48 -15 108 -15q157 0 225 106q37 59 37 133q0 88 -42 165q-5 8 -9 16q-44 76 -121 135q-23 17 -43 28q-41 -48 -41 -114q0 -72 48 -103q22 -15 50 -15q61 1 86 49q24 -42 24 -106q0 -103 -101 -140q-47 -17 -111 -17q-165 2 -167 65q1 28 27 45
q37 22 96 22h60v14q0 85 -57 120q-28 18 -66 18q-68 0 -94 -38q-9 -15 -9 -32q0 -29 28 -37q5 -1 10 -1q33 1 44 34q8 24 33 31q6 2 11 2q40 0 59 -39q8 -19 8 -40v-6h-239v-33q33 6 110 7h1q-28 -7 -51 -27q-32 -29 -32 -81zM310 477q0 34 16 67q70 -52 112 -113
q-18 -32 -53 -35q-48 0 -67 43q-8 17 -8 38z" />
    <glyph glyph-name="si_Ee" unicode="&#xd92;" horiz-adv-x="581" 
d="M458 505v129q54 -36 65 -53t11 -36q0 -36 -30 -45q-7 -2 -14 -2q-18 0 -32 7zM44 161q0 -109 118 -146q48 -15 108 -15q157 0 225 106q37 59 37 133q0 68 -28 123q-9 17 -23 41q-19 29 -23 35v41q20 -9 44 -9q48 0 68 39q8 15 8 33q0 56 -58 89q-11 6 -35 16
q-39 19 -55 31v-206q-56 64 -113 94q-41 -48 -41 -115q0 -72 48 -103q22 -15 50 -15q61 1 86 50q22 -37 24 -75v-14q0 -103 -101 -140q-47 -17 -111 -17q-165 2 -167 65q1 28 27 45q37 22 96 22h54v14q0 89 -63 120q-26 13 -59 13q-68 0 -91 -41q-7 -14 -7 -30q0 -29 28 -36
q5 -1 10 -1q33 1 44 33q8 24 33 31q6 2 11 2q39 0 55 -41q6 -15 6 -32v-6h-233v-33q33 6 110 7h1q-28 -7 -51 -27q-32 -29 -32 -81zM310 459q0 34 16 68q69 -51 112 -114q-17 -32 -53 -34q-48 0 -68 43q-7 17 -7 37z" />
    <glyph glyph-name="si_Ai" unicode="&#xd93;" horiz-adv-x="1150" 
d="M615 161q0 -109 118 -146q48 -15 108 -15q157 0 225 106q37 59 37 133q0 88 -42 165q-5 8 -9 16q-44 76 -121 135q-23 17 -43 28q-41 -48 -41 -114q0 -72 48 -103q22 -15 50 -15q61 1 86 49q24 -42 24 -106q0 -103 -101 -140q-47 -17 -111 -17q-165 2 -167 65q1 28 27 45
q37 22 96 22h60v14q0 85 -57 120q-28 18 -66 18q-68 0 -94 -38q-9 -15 -9 -32q0 -29 28 -37q5 -1 10 -1q33 1 44 34q8 24 33 31q6 2 11 2q40 0 59 -39q8 -19 8 -40v-6h-239v-33q33 6 110 7h1q-28 -7 -51 -27q-32 -29 -32 -81zM881 477q0 34 16 67q70 -52 112 -113
q-18 -32 -53 -35q-48 0 -67 43q-8 17 -8 38zM215 270q0 28 31 41q12 4 23 4q35 0 49 -28q4 -9 4 -17q0 -29 -30 -41q-11 -5 -23 -5q-35 0 -49 28q-5 8 -5 18zM32 207q0 -108 87 -167q61 -40 144 -40q130 0 187 80q29 42 29 93q0 104 -89 149q-47 24 -107 24q-66 0 -92 -42
q-10 -16 -10 -35q0 -42 45 -64q21 -10 43 -10q48 0 74 36q13 18 13 38q-1 28 -20 46q54 -12 68 -57q3 -11 3 -20q0 -64 -68 -91q-33 -13 -76 -13q-100 0 -141 64q-18 28 -18 60q0 71 74 109q50 25 116 25q117 0 190 -77q45 -49 56 -114h30q-10 108 -105 172q-75 49 -171 49
q-119 0 -196 -70q-65 -60 -66 -145z" />
    <glyph glyph-name="si_O" unicode="&#xd94;" horiz-adv-x="621" 
d="M268 353q0 30 28 42q8 3 17 3q30 0 42 -28q3 -8 3 -17q0 -30 -28 -42q-8 -3 -17 -3q-30 0 -42 28q-3 8 -3 17zM29 219q0 -99 51 -164q44 -54 111 -55q78 1 107 54q20 -49 87 -54h11q125 0 165 133q15 52 15 115q0 153 -89 242q-77 75 -194 75q-148 0 -223 -98
q-5 -6 -9 -12h33q61 74 159 83q19 2 38 2q133 0 194 -101q34 -56 34 -124q0 -126 -68 -165q-25 -14 -57 -14q-70 0 -81 49q-1 7 -1 14v4h-28v-3q-2 -64 -85 -65q-75 0 -109 63q-18 33 -18 74q0 60 30 99q18 22 40 23q24 -2 24 -31v-32q0 -80 72 -103q23 -8 51 -8
q76 0 107 51q14 23 14 51q0 67 -50 92q-21 10 -46 10q-53 0 -71 -42q-6 -15 -6 -30q0 -42 35 -64q18 -10 39 -10q47 0 66 39q1 4 2 6q1 -3 1 -5q0 -48 -54 -63q-18 -5 -38 -5q-71 0 -88 51q-4 14 -4 28v33q-1 38 -18 51q-13 8 -33 8q-61 0 -94 -82q-22 -53 -22 -120z" />
    <glyph glyph-name="si_Oo" unicode="&#xd95;" horiz-adv-x="621" 
d="M141 525q0 20 71 31q32 5 65 5q194 -1 238 -146q-81 92 -243 92q-58 0 -116 -11q3 3 3 7q0 5 -10 11q-7 6 -8 11zM41 430q107 50 229 50q169 0 227 -100q22 -40 23 -90q0 -99 -60 -137q-29 -17 -66 -17q-70 0 -81 49q-1 7 -1 14v4h-28v-3q-2 -64 -85 -65q-75 0 -109 63
q-18 33 -18 74q0 60 30 99q18 22 40 23q24 -2 24 -31v-32q0 -80 72 -103q23 -8 51 -8q76 0 107 51q14 23 14 51q0 67 -50 92q-21 10 -46 10q-53 0 -71 -42q-6 -15 -6 -30q0 -42 35 -64q18 -10 39 -10q47 0 66 39q1 4 2 6q1 -3 1 -5q0 -48 -54 -63q-18 -5 -38 -5
q-71 0 -88 51q-4 14 -4 28v33q-1 38 -18 51q-13 8 -33 8q-61 0 -94 -82q-22 -53 -22 -120q0 -99 51 -164q44 -54 111 -55q78 1 107 54q20 -49 87 -54h11q124 0 164 131q15 51 16 113v2v2q0 58 -17 100q-15 161 -128 228q-67 38 -160 38q-108 0 -158 -45q-19 -19 -20 -36
q0 -15 19 -27q8 -6 9 -10q0 -6 -61 -27q-12 -4 -19 -7v-32zM268 353q0 30 28 42q8 3 17 3q30 0 42 -28q3 -8 3 -17q0 -30 -28 -42q-8 -3 -17 -3q-30 0 -42 28q-3 8 -3 17z" />
    <glyph glyph-name="si_Au" unicode="&#xd96;" horiz-adv-x="1009" 
d="M268 353q0 30 28 42q8 3 17 3q30 0 42 -28q3 -8 3 -17q0 -30 -28 -42q-8 -3 -17 -3q-30 0 -42 28q-3 8 -3 17zM29 219q0 -99 51 -164q44 -54 111 -55q78 1 107 54q20 -49 87 -54h11q125 0 165 133q15 52 15 115q0 153 -89 242q-77 75 -194 75q-148 0 -223 -98
q-5 -6 -9 -12h33q61 74 159 83q19 2 38 2q133 0 194 -101q34 -56 34 -124q0 -126 -68 -165q-25 -14 -57 -14q-70 0 -81 49q-1 7 -1 14v4h-28v-3q-2 -64 -85 -65q-75 0 -109 63q-18 33 -18 74q0 60 30 99q18 22 40 23q24 -2 24 -31v-32q0 -80 72 -103q23 -8 51 -8
q76 0 107 51q14 23 14 51q0 67 -50 92q-21 10 -46 10q-53 0 -71 -42q-6 -15 -6 -30q0 -42 35 -64q18 -10 39 -10q47 0 66 39q1 4 2 6q1 -3 1 -5q0 -48 -54 -63q-18 -5 -38 -5q-71 0 -88 51q-4 14 -4 28v33q-1 38 -18 51q-13 8 -33 8q-61 0 -94 -82q-22 -53 -22 -120z
M610 313q0 -66 44 -94q20 -12 43 -12q75 4 77 74q-1 37 -36 56v7q2 34 34 36q36 0 48 -80q4 -30 4 -68q0 -152 -44 -168q-7 -2 -14 -2q-40 0 -45 47q-1 7 -1 13q0 16 3 31h-27q-4 -17 -4 -36q0 -81 61 -109q23 -10 53 -10q109 0 143 118q13 44 13 99q0 114 -59 170
q-39 37 -96 37q-67 0 -90 -47q-7 -16 -7 -34q0 -8 1 -12q19 -20 19 -46q-2 -41 -38 -42q-36 0 -48 43q-4 14 -4 30q1 68 42 104h-36q-36 -40 -36 -105z" />
    <glyph glyph-name="si_Ka" unicode="&#xd9a;" horiz-adv-x="728" 
d="M21 21l27 -10q6 59 37 60q12 0 28 -23q24 -35 52 -44q16 -5 34 -5q63 1 90 63q31 -63 99 -63q79 0 106 72q9 25 9 52q0 115 -96 162q-48 22 -109 22q-53 0 -89 -10q51 43 141 43q112 0 177 -68q56 -58 56 -152q0 -81 -43 -90q-5 -1 -10 -1q-19 1 -38 10v-27
q20 -13 48 -13q88 1 126 94q19 45 19 95q0 114 -82 181q-66 55 -161 55q-113 0 -207 -73q-12 -9 -21 -18q1 9 1 17q0 46 -43 65q-17 8 -39 8q-57 0 -88 -42q-17 -22 -17 -49q0 -31 26 -40q8 -2 16 -2q28 1 40 25q3 7 9 32q1 4 2 7q7 22 33 23q33 -2 34 -33q-1 -24 -21 -47
q-43 -45 -59 -67q-1 -2 -2 -3q-50 -69 -76 -160q-6 -25 -9 -46zM89 140q18 35 39 67q25 35 48 55q37 18 118 18q107 0 133 -55q6 -13 6 -26q0 -41 -37 -57q-13 -5 -28 -5q-50 0 -61 32q-6 16 -6 41v1h-28v-2q0 -59 -38 -69q-12 -3 -28 -3q-19 0 -52 13q-15 6 -29 6
q-18 -1 -37 -16z" />
    <glyph glyph-name="si_Kha" unicode="&#xd9b;" horiz-adv-x="615" 
d="M91 71q0 -27 26 -39q9 -3 17 -3q28 0 39 26q3 8 3 16q0 28 -25 39q-9 4 -17 4q-28 0 -39 -26q-4 -9 -4 -17zM31 179q0 125 92 180q48 28 111 28q90 0 139 -55q30 -35 30 -80q0 -13 -2 -25.5t-4.5 -21t-6.5 -18t-6.5 -13.5t-7.5 -10l-4 -7q4 1 9 1q13 0 26 -14
q11 -11 27 -11q63 0 81 105q5 34 5 73q0 118 -75 190q-64 60 -158 60q-130 -1 -190 -102h-35q71 127 229 128q132 0 211 -98q68 -85 68 -210q0 -126 -54 -210q-46 -68 -110 -69q-37 0 -66 33q-18 19 -27 20q-21 0 -75 -72q-2 -1 -2 -2l-39 3q7 7 34 40q29 38 48 60
q60 72 60 113q-2 73 -109 74q-86 0 -133 -54q-29 -34 -29 -78q0 -22 3 -33q13 35 53 40q6 1 10 1q48 0 66 -40q7 -16 7 -33q0 -40 -34 -62q-17 -11 -35 -11q-73 0 -98 101q-9 37 -9 79z" />
    <glyph glyph-name="si_Ga" unicode="&#xd9c;" horiz-adv-x="621" 
d="M33 202q0 -104 63 -163q45 -41 107 -41q84 0 122 63q19 32 19 72q0 76 -48 100q-15 7 -32 7q-10 0 -20 -5q9 47 57 67q24 10 53 10q109 0 128 -101q4 -19 4 -40q0 -84 -54 -123q-32 -22 -78 -22q-9 0 -24 2v-27q20 -2 30 -2q111 0 171 82q41 57 41 131q0 108 -64 167
q-45 42 -108 42q-110 0 -160 -112q-24 -53 -29 -120h27q0 8 2 20q11 6 23 6q22 -5 24 -28q0 -35 -46 -46q-16 -4 -35 -4q-70 0 -103 53q-17 28 -17 62q0 68 48 112q36 32 83 32h11v25h-13q-91 0 -143 -81q-39 -60 -39 -138z" />
    <glyph glyph-name="si_Gha" unicode="&#xd9d;" horiz-adv-x="661" 
d="M50 150q0 -72 53 -117q40 -33 92 -33q37 0 81 12q4 6 4 34q0 14 -10 52q-4 17 -4 33q2 63 58 64q58 -2 59 -64q0 -15 -11 -54q-4 -16 -4 -31q0 -27 4 -34q45 -12 81 -12q94 0 136 69q24 40 24 93q0 69 -51 112q-12 9 -25 16q27 17 28 53q0 57 -60 74q-18 5 -38 5
q-78 0 -109 -68q-14 -32 -14 -70v-6q1 -4 1 -6q42 9 93 9q94 0 114 -51q4 -11 4 -21q0 -50 -50 -68q-17 -6 -35 -6q-45 0 -58 11q0 12 -4 23q-15 52 -74 57q-6 1 -11 1q-62 0 -82 -50q-2 -5 -3 -8q-4 -12 -4 -23q-14 -11 -57 -11q-51 0 -65 38q-4 11 -4 23q0 41 50 64
q28 13 60 13h87v13q0 93 -66 124q-25 11 -57 11q-68 0 -94 -38q-9 -15 -9 -32q0 -33 30 -38q4 -1 8 -1q35 1 47 35q13 30 43 31q40 0 57 -39q7 -16 7 -34q0 -1 -1 -4h-266v-34q23 4 127 6q-81 -33 -82 -123zM376 303q9 77 84 78q42 0 59 -26q5 -9 5 -19q-1 -24 -15 -36
q-26 9 -74 9q-39 0 -59 -6z" />
    <glyph glyph-name="si_Nga" unicode="&#xd9e;" horiz-adv-x="602" 
d="M87 338q0 -30 29 -43q11 -4 22 -4q33 0 47 28q4 10 4 19q0 30 -29 43q-11 4 -22 4q-33 0 -47 -28q-4 -10 -4 -19zM45 457q88 111 229 111q120 0 202 -91q81 -91 81 -223q0 -151 -66 -218q-37 -36 -85 -36q-59 0 -95 36q-9 9 -20 22q-47 -57 -107 -58q-78 0 -115 62
q-19 34 -19 75q0 68 59 100q30 16 66 16q18 0 50 -3q31 -3 48 -3q59 2 60 55q0 62 -70 88q-27 10 -54 10q-14 0 -29 -2q36 -21 37 -61q0 -38 -35 -60q-21 -12 -44 -12q-44 0 -68 36q-11 18 -11 37q0 58 77 78q30 8 67 8q103 0 143 -65q17 -27 17 -60q0 -59 -52 -76
q-17 -5 -37 -5t-47 3q-29 4 -50 4q-53 0 -61 -34q-1 -4 -1 -7q0 -34 48 -44q15 -3 33 -3q80 2 81 49v5h27v-5q4 -48 73 -49q79 0 101 100q7 32 7 71q0 98 -61 167q-60 67 -153 67q-116 -1 -193 -85h-33z" />
    <glyph glyph-name="si_Nnga" unicode="&#xd9f;" horiz-adv-x="731" 
d="M147 202q0 -104 63 -163q45 -41 107 -41q84 0 122 63q19 32 19 72q0 76 -48 100q-15 7 -32 7q-10 0 -20 -5q9 45 56 66q25 11 55 11q109 0 128 -101q4 -19 4 -40q0 -83 -54 -122q-32 -23 -79 -23q-9 0 -24 2v-27q20 -2 31 -2q111 0 171 82q41 57 41 131q0 108 -64 167
q-45 42 -108 42q-109 0 -160 -111q-25 -53 -30 -121h28q0 14 1 20q11 6 23 6q22 -5 24 -28q0 -35 -46 -46q-16 -4 -35 -4q-70 0 -103 53q-17 28 -17 62q0 68 48 112q36 32 83 32h11v25h-6q-50 2 -103 2q-150 0 -193 -117q-14 -40 -14 -90q0 -117 63 -184q20 -21 43 -32v33
q-74 67 -74 180q1 179 185 184q-73 -46 -91 -144q-5 -25 -5 -51z" />
    <glyph glyph-name="si_Ca" unicode="&#xda0;" 
d="M62 161q0 -109 118 -146q48 -15 108 -15q164 0 234 114q40 65 40 154q0 135 -85 220q-75 75 -181 75q-141 -1 -214 -104h34q68 79 180 79q109 0 169 -87q40 -58 40 -130q0 -131 -115 -170q-44 -14 -99 -14q-150 0 -165 54q-1 6 -1 11q2 30 32 46q38 20 108 20h47v15
q0 109 -84 132q-21 6 -44 6q-68 0 -94 -38q-9 -15 -9 -32q0 -32 28 -38q4 -1 9 -1q35 1 46 35q12 32 51 33q35 0 53 -37q9 -19 9 -42v-6h-264v-34q31 6 129 7q-29 -10 -47 -26q-33 -29 -33 -81z" />
    <glyph glyph-name="si_Cha" unicode="&#xda1;" 
d="M462 284q-38 18 -93 20q3 53 17 94h7q82 0 95 -72q2 -13 2 -26q0 -12 -5 -30q-12 8 -23 14zM302 303q-1 5 -1 13q1 54 49 74q-9 -48 -10 -85q-24 0 -38 -2zM32 166q0 -118 143 -153q52 -13 116 -13q148 0 211 71q34 39 34 93q-1 49 -27 84q11 26 11 54q0 78 -63 110
q-27 13 -60 13q15 31 35 54q28 34 84 51q34 11 41 24q3 7 3 16q0 26 -30 32q-6 1 -12 1q-52 -1 -94 -47q-46 -54 -67 -135q-79 -18 -85 -99v-10q0 -18 5 -36q34 3 63 4q3 -91 73 -98h10q34 1 56 21q-6 -69 -194 -69q-171 0 -192 63q-2 7 -2 15q0 36 46 55q34 14 87 14
q9 0 24 -2q4 17 4 39q0 76 -64 97q-20 7 -43 7q-61 0 -84 -38q-9 -15 -9 -32q0 -29 27 -37q7 -2 12 -2q29 0 48 37q1 2 1 3q12 22 39 22q37 0 42 -42q1 -6 1 -11q0 -6 -2 -18q-5 1 -17 1q-107 0 -151 -69q-20 -32 -20 -70zM425 209q-54 2 -56 70q78 -4 102 -42
q-20 -27 -46 -28z" />
    <glyph glyph-name="si_Ja" unicode="&#xda2;" 
d="M429 304q-34 0 -44 38q-2 9 -2 19q0 20 4 34q6 1 18 1q62 0 72 -38q1 -6 1 -11q0 -32 -33 -41q-8 -2 -16 -2zM319 302q-3 14 -3 24q1 47 39 62v-13q-1 -10 -1 -15q1 -34 19 -57q-10 1 -25 1q-14 0 -29 -2zM32 166q0 -118 143 -153q52 -13 116 -13q148 0 211 71
q34 39 34 93q-1 84 -74 119q44 17 46 62q0 54 -61 73q-19 6 -38 6h-13q20 47 57 71q8 6 70 41q31 19 32 37q-2 30 -34 31q-35 0 -78 -38l-3 -3q-60 -57 -80 -144q-73 -20 -74 -96q0 -23 7 -45q43 3 54 3q120 -6 127 -66q-5 -77 -189 -78q-191 1 -192 73q3 69 131 70
q9 0 32 -2q4 17 4 40q0 72 -62 96q-22 8 -48 8q-61 0 -85 -36q-10 -16 -10 -34q0 -34 31 -39q5 -1 9 -1q29 2 45 34q15 30 43 31q38 0 45 -42q1 -7 1 -12q0 -13 -1 -19q-10 1 -25 1q-107 0 -151 -69q-20 -32 -20 -70z" />
    <glyph glyph-name="si_Jha" unicode="&#xda3;" horiz-adv-x="1061" 
d="M89 140q18 35 39 67q25 35 48 55q37 18 118 18q107 0 133 -55q6 -13 6 -26q0 -41 -37 -57q-13 -5 -28 -5q-50 0 -61 32q-6 16 -6 41v1h-28v-2q0 -59 -38 -69q-12 -3 -28 -3q-19 0 -52 13q-15 6 -29 6q-18 -1 -37 -16zM298 307q-51 0 -87 -10q95 82 205 94q22 2 44 2
q60 0 124 -17q-64 -25 -95 -99q-10 -25 -14 -51q-54 80 -177 81zM21 21l27 -10q6 59 37 60q12 0 28 -23q24 -35 52 -44q16 -5 34 -5q63 1 90 63q31 -63 99 -63q77 0 104 68q3 7 5 14q43 -80 128 -81q64 1 110 58q45 -57 117 -58q108 0 147 131q16 56 16 124q0 144 -93 234
q-80 77 -191 77q-146 -1 -228 -109h33q77 84 191 84t179 -93q47 -68 47 -151q-3 -157 -111 -160q-80 0 -90 66q-1 9 -1 17v23h-30v-23q0 -75 -79 -82q-7 -1 -14 -1q-80 0 -99 66q-4 16 -4 33q0 66 48 103q32 24 73 24h9v26q-113 32 -202 32q-109 0 -200 -58q-22 -14 -39 -30
q1 9 1 17q0 46 -43 65q-17 8 -39 8q-57 0 -88 -42q-17 -22 -17 -49q0 -31 26 -40q8 -2 16 -2q28 1 40 25q3 7 9 32q1 4 2 7q7 22 33 23q32 -2 33 -33q-1 -25 -20 -47q-43 -45 -59 -67q-1 -2 -2 -3q-50 -69 -76 -160q-6 -25 -9 -46z" />
    <glyph glyph-name="si_Nya" unicode="&#xda4;" horiz-adv-x="1000" 
d="M211 140q18 35 39 67q25 35 48 55q37 18 118 18q107 0 133 -55q6 -13 6 -26q0 -41 -37 -57q-13 -5 -28 -5q-50 0 -61 32q-6 16 -6 41v1h-27v-2q0 -60 -40 -69q-12 -3 -27 -3q-19 0 -52 13q-15 6 -29 6q-18 -1 -37 -16zM143 21l27 -10q6 59 37 60q12 0 28 -23
q24 -35 52 -44q16 -5 34 -5q63 1 90 63q31 -63 99 -63q76 0 103 66q2 4 3 7q53 -73 171 -73q47 0 79 9q-62 -62 -73 -105q-5 -18 -5 -36q0 -73 58 -97q24 -10 53 -10q27 0 59 8v31q-72 24 -72 111q1 82 70 163l-26 19q-40 -46 -80 -49h-13q-50 0 -78 48q-20 33 -20 78
q0 97 89 112q18 3 40 3h61q-20 107 -116 132q-9 3 -17 4q-49 12 -136 12q-103 0 -180 -25q-82 -26 -144 -74q1 9 1 17q0 46 -43 65q-16 7 -35 8q-12 1 -26 1q-148 0 -192 -115q-15 -41 -15 -93q0 -117 63 -184q20 -21 43 -32v33q-74 67 -74 180q0 124 87 166q14 6 28 10
q-23 -27 -23 -57q0 -31 26 -40q8 -2 16 -2q28 1 40 25q3 7 9 32q1 4 2 7q7 22 33 23q32 -2 33 -33q-1 -25 -20 -47q-40 -42 -60 -70q-51 -71 -77 -161q-7 -25 -9 -45zM420 307q-46 0 -83 -8q94 68 187 89q65 14 134 14q18 0 28 -1q-19 -17 -20 -39q0 -27 28 -35q7 -2 14 -2
q33 1 46 28q14 27 41 28q42 0 74 -34q16 -17 22 -37h-115q-144 -1 -177 -87q-54 84 -179 84z" />
    <glyph glyph-name="si_Jnya" unicode="&#xda5;" horiz-adv-x="822" 
d="M131 202q0 -104 63 -163q45 -41 107 -41q86 0 123 66q5 9 8 18q49 -82 177 -83q47 0 79 9q-62 -62 -73 -105q-5 -18 -5 -36q0 -71 57 -96q24 -11 55 -11q27 0 58 8v31q-72 24 -72 111q1 82 70 163l-25 19q-40 -46 -80 -49h-13q-50 0 -79 48q-20 33 -20 78q0 99 93 113
q18 2 37 2h60q-22 117 -106 135q-40 9 -98 9q-219 -2 -240 -239h28q0 2 3 19q9 7 20 7q24 -4 27 -29q-6 -47 -84 -49q-74 0 -105 62q-13 25 -13 53q0 68 47 112q36 32 84 32h11v25h-7q-50 2 -85 2q-150 0 -193 -117q-14 -40 -14 -90q0 -117 63 -184q20 -21 43 -32v33
q-74 67 -74 180q0 129 97 169q32 13 69 14q-74 -47 -90 -150q-3 -22 -3 -44zM361 240q-10 -1 -19 -5q23 116 115 152q33 12 70 12h5q-18 -16 -18 -37q0 -27 28 -35q7 -2 13 -2q33 1 47 28t41 28q42 0 62 -47q5 -12 8 -24h-114q-153 -1 -182 -98q-23 27 -56 28z" />
    <glyph glyph-name="si_Ndja" unicode="&#xda6;" horiz-adv-x="682" 
d="M527 304q-34 0 -44 38q-2 9 -2 19q0 20 4 34q7 1 19 1q64 0 71 -40q1 -5 1 -9q0 -32 -33 -41q-8 -2 -16 -2zM418 302q-3 14 -3 24q1 47 39 62v-13q-1 -10 -1 -15q1 -35 18 -57q-9 1 -25 1q-13 0 -28 -2zM131 166q0 -118 143 -153q52 -13 116 -13q148 0 211 71
q34 39 34 93q-1 85 -75 119q45 15 46 62q0 54 -60 73q-19 6 -38 6h-14q22 47 58 71q8 5 69 40q31 20 32 38q-2 30 -34 31q-36 -1 -80 -41q-60 -57 -80 -144q-73 -20 -74 -96q0 -23 7 -45q43 3 53 3q120 -6 127 -66q-2 -78 -188 -78q-192 1 -193 73q3 69 131 70q9 0 32 -2
q4 17 4 40q0 72 -61 96q-15 5 -31 7q-15 2 -33 2q-150 0 -193 -117q-14 -40 -14 -90q0 -117 63 -184q20 -21 43 -32v33q-74 67 -74 180q0 123 84 165q10 5 21 8q-10 -16 -10 -34q0 -34 31 -39q5 -1 9 -1q29 2 45 34q15 30 43 31q38 0 46 -41q1 -7 1 -13t-2 -19q-10 1 -24 1
q-107 0 -151 -69q-20 -32 -20 -70z" />
    <glyph glyph-name="si_Tta" unicode="&#xda7;" horiz-adv-x="588" 
d="M31 203q0 96 81 147q51 32 115 32q44 0 86 -16v-31q-39 19 -84 19q-84 0 -118 -50q-15 -22 -15 -48q0 -82 96 -109q37 -10 79 -10q134 0 184 86q23 41 23 95q0 92 -60 157q-59 63 -149 63q-116 -1 -178 -79h-35q72 104 211 105q131 0 211 -101q66 -84 66 -198
q0 -127 -87 -203q-73 -63 -178 -63q-141 0 -208 84q-40 51 -40 120z" />
    <glyph glyph-name="si_Ttha" unicode="&#xda8;" horiz-adv-x="599" 
d="M32 190q0 95 63 155q25 23 53 33q32 11 68 11v-27h-5q-4 1 -5 1q-70 0 -102 -62q-16 -29 -16 -61q0 -84 68 -100q14 -3 29 -3q80 0 94 59q3 11 3 24v22h30v-22q0 -71 72 -82q10 -1 21 -1q86 0 111 85q7 25 7 51q0 87 -32 134q-26 -48 -85 -49q-61 0 -86 61q-11 27 -11 58
q1 67 41 114q72 -39 136 -121q16 -22 28 -42q61 -105 61 -201q0 -118 -57 -182q-43 -45 -106 -45q-72 1 -116 58q-47 -57 -110 -58q-87 0 -130 84q-24 48 -24 106zM340 479q2 -83 73 -84q44 2 58 43q-37 57 -111 113q-20 -32 -20 -72z" />
    <glyph glyph-name="si_Dda" unicode="&#xda9;" horiz-adv-x="631" 
d="M15 278v30h237q-2 40 -32 62q-14 9 -28 9q-27 -2 -42 -27q-15 -24 -40 -25q-31 0 -38 27q-1 6 -1 10q0 38 51 53q19 5 37 5q94 0 121 -84q8 -27 8 -60h-69q-87 0 -108 -54q-4 -10 -4 -19q0 -51 57 -64q16 -4 34 -4q91 1 92 58v21h30v-21q2 -57 84 -58q74 0 107 68
q16 36 16 81q0 114 -69 187q-66 69 -167 69q-115 -1 -185 -85h-35q78 111 226 111q135 0 217 -101q70 -88 70 -215q0 -187 -97 -236q-31 -16 -69 -16q-69 0 -109 53q-2 3 -3 5q-48 -57 -112 -58q-90 0 -130 76q-19 38 -19 82q0 75 61 112l16 8h-107z" />
    <glyph glyph-name="si_Ddha" unicode="&#xdaa;" horiz-adv-x="631" 
d="M15 278v30h235q-1 43 -32 63q-13 8 -26 8q-27 -2 -42 -27q-15 -24 -40 -25q-31 0 -38 27q-1 6 -1 10q0 38 51 53q19 5 37 5q92 0 118 -83q9 -28 9 -61h-67q-87 0 -108 -54q-4 -10 -4 -19q0 -51 57 -64q16 -4 34 -4q91 1 92 58v21h30v-21q2 -57 84 -58q75 0 106 71
q15 34 15 78q0 57 -29 118q-35 -49 -84 -50q-67 0 -92 60q-9 24 -9 52q0 61 40 122v1q86 -34 157 -131q76 -105 76 -208q0 -182 -94 -233q-32 -17 -72 -17q-69 0 -109 53q-2 3 -3 5q-48 -57 -112 -58q-90 0 -130 76q-19 38 -19 82q0 75 61 112l16 8h-107zM342 470
q2 -82 72 -83q40 1 66 48q-45 74 -107 110l-8 4q-21 -30 -23 -79z" />
    <glyph glyph-name="si_Nna" unicode="&#xdab;" horiz-adv-x="940" 
d="M21 174l11 -26q45 25 65 27q29 0 57 -42q39 -58 40 -60q60 -72 162 -73q128 0 185 98q2 4 4 7q20 -54 66 -66q10 -3 19 -3q43 1 67 30q7 -45 50 -61q16 -6 34 -6q89 0 109 109q4 26 4 56q0 113 -51 157q-22 19 -50 19q-64 0 -85 -63q-5 -15 -6 -31q-24 33 -72 33
q-35 -1 -63 -31q-13 86 -77 133q59 17 96 25q13 3 26.5 5.5t28.5 4.5t27.5 4t28 4t25.5 3l25 2.5t21 2t19 1.5l13 1q39 8 43 40q0 28 -32 39q-12 3 -25 3q-54 0 -141 -27q-84 -26 -206 -82q-43 16 -88 16q-114 0 -161 -64q-24 -32 -24 -74q0 -13 1 -18q-90 -54 -146 -93z
M197 290q0 64 72 92q35 13 78 13q27 0 49 -8q-94 -43 -199 -103v6zM329 126q-83 0 -146 43q-40 27 -56 31q-7 1 -14 1q21 13 62 38q27 -63 114 -72q12 -1 24 -1q41 0 69 15l8 4l6 4q33 28 34 69q0 48 -43 73q-7 4 -14 7q15 6 64 25q41 -41 43 -99q0 -83 -64 -118
q-36 -20 -87 -20zM259 258q1 -37 27 -62q-64 12 -83 58q32 19 61 33q-5 -15 -5 -29zM289 258q0 34 31 49q12 6 24 6q34 0 49 -31q6 -12 6 -24q0 -34 -31 -49q-12 -6 -24 -6q-34 0 -49 31q-6 12 -6 24zM565 158v3q4 20 4 30q15 50 50 57q4 1 9 1q63 -2 64 -91q0 -70 -43 -86
q-10 -4 -21 -4q-36 0 -54 43q-9 22 -9 47zM719 103v10q5 22 5 44q0 13 -2 30q5 91 40 92q40 -2 40 -114q0 -98 -27 -113q-7 -3 -15 -3q-24 0 -36 25q-5 13 -5 29z" />
    <glyph glyph-name="si_Nndda" unicode="&#xdac;" horiz-adv-x="713" 
d="M100 278h107q-68 -30 -76 -104q-1 -9 -1 -16q0 -81 55 -126q39 -32 94 -32q66 1 112 58q36 -51 93 -57q10 -1 19 -1q121 0 155 143q11 48 11 109q0 149 -93 239q-79 77 -194 77q-149 -1 -226 -111h35q71 85 185 85q129 0 194 -106q41 -66 41 -150q0 -96 -62 -133
q-27 -16 -60 -16q-83 1 -84 58v21h-30v-21q-2 -57 -85 -58q-67 0 -90 39q-8 14 -8 29q0 34 37 56q29 17 75 17h69q0 112 -85 138q-2 1 -3 1h1q-21 6 -53 6q-150 0 -193 -117q-14 -40 -14 -90q0 -117 63 -184q20 -21 43 -32v33q-74 67 -74 180q0 120 81 162q11 6 23 10
q-6 -9 -6 -21q0 -30 29 -36q5 -1 10 -1q26 1 40 25q16 27 42 27q34 0 52 -40q7 -16 8 -31h-237v-30z" />
    <glyph glyph-name="si_Ta" unicode="&#xdad;" horiz-adv-x="687" 
d="M21 24l24 -15q14 66 42 68q18 0 42 -24q37 -37 79 -48q30 -7 67 -7q101 0 148 72q25 39 25 88q0 105 -93 140q-36 14 -81 14q-47 0 -79 -14q39 45 124 50h12q130 0 182 -91q27 -48 27 -115q0 -66 -31 -95q-14 -13 -31 -13q-19 0 -35 6v-29q22 -12 55 -12q92 0 131 86
q19 42 19 96q0 127 -87 195q-63 49 -148 49q-134 -1 -212 -85v5q0 58 -48 74q-14 4 -29 4q-49 0 -75 -42q-13 -22 -13 -47q0 -41 32 -47q4 -1 8 -1q42 1 45 59q3 30 27 31q21 0 25 -27q1 -6 1 -11q-1 -18 -13 -32q-82 -90 -121 -204q-14 -42 -19 -78zM93 152q35 68 62 101
q49 34 121 34q70 0 96 -44q8 -15 8 -31q-2 -74 -123 -75q-36 0 -96 18q-22 6 -36 6q-21 -1 -32 -9z" />
    <glyph glyph-name="si_Tha" unicode="&#xdae;" horiz-adv-x="599" 
d="M32 229q0 87 74 145q59 46 133 46v-26q-78 0 -124 -54q-30 -36 -30 -81q0 -110 177 -121q18 -1 36 -1q112 0 169 71q35 44 35 102q-1 51 -22 97q-23 -48 -84 -49q-61 0 -87 61q-11 27 -11 58q1 67 41 114q72 -39 136 -121q16 -22 28 -42q47 -81 50 -168v-14
q0 -120 -91 -191q-73 -56 -174 -56q-123 0 -196 77q-60 63 -60 153zM329 480q2 -83 73 -84q45 2 58 42q-40 61 -111 113q-20 -31 -20 -71z" />
    <glyph glyph-name="si_Da" unicode="&#xdaf;" horiz-adv-x="445" 
d="M30 165q2 144 188 145h114q-11 56 -53 68q-9 3 -17 3q-28 -1 -41 -28q-14 -27 -46 -28q-31 0 -40 26q-2 6 -2 11q0 36 46 53q22 8 48 8q97 0 129 -87q9 -23 14 -52h-60q-113 0 -127 -84q-3 -15 -3 -31q0 -80 54 -113q21 -13 45 -13q41 0 71 26q11 10 22 23l25 -19
q-69 -82 -70 -163q2 -88 72 -111v-31q-32 -8 -58 -8q-84 0 -106 68q-6 19 -6 39q0 56 55 116q10 11 24 25q-33 -9 -79 -9q-130 0 -178 83q-21 37 -21 83z" />
    <glyph glyph-name="si_Dha" unicode="&#xdb0;" horiz-adv-x="623" 
d="M32 190q0 -97 58 -152q40 -38 96 -38q64 1 110 58q45 -57 116 -58q108 0 147 131q16 56 16 124q0 144 -92 234q-80 77 -191 77q-147 -1 -229 -109h34q77 84 190 84q114 0 180 -93q47 -68 47 -151q0 -146 -94 -159q-9 -1 -18 -1q-81 0 -89 69q-1 7 -1 14v23h-30v-23
q0 -74 -77 -82q-9 -1 -17 -1q-81 0 -98 69q-4 14 -4 30q0 67 49 104q31 23 71 23h10v26q-37 0 -68 -11q-64 -23 -96 -95q-20 -44 -20 -93z" />
    <glyph glyph-name="si_Na" unicode="&#xdb1;" horiz-adv-x="787" 
d="M23 172q0 -92 95 -140q65 -33 152 -33q131 0 186 73q30 39 30 93q0 71 -62 111q-39 25 -87 25q-44 0 -74 -11q47 43 130 49h15q105 0 165 -70q47 -55 47 -135q0 -66 -37 -93q-14 -10 -30 -10q-22 0 -37 6v-28q25 -10 63 -10q78 0 126 61q37 49 37 119q0 123 -91 193
q-67 51 -157 51q-112 0 -208 -76q-22 -18 -39 -37v2q0 84 -62 104q-17 5 -35 5q-63 0 -87 -51q-9 -19 -9 -39q0 -37 34 -43q5 -1 9 -1q37 0 43 47v3q4 33 36 34q27 0 38 -33q4 -12 4 -24q-1 -27 -15 -42q-22 -21 -68 -77q-27 -33 -54 -38q-8 -1 -16 -1q-27 1 -42 16z
M122 144q19 13 52 56q36 47 76 62q32 12 76 12q79 -4 82 -54q0 -47 -62 -73q-43 -17 -104 -17q-77 0 -120 14z" />
    <glyph glyph-name="si_Nda" unicode="&#xdb3;" horiz-adv-x="525" 
d="M112 165q0 -100 86 -142q48 -24 113 -24q47 0 79 9q-61 -61 -74 -103q-5 -18 -5 -38q0 -71 57 -96q24 -11 55 -11q27 0 58 8v31q-72 24 -72 111q1 82 70 163l-25 19q-40 -46 -80 -49h-13q-50 0 -79 48q-20 33 -20 78q0 99 93 113q18 2 37 2h60q-20 113 -98 134
q-16 4 -32 5q-34 3 -63 3q-156 0 -211 -109q-22 -45 -22 -101q0 -117 63 -184q20 -21 43 -32v33q-74 67 -74 180q0 132 115 171q27 9 56 11q-14 -15 -14 -33q0 -27 28 -35q7 -2 14 -2q33 1 46 28q14 27 41 28q42 0 62 -47q5 -12 8 -24h-114q-187 -2 -188 -145z" />
    <glyph glyph-name="si_Pa" unicode="&#xdb4;" horiz-adv-x="601" 
d="M31 179q0 94 88 127q37 13 83 13q11 0 34 -2q0 2 1 6v5q0 43 -37 52q-6 1 -11 1q-36 -1 -47 -31q-11 -31 -47 -32q-37 6 -41 40q0 40 52 58q23 7 48 7q102 0 113 -79q1 -9 1 -18q0 -24 -3 -37q-5 1 -12 1.5l-14 1t-13 1t-10 0.5h-4q-91 0 -113 -44q-5 -11 -5 -23
q0 -84 186 -89h20q134 0 178 52q17 20 17 44q0 42 -57 56q-23 6 -53 6q-31 0 -69 -7q-2 12 -2 32q0 81 76 99q18 4 39 4q68 0 91 -46q8 -16 8 -31q-1 -31 -26 -50q58 -36 59 -114q0 -114 -122 -160q-61 -22 -139 -22q-209 0 -256 112q-13 31 -13 67zM347 328q0 -8 1 -11
q26 3 46 3q50 0 82 -12q15 14 15 35q0 38 -44 47q-12 3 -25 3q-56 0 -71 -41q-4 -12 -4 -24z" />
    <glyph glyph-name="si_Pha" unicode="&#xdb5;" horiz-adv-x="569" 
d="M32 161q0 -109 118 -146q48 -15 108 -15q156 0 225 106q38 58 38 133q0 88 -42 165q-5 8 -9 16q-44 76 -121 135q-23 17 -43 28q-41 -48 -41 -114q0 -73 48 -104q22 -14 49 -14q61 1 86 49q25 -46 25 -106q0 -103 -101 -140q-47 -17 -111 -17q-130 0 -156 49q-6 10 -6 22
q0 57 88 66q13 1 27 1h60v15q0 81 -56 115q-28 16 -65 16q-69 0 -93 -39q-9 -15 -9 -31q0 -29 27 -37q5 -1 10 -1q33 1 44 34q7 24 32 31q7 2 13 2q37 0 56 -36q8 -17 8 -36v-6h-10q-198 -2 -199 -141zM298 477q0 34 16 67q72 -53 113 -113q-18 -31 -54 -35q-48 0 -67 43
q-8 17 -8 38z" />
    <glyph glyph-name="si_Ba" unicode="&#xdb6;" horiz-adv-x="604" 
d="M100 74q0 -30 28 -42q9 -4 18 -4q29 0 42 27q5 9 5 19q0 29 -27 42q-10 5 -20 5q-29 0 -42 -27q-4 -10 -4 -20zM32 183q0 109 80 167q53 37 121 37q106 0 145 -63q17 -28 17 -64q0 -59 -54 -89q-6 -3 -17 -9q-33 -16 -38 -30q-1 -4 -1 -8q1 -22 40 -22q74 0 124 84
q43 72 43 161q0 110 -81 164q-53 34 -126 34q-133 -1 -190 -86h-33q47 96 181 110q21 2 42 2q156 0 229 -114q48 -74 48 -180q0 -146 -67 -223q-50 -56 -123 -56q-78 0 -108 59q-11 22 -11 49q0 42 33 66q26 20 31 29q6 11 6 24q0 33 -56 42q-17 2 -36 2q-89 0 -135 -56
q-28 -33 -28 -78q0 -27 7 -46q5 42 45 56q13 4 26 4q45 0 68 -38q10 -17 10 -36q0 -48 -43 -68q-17 -8 -35 -8q-74 0 -102 94q-12 41 -12 90z" />
    <glyph glyph-name="si_Bha" unicode="&#xdb7;" horiz-adv-x="654" 
d="M6 262q19 4 111 7q-68 -44 -69 -118q0 -87 71 -129q41 -23 93 -23q96 0 139 64q22 35 22 79q0 66 -39 88q-12 6 -25 6q-14 -1 -27 -7q18 56 57 71q19 7 42 7q79 0 109 -80q11 -32 11 -65q0 -87 -52 -119q-24 -15 -55 -15q-23 0 -35 2v-28q21 -3 40 -3q103 0 163 76
q44 57 44 131q0 112 -63 173q-45 43 -107 43q-81 0 -137 -84q-44 -65 -50 -148l24 -8q10 27 32 28q20 -2 21 -24q0 -36 -71 -47q-17 -3 -33 -3q-88 0 -110 44q-5 12 -5 24q0 38 47 57q28 11 62 11q12 0 33 -2q0 91 -54 131q-28 21 -64 21q-56 0 -77 -41q-6 -13 -6 -26
q0 -33 31 -39q4 -1 9 -1q27 1 39 29q12 25 37 25q28 0 43 -36q8 -18 8 -37h-209v-34z" />
    <glyph glyph-name="si_Ma" unicode="&#xdb8;" horiz-adv-x="620" 
d="M259 344q0 -31 28 -43q10 -4 19 -4q31 0 43 28q4 10 4 19q0 31 -28 43q-10 4 -19 4q-31 0 -43 -28q-4 -10 -4 -19zM32 244q0 88 46 142q33 35 74 36q53 -1 53 -53q0 -12 -3 -29q-3 -20 -3 -37q0 -52 52 -71q19 -7 42 -7q79 0 96 60q3 13 3 27q0 26 -13 44l-1 1
q2 -11 2 -22q0 -43 -38 -62q-16 -8 -36 -8q-49 0 -70 45q-8 17 -8 33q0 48 43 70q19 9 40 9q73 0 101 -59q11 -25 11 -55q0 -75 -67 -103q-28 -12 -61 -12q-68 0 -105 42q-23 27 -23 62q0 6 6 59q1 7 1 11q-2 25 -24 26q-39 0 -54 -53q-5 -19 -5 -37q0 -90 78 -139
q54 -33 126 -33q113 0 170 74q38 50 38 120q0 98 -63 162q-58 57 -144 57q-117 -1 -186 -86h-34q64 97 182 112q19 2 37 2q120 0 201 -89q75 -83 75 -198q0 -161 -105 -237q-68 -48 -163 -48q-153 0 -225 96q-46 62 -46 148z" />
    <glyph glyph-name="si_Mba" unicode="&#xdb9;" horiz-adv-x="621" 
d="M29 225q0 -107 55 -173q44 -51 107 -52q21 0 64 12q4 6 4 34q0 13 -11 47q-4 14 -4 25q2 63 59 64q57 -2 58 -64q0 -9 -10 -44q-4 -15 -4 -28q0 -27 4 -34q46 -12 63 -12q76 0 124 89q38 70 38 159q0 153 -89 242q-77 75 -194 75q-148 0 -223 -98q-5 -6 -9 -12h33
q61 74 159 83q19 2 38 2q126 0 189 -105q37 -63 37 -138q0 -106 -42 -153q-21 -21 -45 -22q-24 1 -38 11q0 12 -4 23q-15 52 -74 57q-6 1 -11 1q-62 0 -82 -50q-2 -5 -3 -8q-4 -12 -4 -23q-14 -11 -38 -11q-65 0 -92 75q-12 34 -12 75q0 60 30 99q18 22 40 23q24 -2 25 -31
v-14q0 -81 66 -108q24 -9 52 -9q74 0 102 52q11 21 11 45q0 57 -40 83q-19 12 -44 12q-49 0 -68 -40q-7 -16 -7 -32q0 -42 36 -61q16 -9 36 -9q9 0 17.5 2t13.5 4t10 6t7 6.5t5 5.5l2 4v-2q0 -20 -27 -35q-22 -12 -49 -12q-80 0 -92 66q-2 10 -2 20v15q-1 38 -18 51
q-13 8 -33 8q-63 0 -96 -81q-20 -51 -20 -115zM268 354q0 30 28 42q8 3 17 3q30 0 42 -28q3 -9 3 -17q0 -30 -28 -41q-9 -3 -17 -3q-30 0 -42 27q-3 9 -3 17z" />
    <glyph glyph-name="si_Ya" unicode="&#xdba;" horiz-adv-x="621" 
d="M29 181q0 110 76 165q48 34 113 34q12 0 27 -2v-30q-15 3 -31 3q-82 0 -118 -60q-16 -27 -16 -56q0 -76 70 -94q18 -4 38 -4q70 0 92 39q7 13 7 28v21h28v-20q0 -49 67 -64q21 -4 43 -4q82 0 98 54q2 9 2 18q-2 81 -127 82q-44 0 -84 -11q-1 8 -1 23q0 99 89 117
q18 3 38 3q84 0 102 -51q3 -11 3 -23q0 -36 -30 -51q-4 -1 -6 -2q60 -36 68 -115q1 -9 1 -18q0 -90 -64 -136q-38 -28 -88 -28q-95 1 -126 70q-34 -69 -118 -70q-91 0 -131 82q-22 44 -22 100zM344 312q21 5 56 5q52 0 82 -10q21 11 22 34q0 27 -36 38q-13 4 -27 4
q-74 0 -93 -47q-4 -12 -4 -24z" />
    <glyph glyph-name="si_Ra" unicode="&#xdbb;" horiz-adv-x="515" 
d="M30 208q0 133 122 194q13 6 26 11q101 39 120 49q31 16 60 38q20 15 56 60q35 37 63 39q27 0 35 -20q2 -6 2 -12q0 -43 -82 -87q-1 -1 -2 -1q-61 -32 -146 -55q62 0 118 -49l17 -17q52 -59 52 -138q0 -100 -75 -165q-65 -55 -154 -55q-105 0 -167 75q-45 57 -45 133z
M77 250q0 -67 61 -98q36 -17 85 -17q118 0 158 78q15 32 15 71q0 73 -67 103q-33 14 -75 14q-70 0 -126 -47q-50 -44 -51 -104z" />
    <glyph glyph-name="si_La" unicode="&#xdbd;" horiz-adv-x="654" 
d="M30 132q0 157 120 236q84 54 205 54q153 0 213 -69q29 -34 29 -80q0 -64 -57 -97q-30 -17 -66 -17q-68 0 -101 53q-16 27 -16 61h-98v28h247v-28h-119q0 -1 -1 -4q0 -36 47 -52q20 -6 42 -6q72 0 83 57q2 9 2 19q0 75 -105 97q-33 6 -69 6q-117 0 -175 -86
q-37 -57 -37 -137q0 -148 98 -217q59 -41 139 -41q70 0 120 45q47 43 47 110q0 11 -4 18h35q0 -3 1 -8v-6q0 -114 -98 -175q-69 -43 -159 -43q-163 0 -252 93q-71 74 -71 189z" />
    <glyph glyph-name="si_Va" unicode="&#xdc0;" 
d="M32 161q0 -107 118 -145q49 -16 111 -16q164 0 234 114q40 65 40 154q0 136 -85 221q-74 74 -180 74q-141 -1 -214 -104h34q68 79 180 79q108 0 168 -89q41 -62 41 -139q0 -131 -129 -163q-39 -10 -86 -10q-164 1 -165 71q0 43 57 57q22 6 50 6h79v12q0 109 -84 132
q-21 6 -44 6q-69 0 -93 -39q-9 -15 -9 -31q0 -33 31 -38q4 -1 8 -1q32 1 43 35q11 30 50 31q37 0 55 -38q8 -18 8 -39v-4h-56q-105 0 -145 -68q-17 -31 -17 -68z" />
    <glyph glyph-name="si_Sha" unicode="&#xdc1;" horiz-adv-x="616" 
d="M33 201q0 -114 65 -169q40 -33 95 -33q86 0 124 66q18 32 18 70q0 84 -57 100q-11 3 -22 3t-20 -4q11 53 76 72q23 6 46 6q97 0 132 -96q6 -19 10 -39q-16 3 -31 3q-67 0 -97 -52q-14 -25 -14 -55q0 -46 31 -67q13 -9 28 -9q21 0 44 20q12 10 20 10q11 -2 12 -13
q-1 -7 -4 -13h28q33 42 47 138q4 28 4 52q0 115 -62 181q-47 50 -116 50q-148 0 -182 -197q-3 -19 -5 -37h26q3 16 4 18q10 7 23 7q29 -3 32 -26q0 -42 -65 -49q-10 -1 -20 -1q-80 0 -108 73q-9 25 -9 50q0 77 60 114q36 23 86 23h13v24h-7q-7 1 -9 1q-111 0 -164 -91
q-32 -56 -32 -130zM390 77q0 50 45 69q17 7 36 7q23 0 33 -3q1 -9 1 -24q0 -45 -8 -80q-6 8 -16 8t-33 -16q-14 -10 -25 -10q-32 3 -33 49z" />
    <glyph glyph-name="si_Ssa" unicode="&#xdc2;" horiz-adv-x="607" 
d="M31 179q0 -139 169 -170q46 -9 100 -9q152 0 220 74q41 45 41 108q-1 79 -59 114q26 20 26 50q0 43 -43 65q-25 12 -56 12q-91 0 -111 -69q-4 -16 -4 -34q0 -19 2 -30q34 6 69 6q31 0 56 -6q-32 -12 -61 -16q-46 -6 -99 -6q-112 -1 -113 -55q0 -46 92 -55q15 -1 29 -1
q132 1 133 55q-1 28 -32 42q45 6 81 23q30 -19 31 -56q0 -65 -117 -86q-42 -7 -91 -7q-129 0 -179 48q-23 22 -23 50q0 60 95 68q13 1 25 1q19 0 53 -4q3 14 3 35q0 85 -89 96q-12 1 -25 1q-68 0 -92 -38q-8 -14 -8 -29q0 -30 31 -37q6 -1 11 -1q38 1 48 34q11 30 42 31
q40 0 50 -37q2 -8 2 -18v-5q-1 -4 -1 -5q-24 2 -36 2q-120 0 -157 -78q-13 -28 -13 -63zM347 330q0 45 46 59q14 4 29 4q52 0 65 -34q3 -8 3 -15q-1 -21 -16 -35q-34 13 -80 13q-23 0 -46 -3q-1 5 -1 11zM199 217q2 29 92 29q100 -1 101 -32q-2 -30 -100 -30q-92 1 -93 33z
" />
    <glyph glyph-name="si_Sa" unicode="&#xdc3;" horiz-adv-x="661" 
d="M50 150q0 -73 54 -118q40 -33 94 -33q93 1 127 81q32 -79 124 -80q103 0 144 76q20 37 20 86q0 69 -51 112q-12 9 -25 16q24 21 28 52q0 63 -68 77q-15 3 -32 3q-76 0 -107 -67q-14 -32 -14 -71v-6q1 -4 1 -6q48 9 94 9q109 -1 110 -68q0 -55 -68 -71q-22 -5 -48 -5
q-92 1 -93 56v16h-27v-16q-2 -55 -93 -56q-76 0 -98 47q-5 12 -5 24q0 59 94 65q9 1 18 1h77v15q0 87 -62 119q-27 13 -61 13q-65 0 -92 -37q-11 -16 -11 -33q0 -32 29 -37q5 -1 8 -1q34 1 44 31q9 29 34 35q8 1 16 1q33 0 52 -34q11 -20 11 -42q0 -2 -1 -3h-268v-34
q28 5 124 7q-78 -35 -79 -124zM376 303q6 65 69 72q7 1 14 1q52 0 63 -30q2 -6 2 -12q-1 -20 -15 -35q-31 10 -74 10q-37 0 -59 -6z" />
    <glyph glyph-name="si_Ha" unicode="&#xdc4;" horiz-adv-x="637" 
d="M32 151q0 -87 71 -129q41 -23 93 -23q95 0 139 64q23 34 23 79q0 66 -39 88q-12 6 -25 6q-14 -1 -27 -7q17 53 51 69q21 9 47 9q79 0 109 -80q11 -32 11 -65q0 -89 -53 -121q-23 -13 -53 -13q-23 0 -35 2v-28q21 -3 40 -3q103 0 163 76q44 57 44 131q0 112 -64 173
q-45 43 -107 43q-81 0 -137 -84q-44 -65 -50 -148l25 -8q10 27 31 28q21 -2 22 -24q0 -36 -71 -47q-17 -3 -33 -3q-80 0 -106 40q-9 14 -9 30q0 39 48 57q26 9 60 9q12 0 33 -2q0 92 -54 132q-28 20 -63 20q-55 0 -77 -41q-7 -13 -7 -26q0 -33 31 -39q4 -1 9 -1q27 1 39 29
q12 25 37 25q28 0 43 -36q8 -18 8 -37h-10q-94 0 -135 -66q-22 -35 -22 -79z" />
    <glyph glyph-name="si_Lla" unicode="&#xdc5;" horiz-adv-x="621" 
d="M177 290q2 102 76 103q42 0 63 -40q8 -16 8 -32h32q0 35 34 57q21 14 44 14q65 0 87 -60q7 -20 7 -42h-351zM30 111q0 -140 114 -211q80 -49 191 -49q106 0 187 62q81 65 82 159h-29q-3 -94 -101 -126q-37 -12 -81 -12q-127 0 -196 93q-39 53 -45 120q45 -84 136 -102
q19 -3 38 -3q156 0 191 136q1 5 2 8h-29q-35 -46 -128 -51h-18q-115 0 -153 83q-5 11 -8 23q29 21 88 21h291q0 112 -70 147q-26 13 -57 13q-55 0 -85 -40q-6 -7 -9 -14q-30 49 -87 54q-70 0 -107 -62q-21 -35 -24 -81q-62 -29 -85 -112q-8 -29 -8 -56z" />
    <glyph glyph-name="si_Fa" unicode="&#xdc6;" horiz-adv-x="592" 
d="M32 207q0 111 55 172q39 42 95 42q77 -1 107 -70q31 69 107 70q90 0 129 -99q21 -52 21 -115q0 -104 -53 -165q-39 -42 -93 -43q-19 0 -37 7v27q16 -6 33 -6q69 0 89 83q6 26 6 56q0 110 -77 123q-10 1 -19 1q-83 0 -90 -82v-13v-19h-32v19q-6 91 -89 95q-79 0 -96 -89
q-3 -19 -3 -38q0 -85 47 -120q23 -16 51 -16q17 0 32 6v-27q-19 -7 -37 -7q-84 0 -124 93q-22 53 -22 115z" />
    <glyph glyph-name="si_Halant" unicode="&#xdca;" horiz-adv-x="1" 
d="M-138 340v325q13 -10 70.5 -37.5t71.5 -62.5q6 -17 6 -36q0 -46 -42 -65q-16 -7 -34 -7q-23 0 -44 10v-144zM-110 492q13 -6 31 -6q35 0 43 34q2 7 2 13q0 35 -42 66q-9 7 -34 23v-130z" />
    <glyph glyph-name="si_MatraAa" unicode="&#xdcf;" horiz-adv-x="304" 
d="M21 108q0 14 1 21h28q-1 -6 -1 -15q1 -49 34 -50q46 2 46 132q0 133 -46 134q-25 0 -32 -32q-2 -10 -2 -20t1 -15h-28q-1 8 -1 22q0 65 54 95q26 14 55 14q105 0 128 -127q6 -33 6 -71q0 -171 -103 -194q-15 -3 -31 -3q-74 0 -100 60q-9 22 -9 49z" />
    <glyph glyph-name="si_MatraAe" unicode="&#xdd0;" horiz-adv-x="326" 
d="M3 304v27h240q-1 -3 -3 -18q-65 -107 -66 -225q0 -92 48 -141q14 -13 30 -21q17 -8 43 -10l4 -20q-37 -40 -106 -40q-81 0 -121 68q-23 41 -23 94q0 115 107 235q6 7 47 51h-200z" />
    <glyph glyph-name="si_MatraAae" unicode="&#xdd1;" horiz-adv-x="328" 
d="M4 305v26h239v-21l-124 -92h147v-22q-81 -64 -82 -161q0 -70 46 -108q30 -24 69 -24v-27q-50 -21 -97 -21q-99 0 -134 67q-14 27 -14 60q0 100 116 178q17 11 52 32h-152v24l123 89h-189z" />
    <glyph glyph-name="si_MatraI" unicode="&#xdd2;" horiz-adv-x="1" 
d="M-532 506q0 97 113 133q51 16 113 16q138 0 196 -66q31 -35 31 -83q0 -75 -82 -101q-27 -8 -58 -9v22q73 5 74 50q0 52 -145 55h-16q-164 -1 -165 -55q2 -45 78 -50v-22q-98 4 -128 63q-11 22 -11 47z" />
    <glyph glyph-name="si_MatraIi" unicode="&#xdd3;" horiz-adv-x="1" 
d="M-243 502q0 -33 34 -48q14 -6 29 -6q39 0 56 30q7 12 7 24q0 33 -34 48q-14 6 -29 6q-39 0 -56 -30q-7 -12 -7 -24zM-573 505q0 91 112 130q59 20 133 20q126 0 197 -52q49 -37 50 -91q0 -55 -49 -81q-23 -12 -50 -12q-58 0 -84 45q-11 19 -11 39q1 31 15 46q-27 3 -80 3
q-134 0 -173 -48q-12 -15 -12 -33q2 -41 46 -53l-6 -22q-56 5 -79 60q-9 23 -9 49z" />
    <glyph glyph-name="si_MatraU" unicode="&#xdd4;" horiz-adv-x="1" 
d="M-581 -139q0 51 48 77q24 13 52 13q55 0 83 -43q5 -8 8 -15l-32 -12q-13 31 -47 38q-6 1 -12 1q-40 0 -58 -33q-7 -13 -7 -26q2 -48 89 -49h368v313l34 89v-443h-423q-84 0 -100 65q-3 12 -3 25z" />
    <glyph glyph-name="si_MatraUu" unicode="&#xdd6;" horiz-adv-x="1" 
d="M-568 -135q0 56 49 83q23 13 50 13q64 -1 95 -50l-32 -11q-22 31 -58 32q-43 0 -58 -32q-4 -8 -4 -17q0 -37 44 -45q9 -1 17 -1q33 0 116 26q81 25 137 25q79 -1 121 -50v310l34 59v-433h-25q-20 46 -66 70q-27 13 -54 13q-44 0 -120 -40q-77 -42 -117 -47q-11 -1 -21 -1
q-66 0 -94 45q-14 23 -14 51z" />
    <glyph glyph-name="si_MatraR" unicode="&#xdd8;" horiz-adv-x="305" 
d="M32 243v-7h26v4q0 82 46 91q5 1 9 1q27 0 33 -45q4 -26 4 -72q-22 -1 -53 -13q-64 -28 -65 -98q0 -51 31 -83q22 -22 50 -22q16 0 37 14q7 4 11 4q10 -2 15 -14h73q-1 7 -1 19t6 60q10 82 10 116q0 157 -88 182q-16 4 -32 4q-82 0 -105 -85q-7 -26 -7 -56zM63 104
q1 59 57 77q27 7 30 7v-9v-25q-1 -25 -1 -43q0 -64 8 -70q-4 0 -8 -2q-21 -10 -34 -10q-39 0 -50 52q-2 12 -2 23z" />
    <glyph glyph-name="si_MatraE" unicode="&#xdd9;" horiz-adv-x="588" 
d="M215 270q0 -29 31 -42q12 -4 23 -4q34 0 48 27q5 10 5 19q0 29 -31 41q-11 4 -22 4q-35 0 -49 -27q-5 -9 -5 -18zM32 207q0 105 95 168q72 47 167 47q126 0 207 -78q61 -60 69 -143h-30q-16 100 -106 154q-63 37 -140 37q-109 0 -162 -60q-28 -33 -28 -74q0 -65 60 -100
q42 -24 99 -24q96 0 131 56q13 22 13 48q0 42 -41 66q-14 7 -30 11q20 -18 20 -46q0 -42 -44 -64q-21 -10 -43 -10q-48 0 -74 35q-14 18 -14 39q0 47 51 68q24 9 51 9q108 0 162 -68q34 -44 34 -105q0 -89 -76 -137q-57 -36 -140 -36q-119 0 -184 76q-47 55 -47 131z" />
    <glyph glyph-name="si_MatraEe" unicode="&#xdda;" horiz-adv-x="950" 
d="M215 270q0 -29 31 -42q12 -4 23 -4q34 0 48 27q5 10 5 19q0 29 -31 41q-11 4 -22 4q-35 0 -49 -27q-5 -9 -5 -18zM32 207q0 105 95 168q72 47 167 47q126 0 207 -78q61 -60 69 -143h-30q-16 100 -106 154q-63 37 -140 37q-109 0 -162 -60q-28 -33 -28 -74q0 -65 60 -100
q42 -24 99 -24q96 0 131 56q13 22 13 48q0 42 -41 66q-14 7 -30 11q20 -18 20 -46q0 -42 -44 -64q-21 -10 -43 -10q-48 0 -74 35q-14 18 -14 39q0 47 51 68q24 9 51 9q108 0 162 -68q34 -44 34 -105q0 -89 -76 -137q-57 -36 -140 -36q-119 0 -184 76q-47 55 -47 131z
M752 340v325q13 -10 70.5 -37.5t71.5 -62.5q6 -17 6 -36q0 -46 -42 -65q-16 -7 -34 -7q-23 0 -44 10v-144zM780 492q13 -6 31 -6q35 0 43 34q2 7 2 13q0 35 -42 66q-9 7 -34 23v-130z" />
    <glyph glyph-name="si_MatraAi" unicode="&#xddb;" horiz-adv-x="1174" 
d="M215 270q0 -29 31 -42q12 -4 23 -4q34 0 48 27q5 10 5 19q0 29 -31 41q-11 4 -22 4q-35 0 -49 -27q-5 -9 -5 -18zM32 207q0 105 95 168q72 47 167 47q126 0 207 -78q61 -60 69 -143h-30q-16 100 -106 154q-63 37 -140 37q-109 0 -162 -60q-28 -33 -28 -74q0 -65 60 -100
q42 -24 99 -24q96 0 131 56q13 22 13 48q0 42 -41 66q-14 7 -30 11q20 -18 20 -46q0 -42 -44 -64q-21 -10 -43 -10q-48 0 -74 35q-14 18 -14 39q0 47 51 68q24 9 51 9q108 0 162 -68q34 -44 34 -105q0 -89 -76 -137q-57 -36 -140 -36q-119 0 -184 76q-47 55 -47 131z
M781 270q0 -29 31 -42q12 -4 23 -4q34 0 48 27q5 9 5 19q0 29 -31 41q-11 4 -22 4q-35 0 -49 -27q-5 -9 -5 -18zM598 207q0 105 95 168q72 47 167 47q126 0 207 -78q61 -60 69 -143h-30q-16 100 -106 154q-63 37 -140 37q-109 0 -162 -60q-28 -33 -28 -74q0 -65 60 -100
q42 -24 99 -24q96 0 131 56q13 22 13 48q0 42 -41 66q-14 7 -30 11q20 -18 20 -46q0 -42 -44 -64q-21 -10 -43 -10q-48 0 -74 35q-14 18 -14 39q0 47 51 68q24 9 51 9q108 0 162 -68q34 -44 34 -105q0 -89 -76 -137q-57 -36 -140 -36q-119 0 -184 76q-47 55 -47 131z" />
    <glyph glyph-name="si_MatraO" unicode="&#xddc;" horiz-adv-x="1164" 
d="M215 270q0 -29 31 -42q12 -4 23 -4q34 0 48 27q5 10 5 19q0 29 -31 41q-11 4 -22 4q-35 0 -49 -27q-5 -9 -5 -18zM32 207q0 105 95 168q72 47 167 47q126 0 207 -78q61 -60 69 -143h-30q-16 100 -106 154q-63 37 -140 37q-109 0 -162 -60q-28 -33 -28 -74q0 -65 60 -100
q42 -24 99 -24q96 0 131 56q13 22 13 48q0 42 -41 66q-14 7 -30 11q20 -18 20 -46q0 -42 -44 -64q-21 -10 -43 -10q-48 0 -74 35q-14 18 -14 39q0 47 51 68q24 9 51 9q108 0 162 -68q34 -44 34 -105q0 -89 -76 -137q-57 -36 -140 -36q-119 0 -184 76q-47 55 -47 131z
M871 108q0 14 1 21h28q-1 -6 -1 -15q1 -49 34 -50q46 2 46 132q0 133 -46 134q-25 0 -32 -32q-2 -10 -2 -20t1 -15h-28q-1 8 -1 22q0 65 54 95q26 14 55 14q105 0 128 -127q6 -33 6 -71q0 -171 -103 -194q-15 -3 -31 -3q-74 0 -100 60q-9 22 -9 49z" />
    <glyph glyph-name="si_MatraOo" unicode="&#xddd;" horiz-adv-x="1068" 
d="M215 270q0 28 31 41q12 4 23 4q35 0 49 -28q4 -9 4 -17q0 -29 -30 -41q-11 -5 -23 -5q-35 0 -49 28q-5 8 -5 18zM32 207q0 -108 87 -167q61 -40 144 -40q130 0 187 80q29 42 29 93q0 104 -89 149q-47 24 -107 24q-66 0 -92 -42q-10 -16 -10 -35q0 -42 45 -64
q21 -10 43 -10q48 0 74 36q13 18 13 38q-1 28 -20 46q54 -12 68 -57q3 -11 3 -20q0 -64 -68 -91q-33 -13 -76 -13q-100 0 -141 64q-18 28 -18 60q0 71 74 109q50 25 116 25q117 0 190 -77q45 -49 56 -114h30q-10 108 -105 172q-75 49 -171 49q-119 0 -196 -70
q-65 -60 -66 -145zM728 108q0 -74 60 -100q23 -9 49 -9q106 0 128 128q6 32 6 69q-1 151 -81 187v84q21 -10 44 -10q48 0 68 39q8 15 8 33q0 56 -58 89q-11 6 -35 16q-39 19 -55 31v-273q-16 2 -25 2q-60 0 -91 -47q-18 -28 -18 -62q0 -15 1 -22h28q-1 6 -1 15q3 48 34 52
q46 -2 46 -134q-1 -131 -46 -132q-33 3 -34 50q0 10 1 15h-28q-1 -8 -1 -21zM890 492v130q54 -36 65 -53t11 -36q0 -35 -29 -45q-8 -2 -16 -2q-19 0 -31 6z" />
    <glyph glyph-name="si_MatraAu" unicode="&#xdde;" horiz-adv-x="1102" 
d="M215 270q0 28 31 41q12 4 23 4q35 0 49 -28q4 -9 4 -17q0 -29 -30 -41q-11 -5 -23 -5q-35 0 -49 28q-5 8 -5 18zM32 207q0 -108 87 -167q61 -40 144 -40q130 0 187 80q29 42 29 93q0 104 -89 149q-47 24 -107 24q-66 0 -92 -42q-10 -16 -10 -35q0 -42 45 -64
q21 -10 43 -10q48 0 74 36q13 18 13 38q-1 28 -20 46q54 -12 68 -57q3 -11 3 -20q0 -64 -68 -91q-33 -13 -76 -13q-100 0 -141 64q-18 28 -18 60q0 71 74 109q50 25 116 25q117 0 190 -77q45 -49 56 -114h30q-10 108 -105 172q-75 49 -171 49q-119 0 -196 -70
q-65 -60 -66 -145zM692 313q0 -66 44 -94q20 -12 43 -12q75 4 77 74q-1 37 -36 56v7q2 34 34 36q36 0 48 -80q4 -30 4 -68q0 -152 -44 -168q-7 -2 -14 -2q-40 0 -45 47q-1 7 -1 13q0 16 3 31h-27q-4 -17 -4 -36q0 -81 61 -109q23 -10 53 -10q109 0 143 118q13 44 13 99
q0 114 -59 170q-39 37 -96 37q-67 0 -90 -47q-7 -16 -7 -34q0 -8 1 -12q19 -20 19 -46q-2 -41 -38 -42q-36 0 -48 43q-4 14 -4 30q1 68 42 104h-36q-36 -40 -36 -105z" />
    <glyph glyph-name="si_MatraLs" unicode="&#xddf;" horiz-adv-x="430" 
d="M32 313q0 -66 44 -94q20 -12 43 -12q75 4 77 74q-1 37 -36 56v7q2 34 34 36q36 0 48 -80q4 -30 4 -68q0 -152 -44 -168q-7 -2 -14 -2q-40 0 -45 47q-1 7 -1 13q0 16 3 31h-27q-4 -17 -4 -36q0 -81 61 -109q23 -10 53 -10q109 0 143 118q13 44 13 99q0 114 -59 170
q-39 37 -96 37q-67 0 -90 -47q-7 -16 -7 -34q0 -8 1 -12q19 -20 19 -46q-2 -41 -38 -42q-36 0 -48 43q-4 14 -4 30q1 68 42 104h-36q-36 -40 -36 -105z" />
    <glyph glyph-name="si_MatraRr" unicode="&#xdf2;" horiz-adv-x="557" 
d="M32 243v-7h26v4q0 82 46 91q5 1 9 1q27 0 33 -45q4 -26 4 -72q-22 -1 -53 -13q-64 -28 -65 -98q0 -51 31 -83q22 -22 50 -22q16 0 37 14q7 4 11 4q10 -2 15 -14h73q-1 7 -1 19t6 60q10 82 10 116q0 157 -88 182q-16 4 -32 4q-82 0 -105 -85q-7 -26 -7 -56zM63 104
q1 59 57 77q27 7 30 7v-9v-25q-1 -25 -1 -43q0 -64 8 -70q-4 0 -8 -2q-21 -10 -34 -10q-39 0 -50 52q-2 12 -2 23zM279 243v-7h26v4q0 82 46 91q5 1 9 1q27 0 33 -45q4 -26 4 -72q-22 -1 -53 -13q-64 -28 -65 -98q0 -51 31 -83q22 -22 50 -22q16 0 37 14q7 4 11 4
q10 -2 15 -14h73q-1 7 -1 19t6 60q10 82 10 116q0 157 -88 182q-16 4 -32 4q-82 0 -105 -85q-7 -25 -7 -56zM310 104q1 59 57 77q27 7 30 7v-9v-25q-1 -26 -1 -43q0 -64 8 -70q-4 0 -8 -2q-21 -10 -34 -10q-39 0 -50 52q-2 12 -2 23z" />
    <glyph glyph-name="si_MatraLl" unicode="&#xdf3;" horiz-adv-x="430" 
d="M32 313q0 -66 44 -94q20 -12 43 -12q75 4 77 74q-1 37 -36 56v7q2 34 34 36q36 0 48 -80q4 -30 4 -68q0 -152 -44 -168q-7 -2 -14 -2q-40 0 -45 47q-1 7 -1 13q0 16 3 31h-27q-4 -17 -4 -36q0 -81 61 -109q23 -10 53 -10q109 0 143 118q13 44 13 99q0 114 -59 170
q-39 37 -96 37q-67 0 -90 -47q-7 -16 -7 -34q0 -8 1 -12q19 -20 19 -46q-2 -41 -38 -42q-36 0 -48 43q-4 14 -4 30q1 68 42 104h-36q-36 -40 -36 -105z" />
    <glyph glyph-name="si_kundaliya" unicode="&#xdf4;" horiz-adv-x="1701" 
d="M1250 38l25 89l-145 -90l26 129l-147 -97l15 159l-154 -146l-13 171l-129 -144l-31 141l-125 -142l-26 110l-109 -147l-29 84l-58 -100q-19 29 -41 30q-29 0 -75 -36q-51 -40 -82 -47q-15 -4 -29 -4q-52 0 -69 43q-5 14 -5 30q0 45 34 63q14 7 30 7q43 0 57 -39
q4 -11 4 -21q0 -23 -12 -36q3 -2 7 -2q32 0 84 48q46 43 65 50q9 3 16 3q21 -1 31 -15l83 142l38 -98l126 168l29 -119l135 155l32 -146l145 167l13 -193l177 162l-24 -197l158 102l-32 -137l138 87l-31 -85q11 7 28 7q25 0 69 -43q48 -46 71 -55q12 -4 23 -4q5 0 9 3
q-12 13 -12 36q0 33 29 51q15 9 32 9q45 0 60 -44q4 -12 4 -26q0 -56 -50 -70q-12 -3 -24 -3q-43 0 -104 43q-55 40 -80 47q-14 4 -27 4q-53 -1 -130 -54z" />
    <glyph glyph-name="zwnj" unicode="&#x200c;" horiz-adv-x="0" 
d="M-39 -10v772h78v-772h-78z" />
    <glyph glyph-name="zwj" unicode="&#x200d;" horiz-adv-x="0" 
d="M54 640l122 -120l-55 -54l-82 82v-558h-78v558l-82 -82l-55 54l122 120l-122 118l55 54l121 -121l121 121l55 -54z" />
    <glyph glyph-name="short_dash2" unicode="&#x2010;" horiz-adv-x="297" 
d="M43 226h202v-39h-202v39z" />
    <glyph glyph-name="endash" unicode="&#x2013;" horiz-adv-x="610" 
d="M50 195h510v45h-510v-45z" />
    <glyph glyph-name="emdash" unicode="&#x2014;" horiz-adv-x="810" 
d="M50 195h710v45h-710v-45z" />
    <glyph glyph-name="quoteleft" unicode="&#x2018;" horiz-adv-x="187" 
d="M162 485q0 44 -41 64q-8 3 -16 5q-25 7 -26 25q0 30 37 70l2 2l-21 16q-63 -68 -75 -146q-2 -13 -2 -24q0 -62 47 -79q12 -4 27 -4q41 0 60 38q8 16 8 33z" />
    <glyph glyph-name="quoteright" unicode="&#x2019;" horiz-adv-x="238" 
d="M168 577q0 62 -47 79q-13 4 -27 4q-41 0 -60 -38q-8 -16 -8 -33q0 -44 41 -64q8 -3 16 -5q25 -7 26 -25q0 -30 -37 -70l-2 -2l21 -16q63 68 75 146q2 13 2 24z" />
    <glyph glyph-name="quotesinglbase" unicode="&#x201a;" horiz-adv-x="175" 
d="M156 56q0 58 -46 76q-12 4 -24 4q-40 0 -58 -34q-8 -16 -8 -34q0 -43 39 -61q8 -3 15 -5q24 -7 25 -24q-1 -23 -29 -58l22 -14q59 78 64 150z" />
    <glyph glyph-name="quotedblleft" unicode="&#x201c;" horiz-adv-x="336" 
d="M20 497q0 -59 44 -75q12 -5 26 -5q40 0 58 38q7 14 7 30q0 43 -39 61q-8 3 -15 5q-24 7 -25 24q1 30 37 68l-20 15q-60 -63 -71 -138q-2 -12 -2 -23zM181 497q0 -59 44 -75q12 -5 26 -5q40 0 58 38q7 14 7 30q0 43 -39 61q-8 3 -15 5q-24 7 -25 24q1 30 37 68l-20 15
q-60 -63 -71 -138q-2 -12 -2 -23z" />
    <glyph glyph-name="quotedblright" unicode="&#x201d;" horiz-adv-x="336" 
d="M316 575q0 59 -44 75q-12 5 -26 5q-40 0 -58 -38q-7 -14 -7 -30q0 -43 39 -61q8 -3 15 -5q24 -7 25 -24q-1 -30 -37 -68l20 -15q60 63 71 138q2 12 2 23zM155 575q0 59 -44 75q-12 5 -26 5q-40 0 -58 -38q-7 -14 -7 -30q0 -43 39 -61q8 -3 15 -5q24 -7 25 -24
q-1 -30 -37 -68l20 -15q60 63 71 138q2 12 2 23z" />
    <glyph glyph-name="quotedblbase" unicode="&#x201e;" horiz-adv-x="336" 
d="M316 56q0 59 -44 75q-12 5 -26 5q-40 0 -58 -38q-7 -14 -7 -30q0 -43 39 -61q8 -3 15 -5q24 -7 25 -24q-1 -30 -37 -68l20 -15q60 63 71 138q2 12 2 23zM155 56q0 59 -44 75q-12 5 -26 5q-40 0 -58 -38q-7 -14 -7 -30q0 -43 39 -61q8 -3 15 -5q24 -7 25 -24
q-1 -30 -37 -68l20 -15q60 63 71 138q2 12 2 23z" />
    <glyph glyph-name="dagger" unicode="&#x2020;" horiz-adv-x="465" 
d="M233 555q-49 -2 -50 -45q0 -14 19 -73q11 -35 16 -63q-17 3 -94 29q-25 8 -39 8q-44 -2 -45 -48q2 -49 46 -50q14 0 77 21q40 12 70 17q27 -3 104 -29q29 -9 43 -9q44 2 45 48q-2 49 -46 50q-14 0 -76 -21q-33 -11 -57 -16q4 25 27 99q8 24 8 38q-1 43 -48 44zM233 320
q-49 0 -58 -41q-2 -6 -2 -14q0 -26 16 -97q24 -102 29 -247h29q6 150 34 274q10 44 10 71q0 45 -44 53q-7 1 -14 1z" />
    <glyph glyph-name="daggerdbl" unicode="&#x2021;" horiz-adv-x="455" 
d="M228 555q-49 -2 -50 -45q0 -14 19 -73q11 -35 16 -63q-17 3 -94 29q-25 8 -39 8q-44 -2 -45 -48q2 -49 46 -50q14 0 77 21q40 12 70 17q27 -3 104 -29q29 -9 43 -9q44 2 45 48q-2 49 -46 50q-14 0 -76 -21q-33 -11 -57 -16q4 25 27 99q8 24 8 38q-1 43 -48 44zM227 -74
q49 2 50 45q0 14 -19 73q-11 35 -16 63q17 -3 94 -29q26 -8 39 -8q44 2 45 48q-2 49 -46 50q-14 0 -77 -21q-40 -12 -70 -17q-27 3 -104 29q-29 9 -43 9q-44 -2 -45 -48q2 -49 46 -50q14 0 76 21q33 11 57 16q-4 -25 -27 -99q-8 -25 -8 -38q1 -43 48 -44zM292 238
q0 40 -36 58q-14 7 -29 7q-39 0 -56 -36q-7 -14 -7 -29q0 -41 36 -58q13 -6 27 -6q40 0 58 35q7 14 7 29z" />
    <glyph glyph-name="bullet" unicode="&#x2022;" horiz-adv-x="345" 
d="M289 226q0 62 -51 97q-30 21 -66 21q-62 0 -97 -52q-19 -31 -19 -66q0 -62 51 -95q30 -19 65 -19q62 0 97 50q20 29 20 64z" />
    <glyph glyph-name="ellipsis" unicode="&#x2026;" horiz-adv-x="600" 
d="M379 65q0 42 -38 63q-16 8 -33 8q-42 0 -62 -38q-8 -16 -8 -33q0 -43 38 -62q15 -8 32 -8q43 0 63 36q8 16 8 34zM572 65q0 42 -38 63q-16 8 -33 8q-42 0 -62 -38q-8 -16 -8 -33q0 -43 38 -62q15 -8 32 -8q43 0 63 36q8 16 8 34zM186 65q0 42 -38 63q-16 8 -33 8
q-42 0 -62 -38q-8 -16 -8 -33q0 -43 38 -62q15 -8 32 -8q43 0 63 36q8 16 8 34z" />
    <glyph glyph-name="perthousand" unicode="&#x2030;" horiz-adv-x="1231" 
d="M1012 340q-95 0 -145 -69q-33 -45 -33 -105q0 -101 76 -149q43 -27 99 -27q96 0 145 69q32 44 32 105q0 104 -78 151q-42 25 -96 25zM1011 11q-43 0 -56 55q-8 35 -8 98q0 126 37 148q12 7 27 7q44 0 56 -65q6 -33 6 -87q0 -124 -33 -148q-13 -8 -29 -8zM211 -33l429 643
l-37 23l-430 -643zM218 629q-95 0 -145 -69q-33 -45 -33 -105q0 -101 76 -149q43 -27 99 -27q96 0 145 69q32 45 32 105q0 104 -78 151q-42 25 -96 25zM217 300q-43 0 -56 55q-8 35 -8 98q0 126 37 148q12 7 27 7q44 0 56 -65q6 -33 6 -87q0 -124 -33 -148q-13 -8 -29 -8z
M617 340q-95 0 -145 -69q-33 -45 -33 -105q0 -101 76 -149q43 -27 99 -27q96 0 145 69q32 44 32 105q0 104 -78 151q-42 25 -96 25zM616 11q-43 0 -56 55q-8 35 -8 98q0 126 37 148q12 7 27 7q44 0 56 -65q6 -33 6 -87q0 -124 -33 -148q-13 -8 -29 -8z" />
    <glyph glyph-name="guilsinglleft" unicode="&#x2039;" horiz-adv-x="241" 
d="M226 378l-21 17q-30 -34 -128 -113q-36 -30 -47 -42q-15 -18 -15 -36t15 -36q7 -8 90 -77q55 -46 85 -77l20 18q-69 129 -90 173q19 33 54 103q25 47 37 70z" />
    <glyph glyph-name="guilsinglright" unicode="&#x203a;" horiz-adv-x="241" 
d="M15 378l21 17q30 -34 128 -113q36 -30 47 -42q15 -18 15 -36t-15 -36q-7 -8 -90 -77q-55 -46 -85 -77l-20 18q69 129 90 173q-19 33 -54 103q-25 47 -37 70z" />
    <glyph glyph-name="fraction" unicode="&#x2044;" horiz-adv-x="147" 
d="M-112 -33l429 643l-37 23l-430 -643z" />
    <glyph glyph-name="Euro" unicode="&#x20ac;" horiz-adv-x="616" 
d="M581 105q0 38 -36 51q-12 5 -26 5q-52 0 -70 -43q-4 -8 -9 -25q-14 -46 -35 -60q-21 -13 -53 -13q-76 0 -102 87q-15 52 -18 143h192l9 30h-202v18v30h213l9 30h-221q9 183 85 214q20 8 43 8q59 0 76 -45q4 -9 8 -27q12 -45 31 -58q18 -11 46 -11q42 0 55 36q3 10 3 20
q0 50 -57 83q-56 32 -144 32q-167 0 -250 -126q-36 -56 -48 -126h-66l-9 -30h71q-1 -12 -1 -33v-15h-61l-9 -30h73q16 -137 112 -208q72 -52 173 -52q148 0 200 68q18 23 18 47z" />
    <glyph glyph-name="uni20BA" unicode="&#x20ba;" horiz-adv-x="588" 
d="M248 0q174 0 254 105q41 54 41 115q-2 84 -64 85q-52 0 -63 -50q-1 -9 -5 -83q-5 -85 -49 -117q-39 -27 -110 -28v292l197 73v32l-197 -73v50l197 73v32l-197 -73v140h70v27h-278v-27h68v-193l-92 -34v-32l92 34v-49l-92 -34v-32l92 34v-240h-68v-27h204z" />
    <glyph glyph-name="uni20BD" unicode="&#x20bd;" horiz-adv-x="585" 
d="M356 0q0 24 -13 26q-5 1 -11 1h-94v159h145v30h-145v48h82q173 0 217 109q13 31 13 69q0 94 -84 135q-48 23 -114 23h-332v-27h78v-279h-78v-30h78v-48h-78v-30h78v-159h-78v-27h336zM295 573q104 -2 105 -140q-2 -138 -109 -139h-53v279h57z" />
    <glyph glyph-name="uni2113" unicode="&#x2113;" horiz-adv-x="388" 
d="M206 -16q105 0 138 104q1 2 1 3l-23 9q-33 -84 -84 -85q-41 0 -53 50q-7 33 -7 97v65q140 61 175 133q15 32 15 68q0 81 -73 115q-34 15 -75 15q-138 0 -162 -122q-5 -24 -5 -51v-176q-4 -1 -48 -17l7 -27q28 10 41 14q1 -194 153 -195zM178 398q0 109 15 126q7 7 18 7
q27 0 31 -47q1 -17 1 -49q0 -88 -4 -106q-11 -41 -61 -69v138z" />
    <glyph glyph-name="trademark" unicode="&#x2122;" 
d="M195 360q-4 14 -16 15h-19v210q27 0 38 -25q1 -2 2 -5q1 -4 2 -5l15 -36h14l-2 86h-217l-2 -86h14l15 36q11 24 18 29q9 6 23 6v-210h-34v-15h149zM399 356l76 193v-174h-29v-15h127q-4 14 -16 15h-9v210h25v15h-98l-63 -159l-81 159h-81v-15h25v-210h-25v-15h75
q-4 14 -15 15h-16v141l88 -160h17z" />
    <glyph glyph-name="uni2126" unicode="&#x2126;" horiz-adv-x="678" 
d="M619 332q0 137 -86 218q-75 70 -189 70q-147 0 -227 -104q-59 -77 -59 -181q0 -115 91 -196q37 -33 84 -54h-92q-43 0 -60 23q-8 12 -14 28l-15 41h-23l1 -177h263v75q-80 45 -85 237v33q1 248 133 249q122 0 128 -231v-23q0 -172 -47 -233q-16 -20 -37 -32v-75h263
l1 177h-23l-15 -41q-15 -41 -44 -48q-12 -3 -30 -3h-88q109 48 151 149q19 48 19 98z" />
    <glyph glyph-name="estimated" unicode="&#x212e;" horiz-adv-x="735" 
d="M213 66v270h492q0 166 -122 253q-87 61 -201 61q-177 0 -273 -123q-69 -90 -69 -209q0 -136 86 -229q93 -99 247 -99q124 0 227 65q34 21 58 47l-24 22q-67 -69 -180 -95q-42 -9 -81 -9q-93 1 -160 46zM529 585v-217h-316v203q73 49 172 49q86 0 144 -35z" />
    <glyph glyph-name="partialdiff" unicode="&#x2202;" horiz-adv-x="537" 
d="M497 341q0 158 -92 228q-55 41 -135 41q-77 -1 -148 -41l16 -27q68 37 117 37q91 0 113 -109q6 -31 6 -67q0 -32 -6 -64q-45 44 -109 44q-130 0 -192 -93q-37 -56 -37 -127q0 -92 69 -140q47 -33 117 -33q134 0 214 119q67 99 67 232zM165 141q0 143 58 193q22 18 45 18
q57 0 70 -86q3 -21 3 -45q0 -103 -44 -164q-29 -39 -66 -40q-65 2 -66 124z" />
    <glyph glyph-name="uni2206" unicode="&#x2206;" horiz-adv-x="558" 
d="M558 0l-255 600h-74l-229 -600h558zM387 71h-308l148 393z" />
    <glyph glyph-name="product" unicode="&#x220f;" horiz-adv-x="598" 
d="M269 -130q0 24 -13 26q-5 1 -11 1h-26v676h160v-676h-49v-27h258q0 24 -13 26q-5 1 -11 1h-45v676h69v27h-578v-27h69v-676h-69v-27h259z" />
    <glyph glyph-name="summation" unicode="&#x2211;" horiz-adv-x="484" 
d="M477 -130v219h-24l-27 -69q-16 -41 -61 -47q-14 -2 -33 -2h-238l258 303l-2 1l-189 297h147q67 0 92 -32q16 -20 27 -59l16 -54h24l12 173h-474v-21l244 -372l-244 -287v-50h472z" />
    <glyph glyph-name="minus" unicode="&#x2212;" horiz-adv-x="448" 
d="M418 213v42h-388v-42h388z" />
    <glyph glyph-name="uni2215" unicode="&#x2215;" horiz-adv-x="147" 
d="M-112 -33l429 643l-37 23l-430 -643z" />
    <glyph glyph-name="uni2219" unicode="&#x2219;" horiz-adv-x="345" 
d="M289 226q0 62 -51 97q-30 21 -66 21q-62 0 -97 -52q-19 -31 -19 -66q0 -62 51 -95q30 -19 65 -19q62 0 97 50q20 29 20 64z" />
    <glyph glyph-name="radical" unicode="&#x221a;" horiz-adv-x="450" 
d="M168 439l-183 -80l11 -28l75 33l108 -299q20 -56 45 -66q12 -4 29 -4h42l185 729l-39 9l-162 -626z" />
    <glyph glyph-name="infinity" unicode="&#x221e;" horiz-adv-x="664" 
d="M505 171q82 0 117 69q17 32 17 69q0 73 -54 112q-36 24 -84 24q-75 0 -153 -84q-10 -10 -21 -23q-86 106 -168 107q-82 0 -117 -69q-17 -32 -17 -69q0 -73 54 -112q36 -24 84 -24q72 0 148 79q12 12 25 27q83 -105 169 -106zM159 215q-69 0 -89 61q-5 18 -5 37
q0 58 45 83q22 12 49 12q74 -1 146 -95q-62 -70 -101 -88q-23 -10 -45 -10zM505 208q-75 1 -147 94q63 71 101 88q23 11 46 11q70 0 88 -62q5 -18 5 -36q0 -60 -46 -84q-21 -11 -47 -11z" />
    <glyph glyph-name="integral" unicode="&#x222b;" horiz-adv-x="395" 
d="M278 89q0 72 -22 294q-12 124 -12 195q1 100 37 101q20 0 27 -36q10 -49 16 -60q16 -26 49 -27q46 0 59 37q3 9 3 18q0 64 -66 86q-25 8 -57 8q-128 0 -169 -153q-21 -81 -21 -205q0 -82 21 -331q10 -110 10 -166q-2 -112 -44 -114q-23 0 -29 36q-9 50 -10 54
q-14 34 -52 35q-42 0 -55 -37q-3 -11 -3 -21q0 -60 61 -83q26 -10 58 -10q128 0 172 144q27 89 27 235z" />
    <glyph glyph-name="approxequal" unicode="&#x2248;" horiz-adv-x="482" 
d="M159 396q45 0 111 -39q55 -32 80 -32q53 0 74 71q1 1 1 2l27 -5q-9 -91 -68 -127q-26 -15 -56 -15q-42 0 -109 38q-57 32 -84 32q-58 -2 -78 -76l-27 6q9 89 67 127q28 18 62 18zM159 228q45 0 111 -39q55 -32 80 -32q53 0 74 71q1 1 1 2l27 -5q-9 -91 -68 -127
q-26 -15 -56 -15q-42 0 -109 38q-57 32 -84 32q-58 -2 -78 -76l-27 6q9 89 67 127q28 18 62 18z" />
    <glyph glyph-name="notequal" unicode="&#x2260;" horiz-adv-x="448" 
d="M418 158v42h-189l27 68h162v42h-145l47 120h-38l-47 -120h-205v-42h188l-27 -68h-161v-42h145l-45 -113h38l45 113h205z" />
    <glyph glyph-name="lessequal" unicode="&#x2264;" horiz-adv-x="440" 
d="M411 161l-305 105l309 107l-14 37l-371 -128v-34l368 -128zM408 43v42h-378v-42h378z" />
    <glyph glyph-name="greaterequal" unicode="&#x2265;" horiz-adv-x="445" 
d="M415 248v34l-368 128l-13 -41l305 -105l-309 -107l14 -37zM408 43v42h-378v-42h378z" />
    <glyph glyph-name="lozenge" unicode="&#x25ca;" horiz-adv-x="536" 
d="M252 599l-232 -347l231 -347h34l231 347l-230 347h-34zM464 252l-196 -295l-196 295l197 295z" />
    <glyph glyph-name="dottedcircle" unicode="&#x25cc;" horiz-adv-x="544" 
d="M94 94q5 29 32 31q28 0 32 -25v-7q-5 -29 -32 -31q-27 0 -31 24q-1 4 -1 8zM53 160q3 30 31 31q27 0 30 -25v-7q-3 -30 -31 -31q-27 0 -30 25v7zM158 52q3 30 31 31q26 0 30 -24q1 -4 1 -8q-3 -29 -31 -30q-27 0 -31 24v7zM232 37q7 27 31 30q27 0 31 -24v-7
q-7 -27 -31 -31q-26 0 -30 24q-1 4 -1 8zM39 235q3 30 31 31q28 0 32 -25v-7q-5 -29 -32 -31q-26 0 -30 24q-1 4 -1 8zM56 310q5 29 31 31q26 0 30 -25v-8q-5 -29 -30 -31q-28 0 -31 26v7zM309 52q5 29 32 31q26 0 30 -24q1 -4 1 -8q-3 -29 -32 -30q-27 0 -31 24v7zM100 375
q1 25 25 29q4 1 7 1q26 0 30 -22v-9q-1 -25 -25 -29q-4 -1 -7 -1q-26 0 -30 22v9zM375 94q1 26 25 30q4 1 7 1q26 0 29 -25v-7q-7 -27 -31 -31q-27 0 -30 25v7zM164 418q5 29 32 31q26 0 30 -24q1 -4 1 -8q-5 -29 -32 -31q-26 0 -30 24q-1 4 -1 8zM418 160q5 29 32 31
q30 0 31 -28v-4q-5 -29 -32 -31q-30 0 -31 28v4zM240 433q5 29 32 31q27 0 30 -25v-7q-3 -31 -31 -32q-25 0 -30 23q-1 5 -1 10zM434 235q5 29 32 31q27 0 31 -25v-7q-5 -29 -32 -31q-26 0 -30 24q-1 4 -1 8zM316 418q3 30 31 31q26 0 30 -24q1 -4 1 -8q-3 -30 -31 -31
q-26 0 -30 24q-1 4 -1 8zM421 310q5 29 32 31q30 0 31 -28v-4q-7 -29 -32 -32q-28 0 -31 26v7zM379 375q5 28 32 30q27 0 31 -24v-7q-5 -28 -32 -30q-27 0 -31 24v7z" />
    <glyph glyph-name="commaaccent" unicode="&#xf6c3;" horiz-adv-x="500" 
d="M321 -119q0 62 -47 79q-13 4 -27 4q-41 0 -60 -38q-8 -16 -8 -33q0 -44 41 -64q8 -3 16 -5q25 -7 26 -25q0 -30 -37 -70l-2 -2l21 -16q63 68 75 146q2 13 2 24z" />
    <glyph glyph-name="P.001" horiz-adv-x="565" 
d="M295 573q104 -2 105 -140q-2 -138 -109 -139h-53v279h57zM356 0q0 24 -13 26q-5 1 -11 1h-94v237h82q173 0 217 109q13 31 13 69q0 94 -84 135q-48 23 -114 23h-332v-27h78v-546h-78v-27h336z" />
    <glyph glyph-name="czechcaron" horiz-adv-x="500" 
d="M321 576q0 62 -47 79q-13 4 -27 4q-41 0 -60 -38q-8 -16 -8 -33q0 -44 41 -64q8 -3 16 -5q25 -7 26 -25q0 -30 -37 -70l-2 -2l21 -16q63 68 75 146q2 13 2 24z" />
    <glyph glyph-name="dot" horiz-adv-x="178" 
d="M89 108q39 0 53 -31q6 -12 6 -27q0 -38 -31 -52q-13 -6 -28 -6q-39 0 -53 31q-6 13 -6 27q1 20 10 34q17 24 49 24z" />
    <glyph glyph-name="eight.numr" horiz-adv-x="540" 
d="M257 -11q114 0 183 60q54 48 55 118q0 79 -95 141q-17 11 -40 24q79 48 89 119q1 9 1 17q0 92 -91 127q-42 16 -96 16q-101 0 -160 -57q-45 -43 -45 -105q0 -79 99 -143q7 -5 14 -9q-93 -37 -119 -111q-7 -21 -7 -42q0 -73 68 -118q57 -37 144 -37zM176 495q0 60 60 81
q22 7 46 7q76 0 112 -50q20 -28 20 -64q0 -60 -59 -106q-11 -9 -24 -16q-92 50 -119 75q-35 34 -36 73zM81 147q0 61 60 103q27 18 62 28q95 -53 113 -66q58 -44 59 -92q0 -68 -74 -91q-28 -9 -60 -9q-82 0 -129 48q-31 34 -31 79z" />
    <glyph glyph-name="eight.tf" horiz-adv-x="545" 
d="M257 -10q112 0 180 60q52 48 53 116q0 80 -97 143q-18 11 -40 24q81 47 95 119q2 12 2 23q0 94 -92 129q-42 16 -95 16q-102 0 -159 -58q-41 -42 -41 -102q0 -75 93 -138q11 -8 24 -16q-101 -37 -124 -118q-6 -20 -6 -41q0 -72 65 -118q57 -39 142 -39zM173 502
q0 64 66 83q21 5 43 5q79 0 114 -52q18 -27 18 -62q0 -62 -62 -109q-14 -10 -28 -18q-93 51 -121 82q-30 33 -30 71zM86 150q0 71 66 112q27 16 61 25q92 -53 117 -75q47 -42 48 -89q0 -68 -72 -93q-30 -10 -65 -10q-73 0 -120 47q-35 35 -35 83z" />
    <glyph glyph-name="five.numr" horiz-adv-x="523" 
d="M493 190q0 110 -99 156q-53 24 -119 24q-78 -1 -147 -42v178q81 -9 144 -9q110 0 142 28q28 25 30 108v16h-28q-12 -33 -39 -42q-21 -6 -62 -6q-28 0 -117 4q-66 3 -105 5v-299l35 -26q54 44 113 44q73 0 103 -69q14 -35 14 -80q0 -98 -52 -140q-28 -23 -66 -23
q-54 0 -62 46q-3 12 -4 37q-1 52 -18 68q-17 14 -47 14q-51 0 -63 -44q-3 -10 -3 -20q0 -86 101 -116q41 -12 92 -12q124 0 197 65q60 53 60 135z" />
    <glyph glyph-name="five.tf" horiz-adv-x="523" 
d="M489 184q0 117 -98 164q-47 22 -107 22q-82 -1 -153 -43v186q80 -9 141 -9q108 0 139 28q27 35 28 118h-27q-12 -33 -40 -41q-20 -6 -57 -6q-27 0 -113 4q-66 3 -105 5v-301l34 -26q56 45 112 45q76 0 104 -73q12 -33 12 -74q0 -157 -102 -166h-11q-52 0 -61 47
q-2 11 -3 35q-3 53 -20 68q-16 13 -43 13q-50 0 -62 -43q-2 -9 -2 -20q0 -76 84 -110q44 -17 97 -17q128 0 199 65q54 51 54 129z" />
    <glyph glyph-name="four.numr" horiz-adv-x="410" 
d="M390 -65q0 20 -11 22q-4 1 -9 1h-52v68h72v25h-72v131h-19l-9 -25q-12 -33 -56 -36h-16h-12v-69l-140 1q135 88 164 111q92 72 93 122q0 38 -42 46q-8 1 -15 1q-36 0 -55 -35q-5 -9 -15 -33q-37 -87 -90 -142q-35 -37 -80 -70l5 -25l175 -1v-69h-79v-23h263z" />
    <glyph glyph-name="four.tf" horiz-adv-x="532" 
d="M489 0q0 24 -13 26q-5 1 -11 1h-63v124h87v30h-87v212h-23l-14 -43q-13 -40 -50 -46q-12 -2 -30 -2h-12v-120l-223 1q24 20 77 63q165 135 220 199q58 66 58 110q0 49 -49 62q-13 3 -27 3q-49 0 -69 -40q-4 -8 -28 -85q-45 -141 -157 -250q-33 -32 -70 -62l6 -30l262 -1
v-125h-114v-27h330z" />
    <glyph glyph-name="hyphen" horiz-adv-x="350" 
d="M25 195h300v45h-300v-45z" />
    <glyph glyph-name="mooniak" horiz-adv-x="952" 
d="M693 656q0 60 50 94q29 20 64 20q60 0 94 -50q20 -29 20 -64q0 -60 -50 -94q-29 -20 -64 -20q-60 0 -94 50q-20 29 -20 64zM30 371q0 131 93 223t222 92q131 0 223 -93t92 -222q0 -131 -93 -223t-222 -92q-131 0 -223 93t-92 222z" />
    <glyph glyph-name="nine.numr" horiz-adv-x="564" 
d="M509 324q0 186 -113 254q-53 32 -124 32q-147 0 -207 -88q-30 -45 -30 -102q0 -107 95 -152q52 -24 122 -24q64 1 117 34q-3 -186 -53 -238q-26 -25 -64 -25q-49 0 -58 44q-2 11 -4 35q-2 53 -19 69q-17 15 -49 15q-48 0 -63 -40q-4 -11 -4 -22q0 -64 75 -101
q52 -25 116 -25q145 0 216 130q47 86 47 204zM170 437q2 146 97 147q73 0 95 -91q7 -31 7 -67q0 -107 -61 -139q-20 -10 -42 -10q-96 2 -96 160z" />
    <glyph glyph-name="nine.tf" horiz-adv-x="552" 
d="M507 329q0 182 -110 254q-57 37 -133 37q-142 0 -200 -89q-29 -45 -29 -104q0 -112 98 -156q50 -22 117 -22q69 1 122 34q-2 -181 -50 -235q-28 -31 -72 -31q-57 0 -70 49q-3 10 -6 33q-6 49 -23 63q-15 12 -41 12q-48 0 -63 -40q-4 -11 -4 -22q0 -57 71 -94
q55 -28 123 -28q125 0 199 92q71 90 71 247zM165 444q1 148 102 149q104 -2 105 -160q-1 -150 -106 -151q-90 0 -100 125q-1 18 -1 37z" />
    <glyph glyph-name="one.numr" horiz-adv-x="315" 
d="M158 330l-148 -100l15 -24l91 61v-238l-86 -7v-22h273q0 18 -20 21q-4 1 -6 1l-51 7v301h-68z" />
    <glyph glyph-name="one.tf" horiz-adv-x="468" 
d="M238 600l-213 -135l18 -28l144 87v-489l-127 -9v-26h378q0 21 -24 25q-4 1 -7 1l-80 9v565h-89z" />
    <glyph glyph-name="seven.numr" horiz-adv-x="485" 
d="M480 573v30h-438l-2 -189h25l18 46q14 36 44 41q12 2 34 2h233q-22 -30 -176 -236q-95 -126 -111 -182q-5 -19 -5 -35q0 -49 49 -62q13 -3 27 -3q50 0 69 40q8 17 30 110q46 199 166 383q18 28 37 55z" />
    <glyph glyph-name="seven.tf" horiz-adv-x="485" 
d="M480 580v30h-438l-2 -181h25l18 46q14 36 44 41q12 2 34 2h238q-20 -29 -176 -240q-96 -129 -113 -187q-5 -19 -5 -36q0 -49 48 -62q12 -3 25 -3q47 0 65 40q7 15 30 109q51 209 182 405q13 19 25 36z" />
    <glyph glyph-name="si_B.halant" horiz-adv-x="604" 
d="M99 74q0 -28 26 -43q11 -5 21 -5q28 0 43 27q5 11 5 21q0 28 -27 43q-11 5 -21 5q-28 0 -42 -27q-5 -11 -5 -21zM139 525q0 -5 11 -13q7 -5 7 -9q-1 -4 -3 -7q59 11 117 11q150 0 226 -77q9 -8 16 -18q-36 119 -164 143q-30 6 -62 6q-104 0 -139 -23q-8 -7 -9 -13z
M32 183q0 115 85 170q53 34 124 34q84 0 128 -51q25 -31 25 -70q0 -67 -51 -95q-7 -3 -19 -9q-32 -14 -37 -28q-2 -6 -2 -12q2 -20 42 -20q78 0 126 88q33 62 33 131q0 126 -145 152q-36 7 -78 7q-55 0 -105 -10q-57 -12 -119 -40v32l30 10q49 18 50 24q0 4 -14 14t-14 22
q0 33 54 58q51 24 125 24q202 0 264 -170q15 -45 20 -96q8 -35 8 -87q-1 -130 -64 -205q-51 -57 -126 -58q-75 0 -106 55q-13 26 -13 57q0 37 31 60q27 20 32 31q6 12 6 26q0 34 -67 42q-12 1 -24 1q-91 0 -136 -58q-27 -36 -27 -84q0 -25 7 -39q5 42 45 56q13 4 26 4
q45 0 68 -38q10 -17 10 -36q0 -48 -43 -68q-17 -8 -35 -8q-74 0 -102 94q-12 41 -12 90z" />
    <glyph glyph-name="si_BI" horiz-adv-x="604" 
d="M269 492q-118 5 -137 17q-9 7 -10 16q1 42 168 42q166 -1 167 -52q0 -29 -46 -35q-5 -1 -10 -1q-48 11 -132 13zM65 549q0 -63 95 -76q16 -3 110 -8q109 -7 141 -19q26 -10 46 -30q32 -33 32 -95q0 -87 -52 -156q-49 -62 -112 -63q-39 1 -40 22q0 18 31 35q44 22 57 37
q22 25 22 64q0 86 -87 116q-34 11 -75 11q-101 0 -158 -73q-43 -55 -43 -131q0 -115 54 -162q26 -22 60 -22q45 0 67 37q11 17 11 39q0 42 -39 64q-19 10 -39 10q-49 0 -66 -41q-4 -10 -5 -19q-7 18 -7 46q0 74 70 112q42 22 93 22q84 0 91 -38q1 -4 1 -6q0 -26 -27 -45
q-27 -20 -35 -35q-8 -17 -8 -39q0 -63 53 -93q29 -15 66 -15q114 0 163 124q26 67 27 153v1v1q0 91 -63 153q-11 10 -21 18q-13 8 -28 16q68 15 79 62q2 8 2 15q0 95 -177 110q-31 3 -64 3q-212 0 -224 -94q-1 -5 -1 -11zM100 74q0 29 27 42q9 5 19 5q29 0 42 -27
q5 -10 5 -20q0 -29 -27 -42q-10 -4 -20 -4q-30 0 -42 28q-4 9 -4 18z" />
    <glyph glyph-name="si_BIi" horiz-adv-x="604" 
d="M383 526q0 33 33 47q13 5 25 5q38 0 53 -31q5 -11 5 -21q0 -33 -33 -47q-13 -5 -25 -5q-38 0 -53 31q-5 11 -5 21zM269 492q-119 5 -139 17q-10 8 -11 18q7 47 170 48q55 0 76 -5q-14 -19 -14 -41q1 -24 13 -43q-31 4 -95 6zM65 549q0 -63 95 -76q16 -3 110 -8
q104 -6 133 -16q32 -12 56 -39q30 -34 30 -90q0 -86 -53 -155q-48 -62 -111 -63q-39 1 -40 22q0 18 31 35q44 22 57 37q22 25 22 64q0 86 -87 116q-34 11 -75 11q-101 0 -158 -73q-43 -55 -43 -131q0 -115 54 -162q26 -22 60 -22q45 0 67 37q11 17 11 39q0 42 -39 64
q-19 10 -39 10q-49 0 -66 -41q-4 -10 -5 -19q-7 18 -7 46q0 74 70 112q42 22 93 22q84 0 91 -38q1 -4 1 -6q0 -26 -27 -45q-27 -20 -35 -35q-8 -17 -8 -39q0 -63 53 -93q29 -15 66 -15q111 0 161 118q28 67 29 151v1v3q0 93 -61 157q-11 11 -23 20q-1 0 -3 2t-3 2
q51 18 58 65q1 6 1 12q-2 125 -240 125q-210 0 -225 -92q-1 -6 -1 -13zM100 74q0 29 27 42q9 5 19 5q29 0 42 -27q5 -10 5 -20q0 -29 -27 -42q-10 -4 -20 -4q-30 0 -42 28q-4 9 -4 18z" />
    <glyph glyph-name="si_BR.halant" horiz-adv-x="604" 
d="M99 74q0 28 26 43q11 5 21 5q28 0 43 -27q5 -11 5 -21q0 -28 -27 -43q-11 -5 -21 -5q-28 0 -42 27q-5 11 -5 21zM139 525q0 24 91 33q28 3 57 3q146 0 206 -102q12 -22 20 -47q-63 83 -206 94q-18 1 -36 1q-59 0 -117 -11q3 3 3 7t-11 12q-6 6 -7 10zM32 183
q0 -115 54 -162q26 -22 60 -22q45 0 67 37q11 17 11 39q0 42 -39 64q-19 10 -39 10q-49 0 -66 -41q-4 -10 -5 -19q-7 15 -7 39q0 88 79 124q38 18 84 18q72 0 88 -30q3 -7 3 -13q0 -29 -28 -50q-27 -20 -34 -33q-7 -15 -7 -34q0 -75 65 -102q25 -10 54 -10q95 1 148 90
q3 -11 3 -26q0 -74 -76 -126q-71 -48 -169 -48q-127 0 -187 64l-5 5h-29q54 -162 218 -171h18q122 0 198 80q64 69 64 171q-1 49 -20 83q27 65 27 141q0 52 -8 87q-16 175 -143 237q-60 29 -141 29q-111 0 -160 -47q-18 -18 -19 -35q0 -12 19 -25q8 -7 9 -11q0 -6 -61 -27
q-12 -4 -19 -7v-32q64 28 119 40q51 10 105 10q186 0 217 -114q6 -21 6 -45q0 -90 -50 -158q-46 -60 -109 -61q-41 1 -42 20q0 22 30 36q41 20 52 31q27 27 27 77q0 71 -71 104q-38 17 -82 17q-116 0 -173 -82q-36 -52 -36 -122z" />
    <glyph glyph-name="si_BRI" horiz-adv-x="604" 
d="M269 492q-118 5 -137 17q-9 7 -10 16q1 42 168 42q166 -1 167 -52q0 -29 -46 -35q-5 -1 -10 -1q-48 11 -132 13zM65 549q0 -63 95 -76q16 -3 110 -8q109 -7 141 -19q26 -10 46 -30q32 -33 32 -95q0 -87 -52 -156q-49 -62 -112 -63q-39 1 -40 22q0 18 31 35q44 22 57 37
q22 25 22 64q0 86 -87 116q-34 11 -75 11q-101 0 -158 -73q-43 -55 -43 -131q0 -115 54 -162q26 -22 60 -22q45 0 67 37q11 17 11 39q0 42 -39 64q-19 10 -39 10q-49 0 -66 -41q-4 -10 -5 -19q-7 18 -7 46q0 74 70 112q42 22 93 22q84 0 91 -38q1 -4 1 -6q0 -26 -27 -45
q-27 -20 -35 -35q-8 -17 -8 -39q0 -63 53 -93q29 -15 66 -15q96 1 148 92q3 -13 3 -28q0 -74 -76 -126q-71 -48 -169 -48q-127 0 -187 64l-5 5h-29q54 -162 218 -171h18q122 0 198 80q64 69 64 171q0 50 -20 84q27 70 27 154v1v1q0 91 -63 153q-11 10 -21 18q-13 8 -28 16
q68 15 79 62q2 8 2 15q0 95 -177 110q-31 3 -64 3q-212 0 -224 -94q-1 -5 -1 -11zM100 74q0 29 27 42q9 5 19 5q29 0 42 -27q5 -10 5 -20q0 -29 -27 -42q-10 -4 -20 -4q-30 0 -42 28q-4 9 -4 18z" />
    <glyph glyph-name="si_BRIi" horiz-adv-x="604" 
d="M383 526q0 33 33 47q13 5 25 5q38 0 53 -31q5 -11 5 -21q0 -33 -33 -47q-13 -5 -25 -5q-38 0 -53 31q-5 11 -5 21zM269 492q-119 5 -139 17q-10 8 -11 18q7 47 170 48q55 0 76 -5q-14 -19 -14 -41q1 -24 13 -43q-31 4 -95 6zM65 549q0 -63 95 -76q16 -3 110 -8
q104 -6 133 -16q32 -12 56 -39q30 -34 30 -90q0 -86 -53 -155q-48 -62 -111 -63q-39 1 -40 22q0 18 31 35q44 22 57 37q22 25 22 64q0 86 -87 116q-34 11 -75 11q-101 0 -158 -73q-43 -55 -43 -131q0 -115 54 -162q26 -22 60 -22q45 0 67 37q11 17 11 39q0 42 -39 64
q-19 10 -39 10q-49 0 -66 -41q-4 -10 -5 -19q-7 18 -7 46q0 74 70 112q42 22 93 22q84 0 91 -38q1 -4 1 -6q0 -26 -27 -45q-27 -20 -35 -35q-8 -17 -8 -39q0 -63 53 -93q29 -15 66 -15q96 1 148 91q3 -12 3 -27q0 -74 -76 -126q-71 -48 -169 -48q-127 0 -187 64l-5 5h-29
q54 -162 218 -171h18q122 0 198 80q64 69 64 171q0 50 -20 84q25 61 27 146v1v3q0 93 -61 157q-11 11 -23 20q-1 0 -3 2t-3 2q51 18 58 65q1 6 1 12q-2 125 -240 125q-210 0 -225 -92q-1 -6 -1 -13zM100 74q0 29 27 42q9 5 19 5q29 0 42 -27q5 -10 5 -20q0 -29 -27 -42
q-10 -4 -20 -4q-30 0 -42 28q-4 9 -4 18z" />
    <glyph glyph-name="si_BRa" horiz-adv-x="604" 
d="M100 74q0 29 27 42q9 5 19 5q29 0 42 -27q5 -10 5 -20q0 -29 -27 -42q-10 -4 -20 -4q-30 0 -42 28q-4 9 -4 18zM32 183q0 -115 54 -162q26 -22 60 -22q45 0 67 37q11 17 11 39q0 42 -39 64q-19 10 -39 10q-49 0 -66 -41q-4 -10 -5 -19q-7 18 -7 46q0 74 70 112
q42 22 93 22q84 0 91 -38q1 -4 1 -6q0 -26 -27 -45q-27 -20 -35 -35q-8 -17 -8 -39q0 -63 53 -93q29 -15 66 -15q96 1 148 92q3 -13 3 -28q0 -74 -76 -126q-71 -48 -169 -48q-127 0 -187 64l-5 5h-29q54 -162 218 -171h18q122 0 198 80q64 69 64 171q0 50 -20 84
q27 70 27 156q0 163 -105 242q-70 52 -172 52q-150 0 -211 -91q-7 -11 -12 -21h33q58 86 190 86q121 0 176 -86q31 -48 31 -112q0 -108 -58 -183q-48 -61 -109 -62q-39 1 -40 22q0 18 31 35q44 22 57 37q22 25 22 64q0 86 -87 116q-34 11 -75 11q-101 0 -158 -73
q-43 -55 -43 -131z" />
    <glyph glyph-name="si_BU" horiz-adv-x="604" 
d="M100 74q0 29 27 42q9 5 19 5q29 0 42 -27q5 -10 5 -20q0 -29 -27 -42q-10 -4 -20 -4q-30 0 -42 28q-4 9 -4 18zM32 183q0 -115 54 -162q26 -22 60 -22q45 0 67 37q11 17 11 39q0 42 -39 64q-19 10 -39 10q-49 0 -66 -41q-4 -10 -5 -19q-7 18 -7 46q0 74 70 112
q42 22 93 22q84 0 91 -38q1 -4 1 -6q0 -26 -27 -45q-27 -20 -35 -35q-8 -17 -8 -39q0 -63 53 -93q29 -15 66 -15q94 1 146 89v-275h-346q-88 1 -89 49q0 36 35 52q14 7 29 7q39 0 57 -34q2 -3 3 -5l32 12q-18 44 -69 55q-11 3 -23 3q-56 0 -85 -43q-14 -22 -14 -47
q0 -62 55 -82q22 -8 48 -8h401v408q10 45 10 98q0 163 -105 242q-70 52 -172 52q-150 0 -211 -91q-7 -11 -12 -21h33q58 86 190 86q121 0 176 -86q31 -48 31 -112q0 -108 -58 -183q-48 -61 -109 -62q-39 1 -40 22q0 18 31 35q44 22 57 37q22 25 22 64q0 86 -87 116
q-34 11 -75 11q-101 0 -158 -73q-43 -55 -43 -131z" />
    <glyph glyph-name="si_BUu" horiz-adv-x="604" 
d="M100 74q0 29 27 42q9 5 19 5q29 0 42 -27q5 -10 5 -20q0 -29 -27 -42q-10 -4 -20 -4q-30 0 -42 28q-4 9 -4 18zM32 183q0 -115 54 -162q26 -22 60 -22q45 0 67 37q11 17 11 39q0 42 -39 64q-19 10 -39 10q-49 0 -66 -41q-4 -10 -5 -19q-7 18 -7 46q0 74 70 112
q42 22 93 22q84 0 91 -38q1 -4 1 -6q0 -26 -27 -45q-27 -20 -35 -35q-8 -17 -8 -39q0 -63 53 -93q29 -15 66 -15q94 1 146 89v-249q-43 50 -121 50q-57 0 -149 -30q-63 -21 -96 -21q-49 0 -60 32q-2 7 -2 14q0 28 31 42q15 7 32 7q36 -1 57 -32l32 11q-32 50 -94 50
q-54 0 -83 -42q-17 -25 -17 -54q0 -66 63 -88q21 -8 45 -8q49 0 123 41q70 40 105 45q11 2 22 2q63 0 106 -57q10 -14 15 -26h25v405q10 45 10 98q0 163 -105 242q-70 52 -172 52q-150 0 -211 -91q-7 -11 -12 -21h33q58 86 190 86q121 0 176 -86q31 -48 31 -112
q0 -108 -58 -183q-48 -61 -109 -62q-39 1 -40 22q0 18 31 35q44 22 57 37q22 25 22 64q0 86 -87 116q-34 11 -75 11q-101 0 -158 -73q-43 -55 -43 -131z" />
    <glyph glyph-name="si_Ba.reph" horiz-adv-x="604" 
d="M100 74q0 29 27 42q9 5 19 5q29 0 42 -27q5 -10 5 -20q0 -29 -27 -42q-10 -4 -20 -4q-30 0 -42 28q-4 9 -4 18zM32 183q0 -115 54 -162q26 -22 60 -22q45 0 67 37q11 17 11 39q0 42 -39 64q-19 10 -39 10q-49 0 -66 -41q-4 -10 -5 -19q-7 18 -7 46q0 74 70 112
q42 22 93 22q84 0 91 -38q1 -4 1 -6q0 -26 -27 -45q-27 -20 -35 -35q-8 -17 -8 -39q0 -63 53 -93q29 -15 66 -15q113 0 163 123q27 68 27 156q0 166 -108 244q-30 22 -66 34h17q24 29 24 64q0 66 -65 96q-33 15 -72 15q-92 0 -125 -53q-12 -21 -12 -46q1 -45 48 -69
q-102 -25 -141 -103h33q58 86 190 86q121 0 176 -86q31 -48 31 -112q0 -108 -58 -183q-48 -61 -109 -62q-39 1 -40 22q0 18 31 35q44 22 57 37q22 25 22 64q0 86 -87 116q-34 11 -75 11q-101 0 -158 -73q-43 -55 -43 -131zM255 613q0 25 25 34q7 2 14 2q27 0 37 -23
q3 -7 3 -13q0 -24 -25 -33q-8 -3 -15 -3q-26 0 -36 23q-3 7 -3 13zM361 612q0 39 -38 54q-14 6 -30 6q-41 0 -59 -32q-6 -13 -6 -26q1 -26 18 -40q-31 4 -49 28q-10 14 -10 29q0 49 62 66q20 5 42 5q71 0 97 -46q10 -18 10 -38q-1 -33 -24 -59q-12 4 -35 8q21 18 22 45z" />
    <glyph glyph-name="si_Ba.touch" horiz-adv-x="604" 
d="M100 74q0 -30 28 -42q9 -4 18 -4q29 0 42 27q5 9 5 19q0 29 -27 42q-10 5 -20 5q-29 0 -42 -27q-4 -10 -4 -20zM32 183q0 109 80 167q53 37 121 37q106 0 145 -63q17 -28 17 -64q0 -59 -54 -89q-6 -3 -17 -9q-33 -16 -38 -30q-1 -4 -1 -8q1 -22 40 -22q74 0 124 84
q43 72 43 161q0 110 -81 164q-53 34 -126 34q-133 -1 -190 -86h-33q47 96 181 110q21 2 42 2q156 0 229 -114q48 -74 48 -180q0 -146 -67 -223q-50 -56 -123 -56q-78 0 -108 59q-11 22 -11 49q0 42 33 66q26 20 31 29q6 11 6 24q0 33 -56 42q-17 2 -36 2q-89 0 -135 -56
q-28 -33 -28 -78q0 -27 7 -46q5 42 45 56q13 4 26 4q45 0 68 -38q10 -17 10 -36q0 -48 -43 -68q-17 -8 -35 -8q-74 0 -102 94q-12 41 -12 90z" />
    <glyph glyph-name="si_Bh.halant" horiz-adv-x="654" 
d="M6 262q19 4 111 7q-68 -44 -69 -118q0 -87 71 -129q41 -23 93 -23q96 0 139 64q22 35 22 79q0 66 -39 88q-12 6 -25 6q-14 -1 -27 -7q18 56 57 71q19 7 42 7q79 0 109 -80q11 -32 11 -65q0 -87 -52 -119q-24 -15 -55 -15q-23 0 -35 2v-28q21 -3 40 -3q103 0 163 76
q44 57 44 131q0 112 -64 173q-26 25 -59 36v52q21 -10 44 -10q48 0 68 38q9 16 9 34q0 56 -58 89q-11 6 -35 16q-39 19 -55 31v-244q-7 1 -20 1q-81 0 -137 -84q-44 -65 -50 -148l24 -8q10 27 32 28q20 -2 21 -24q0 -36 -71 -47q-17 -3 -33 -3q-88 0 -110 44q-5 12 -5 24
q0 38 47 57q28 11 62 11q12 0 33 -2q0 91 -54 131q-28 21 -64 21q-56 0 -77 -41q-6 -13 -6 -26q0 -33 31 -39q4 -1 9 -1q27 1 39 29q12 25 37 25q28 0 43 -36q8 -18 8 -37h-209v-34zM484 492v130q54 -36 65 -53t11 -36q0 -35 -29 -45q-8 -2 -16 -2q-19 0 -31 6z" />
    <glyph glyph-name="si_BhI" horiz-adv-x="654" 
d="M6 262q19 4 111 7q-68 -44 -69 -118q0 -87 71 -129q41 -23 93 -23q96 0 139 64q22 35 22 79q0 66 -39 88q-12 6 -25 6q-14 -1 -27 -7q18 56 57 71q19 7 42 7q79 0 109 -80q11 -32 11 -65q0 -87 -52 -119q-24 -15 -55 -15q-23 0 -35 2v-28q21 -3 40 -3q103 0 163 76
q44 57 44 131q0 114 -65 175q-18 16 -38 26q69 29 70 104q0 81 -90 119q-51 21 -113 21q-118 0 -169 -57q-27 -30 -27 -70q0 -72 101 -106q39 -12 88 -17q-73 -44 -102 -145q-9 -33 -12 -66l24 -8q10 27 32 28q20 -2 21 -24q0 -36 -71 -47q-17 -3 -33 -3q-88 0 -110 44
q-5 12 -5 24q0 38 47 57q28 11 62 11q12 0 33 -2q0 91 -54 131q-28 21 -64 21q-56 0 -77 -41q-6 -13 -6 -26q0 -33 31 -39q4 -1 9 -1q27 1 39 29q12 25 37 25q28 0 43 -36q8 -18 8 -37h-209v-34zM243 491q0 33 54 51q35 11 80 11q154 -1 155 -67q0 -37 -38 -56
q-18 -8 -41 -9q-7 1 -17 1t-16 -1q-113 3 -159 38q-17 15 -18 32z" />
    <glyph glyph-name="si_BhIi" horiz-adv-x="654" 
d="M6 262q19 4 111 7q-68 -44 -69 -118q0 -87 71 -129q41 -23 93 -23q96 0 139 64q22 35 22 79q0 66 -39 88q-12 6 -25 6q-14 -1 -27 -7q18 56 57 71q19 7 42 7q79 0 109 -80q11 -32 11 -65q0 -87 -52 -119q-24 -15 -55 -15q-23 0 -35 2v-28q21 -3 40 -3q103 0 163 76
q44 57 44 131q0 112 -63 173q-45 43 -107 43q-10 0 -16 -1q-113 3 -159 38q-17 15 -18 32q0 33 54 51q35 11 80 11h17q-14 -23 -14 -45q0 -52 51 -76q23 -11 46 -11q53 0 80 38q16 23 16 54q0 78 -89 116q-51 22 -114 22q-118 0 -169 -57q-27 -30 -27 -70q0 -72 98 -106
q39 -14 88 -19q-71 -44 -100 -146q-8 -31 -11 -63l24 -8q10 27 32 28q20 -2 21 -24q0 -36 -71 -47q-17 -3 -33 -3q-88 0 -110 44q-5 12 -5 24q0 38 47 57q28 11 62 11q12 0 33 -2q0 91 -54 131q-28 21 -64 21q-56 0 -77 -41q-6 -13 -6 -26q0 -33 31 -39q4 -1 9 -1
q27 1 39 29q12 25 37 25q28 0 43 -36q8 -18 8 -37h-209v-34zM412 508q0 36 36 52q14 6 29 6q41 0 59 -33q6 -13 6 -25q0 -35 -34 -52q-15 -7 -31 -7q-40 0 -58 33q-7 13 -7 26z" />
    <glyph glyph-name="si_BhRI" horiz-adv-x="654" 
d="M243 491q0 33 54 51q35 11 80 11q154 -1 155 -67q0 -37 -38 -56q-18 -8 -41 -9q-7 1 -17 1t-16 -1q-113 3 -159 38q-17 15 -18 32zM174 524q0 -72 101 -106q39 -12 88 -17q-73 -44 -102 -145q-9 -33 -12 -66l24 -8q10 27 32 28q20 -2 21 -24q0 -36 -71 -47q-17 -3 -33 -3
q-88 0 -110 44q-5 12 -5 24q0 38 47 57q28 11 62 11q12 0 33 -2q0 91 -54 131q-28 21 -64 21q-56 0 -77 -41q-6 -13 -6 -26q0 -33 31 -39q4 -1 9 -1q27 1 39 29q12 25 37 25q28 0 43 -36q8 -18 8 -37h-209v-34q19 4 111 7q-68 -44 -69 -118q0 -87 71 -129q41 -23 93 -23
q96 0 139 64q22 35 22 79q0 66 -39 88q-12 6 -25 6q-14 -1 -27 -7q18 56 57 71q19 7 42 7q79 0 109 -80q11 -32 11 -65q0 -87 -52 -119q-24 -15 -55 -15q-23 0 -35 2v-28q21 -3 40 -3q99 1 159 71v-8q0 -73 -78 -124q-75 -49 -179 -49q-131 0 -180 47q-10 10 -18 21h-29
q59 -170 249 -171q131 0 206 84q59 67 59 167q0 36 -10 61q28 50 28 108q0 114 -65 175q-18 16 -38 26q69 29 70 104q0 81 -90 119q-51 21 -113 21q-118 0 -169 -57q-27 -30 -27 -70z" />
    <glyph glyph-name="si_BhRIi" horiz-adv-x="654" 
d="M6 262q19 4 111 7q-68 -44 -69 -118q0 -87 71 -129q41 -23 93 -23q96 0 139 64q22 35 22 79q0 66 -39 88q-12 6 -25 6q-14 -1 -27 -7q18 56 57 71q19 7 42 7q79 0 109 -80q11 -32 11 -65q0 -87 -52 -119q-24 -15 -55 -15q-23 0 -35 2v-28q21 -3 40 -3q99 1 159 71v-8
q0 -73 -78 -124q-75 -49 -179 -49q-131 0 -180 47q-10 10 -18 21h-29q59 -170 249 -171q131 0 206 84q59 67 59 167q0 36 -10 61q28 50 28 108q0 112 -63 173q-45 43 -107 43q-10 0 -16 -1q-113 3 -159 38q-17 15 -18 32q0 33 54 51q35 11 80 11h17q-14 -23 -14 -45
q0 -52 51 -76q23 -11 46 -11q53 0 80 38q16 23 16 54q0 78 -89 116q-51 22 -114 22q-118 0 -169 -57q-27 -30 -27 -70q0 -72 98 -106q39 -14 88 -19q-71 -44 -100 -146q-8 -31 -11 -63l24 -8q10 27 32 28q20 -2 21 -24q0 -36 -71 -47q-17 -3 -33 -3q-88 0 -110 44
q-5 12 -5 24q0 38 47 57q28 11 62 11q12 0 33 -2q0 91 -54 131q-28 21 -64 21q-56 0 -77 -41q-6 -13 -6 -26q0 -33 31 -39q4 -1 9 -1q27 1 39 29q12 25 37 25q28 0 43 -36q8 -18 8 -37h-209v-34zM412 508q0 36 36 52q14 6 29 6q41 0 59 -33q6 -13 6 -25q0 -35 -34 -52
q-15 -7 -31 -7q-40 0 -58 33q-7 13 -7 26z" />
    <glyph glyph-name="si_BhRa" horiz-adv-x="654" 
d="M6 262q19 4 111 7q-68 -44 -69 -118q0 -87 71 -129q41 -23 93 -23q96 0 139 64q22 35 22 79q0 66 -39 88q-12 6 -25 6q-14 -1 -27 -7q18 56 57 71q19 7 42 7q79 0 109 -80q11 -32 11 -65q0 -87 -52 -119q-24 -15 -55 -15q-23 0 -35 2v-28q21 -3 40 -3q99 1 159 71v-8
q0 -73 -78 -124q-75 -49 -179 -49q-131 0 -180 47q-10 10 -18 21h-29q59 -170 249 -171q131 0 206 84q59 67 59 167q0 36 -10 61q28 50 28 108q0 112 -63 173q-45 43 -107 43q-81 0 -137 -84q-44 -65 -50 -148l24 -8q10 27 32 28q20 -2 21 -24q0 -36 -71 -47q-17 -3 -33 -3
q-88 0 -110 44q-5 12 -5 24q0 38 47 57q28 11 62 11q12 0 33 -2q0 91 -54 131q-28 21 -64 21q-56 0 -77 -41q-6 -13 -6 -26q0 -33 31 -39q4 -1 9 -1q27 1 39 29q12 25 37 25q28 0 43 -36q8 -18 8 -37h-209v-34z" />
    <glyph glyph-name="si_BhRa.halant" horiz-adv-x="654" 
d="M484 492v130q54 -36 65 -53t11 -36q0 -35 -29 -45q-8 -2 -16 -2q-19 0 -31 6zM6 262q19 4 111 7q-68 -44 -69 -118q0 -87 71 -129q41 -23 93 -23q96 0 139 64q22 35 22 79q0 66 -39 88q-12 6 -25 6q-14 -1 -27 -7q18 56 57 71q19 7 42 7q79 0 109 -80q11 -32 11 -65
q0 -87 -52 -119q-24 -15 -55 -15q-23 0 -35 2v-28q21 -3 40 -3q99 1 159 71v-8q0 -73 -78 -124q-75 -49 -179 -49q-131 0 -180 47q-10 10 -18 21h-29q59 -170 249 -171q131 0 206 84q59 67 59 167q0 36 -10 61q28 50 28 108q0 112 -64 173q-26 25 -59 36v52q21 -10 44 -10
q48 0 68 38q9 16 9 34q0 56 -58 89q-11 6 -35 16q-39 19 -55 31v-244q-7 1 -20 1q-81 0 -137 -84q-44 -65 -50 -148l24 -8q10 27 32 28q20 -2 21 -24q0 -36 -71 -47q-17 -3 -33 -3q-88 0 -110 44q-5 12 -5 24q0 38 47 57q28 11 62 11q12 0 33 -2q0 91 -54 131q-28 21 -64 21
q-56 0 -77 -41q-6 -13 -6 -26q0 -33 31 -39q4 -1 9 -1q27 1 39 29q12 25 37 25q28 0 43 -36q8 -18 8 -37h-209v-34z" />
    <glyph glyph-name="si_BhU" horiz-adv-x="654" 
d="M6 265q24 4 114 6q-69 -47 -72 -120q0 -87 71 -129q41 -23 93 -23q96 0 139 64q22 35 22 79q0 66 -39 88q-12 6 -25 6q-14 -1 -27 -7q18 56 57 71q19 7 42 7q79 0 109 -80q11 -32 11 -65q0 -94 -51 -123q-10 -6 -21 -8q-30 -6 -38 -9q-59 -25 -60 -92q0 -85 81 -110
q24 -7 52 -7q89 0 126 65q15 27 15 54q0 24 -2 33h-29v-9q0 -39 -57 -53q-22 -6 -48 -6q-66 0 -86 35q-6 10 -6 21q1 26 25 40q17 6 39 6q70 0 120 67q45 61 45 140q0 112 -63 173q-45 43 -107 43q-81 0 -137 -84q-44 -65 -50 -148l24 -8q10 27 32 28q20 -2 21 -24
q0 -36 -71 -47q-17 -3 -33 -3q-88 0 -110 44q-5 12 -5 24q0 38 47 57q28 11 62 11q12 0 33 -2q0 91 -54 131q-28 21 -64 21q-56 0 -77 -41q-6 -13 -6 -26q0 -33 31 -39q4 -1 9 -1q27 1 39 29q12 25 37 25q28 0 43 -36q8 -18 8 -37h-7h-1h-201v-31z" />
    <glyph glyph-name="si_BhUu" horiz-adv-x="654" 
d="M6 262q19 4 111 7q-68 -44 -69 -118q0 -87 71 -129q41 -23 93 -23q96 0 139 64q22 35 22 79q0 66 -39 88q-12 6 -25 6q-14 -1 -27 -7q18 56 57 71q19 7 42 7q79 0 109 -80q11 -32 11 -65q0 -87 -52 -119q-24 -15 -55 -15q-23 0 -35 2v-28h5q3 -1 4 -1l88 -15l-83 -24
l54 -27q-49 -7 -60 -44q-3 -8 -3 -17q0 -62 90 -72q15 -2 29 -2q88 0 119 59q12 22 12 49q0 19 -5 34h-34q6 -10 6 -22q0 -34 -62 -44q-16 -2 -34 -2q-71 1 -72 24q0 15 51 23q22 3 29 5l-59 32l107 36l-80 14q88 25 126 108q19 42 19 90q0 112 -63 173q-45 43 -107 43
q-81 0 -137 -84q-44 -65 -50 -148l24 -8q10 27 32 28q20 -2 21 -24q0 -36 -71 -47q-17 -3 -33 -3q-88 0 -110 44q-5 12 -5 24q0 38 47 57q28 11 62 11q12 0 33 -2q0 91 -54 131q-28 21 -64 21q-56 0 -77 -41q-6 -13 -6 -26q0 -33 31 -39q4 -1 9 -1q27 1 39 29q12 25 37 25
q28 0 43 -36q8 -18 8 -37h-209v-34z" />
    </font>
</defs>
</svg>
